<svg xmlns="http://www.w3.org/2000/svg" width="141.08" height="17.49" viewBox="0 0 141.08 17.49">
  <g id="グループ_89" data-name="グループ 89" transform="translate(-406.795 -2120.01)">
    <g id="グループ_86" data-name="グループ 86" transform="translate(868.464 2475.517) rotate(90)">
      <circle id="楕円形_2" data-name="楕円形 2" cx="1.745" cy="1.745" r="1.745" transform="translate(-355.507 320.589)" fill="#5aa5da"/>
      <circle id="楕円形_3" data-name="楕円形 3" cx="1.745" cy="1.745" r="1.745" transform="translate(-355.507 329.762)" fill="#5aa5da"/>
      <circle id="楕円形_4" data-name="楕円形 4" cx="1.745" cy="1.745" r="1.745" transform="translate(-355.507 338.934)" fill="#5aa5da"/>
      <circle id="楕円形_5" data-name="楕円形 5" cx="1.745" cy="1.745" r="1.745" transform="translate(-355.507 348.107)" fill="#5aa5da"/>
      <circle id="楕円形_6" data-name="楕円形 6" cx="1.745" cy="1.745" r="1.745" transform="translate(-355.507 357.279)" fill="#5aa5da"/>
      <circle id="楕円形_7" data-name="楕円形 7" cx="1.745" cy="1.745" r="1.745" transform="translate(-355.507 366.452)" fill="#5aa5da"/>
      <circle id="楕円形_8" data-name="楕円形 8" cx="1.745" cy="1.745" r="1.745" transform="translate(-355.507 375.625)" fill="#5aa5da"/>
      <circle id="楕円形_9" data-name="楕円形 9" cx="1.745" cy="1.745" r="1.745" transform="translate(-355.507 384.797)" fill="#5aa5da"/>
      <circle id="楕円形_10" data-name="楕円形 10" cx="1.745" cy="1.745" r="1.745" transform="translate(-355.507 393.97)" fill="#5aa5da"/>
      <circle id="楕円形_11" data-name="楕円形 11" cx="1.745" cy="1.745" r="1.745" transform="translate(-355.507 403.142)" fill="#5aa5da"/>
      <circle id="楕円形_12" data-name="楕円形 12" cx="1.745" cy="1.745" r="1.745" transform="translate(-355.507 412.315)" fill="#5aa5da"/>
      <circle id="楕円形_13" data-name="楕円形 13" cx="1.745" cy="1.745" r="1.745" transform="translate(-355.507 421.488)" fill="#5aa5da"/>
      <circle id="楕円形_14" data-name="楕円形 14" cx="1.745" cy="1.745" r="1.745" transform="translate(-355.507 430.66)" fill="#5aa5da"/>
      <circle id="楕円形_15" data-name="楕円形 15" cx="1.745" cy="1.745" r="1.745" transform="translate(-355.507 439.833)" fill="#5aa5da"/>
      <circle id="楕円形_16" data-name="楕円形 16" cx="1.745" cy="1.745" r="1.745" transform="translate(-355.507 449.006)" fill="#5aa5da"/>
      <circle id="楕円形_17" data-name="楕円形 17" cx="1.745" cy="1.745" r="1.745" transform="translate(-355.507 458.178)" fill="#5aa5da"/>
    </g>
    <g id="グループ_87" data-name="グループ 87" transform="translate(868.464 2482.517) rotate(90)">
      <circle id="楕円形_2-2" data-name="楕円形 2" cx="1.745" cy="1.745" r="1.745" transform="translate(-355.507 320.589)" fill="#5aa5da"/>
      <circle id="楕円形_3-2" data-name="楕円形 3" cx="1.745" cy="1.745" r="1.745" transform="translate(-355.507 329.762)" fill="#5aa5da"/>
      <circle id="楕円形_4-2" data-name="楕円形 4" cx="1.745" cy="1.745" r="1.745" transform="translate(-355.507 338.934)" fill="#5aa5da"/>
      <circle id="楕円形_5-2" data-name="楕円形 5" cx="1.745" cy="1.745" r="1.745" transform="translate(-355.507 348.107)" fill="#5aa5da"/>
      <circle id="楕円形_6-2" data-name="楕円形 6" cx="1.745" cy="1.745" r="1.745" transform="translate(-355.507 357.279)" fill="#5aa5da"/>
      <circle id="楕円形_7-2" data-name="楕円形 7" cx="1.745" cy="1.745" r="1.745" transform="translate(-355.507 366.452)" fill="#5aa5da"/>
      <circle id="楕円形_8-2" data-name="楕円形 8" cx="1.745" cy="1.745" r="1.745" transform="translate(-355.507 375.625)" fill="#5aa5da"/>
      <circle id="楕円形_9-2" data-name="楕円形 9" cx="1.745" cy="1.745" r="1.745" transform="translate(-355.507 384.797)" fill="#5aa5da"/>
      <circle id="楕円形_10-2" data-name="楕円形 10" cx="1.745" cy="1.745" r="1.745" transform="translate(-355.507 393.97)" fill="#5aa5da"/>
      <circle id="楕円形_11-2" data-name="楕円形 11" cx="1.745" cy="1.745" r="1.745" transform="translate(-355.507 403.142)" fill="#5aa5da"/>
      <circle id="楕円形_12-2" data-name="楕円形 12" cx="1.745" cy="1.745" r="1.745" transform="translate(-355.507 412.315)" fill="#5aa5da"/>
      <circle id="楕円形_13-2" data-name="楕円形 13" cx="1.745" cy="1.745" r="1.745" transform="translate(-355.507 421.488)" fill="#5aa5da"/>
      <circle id="楕円形_14-2" data-name="楕円形 14" cx="1.745" cy="1.745" r="1.745" transform="translate(-355.507 430.66)" fill="#5aa5da"/>
      <circle id="楕円形_15-2" data-name="楕円形 15" cx="1.745" cy="1.745" r="1.745" transform="translate(-355.507 439.833)" fill="#5aa5da"/>
      <circle id="楕円形_16-2" data-name="楕円形 16" cx="1.745" cy="1.745" r="1.745" transform="translate(-355.507 449.006)" fill="#5aa5da"/>
      <circle id="楕円形_17-2" data-name="楕円形 17" cx="1.745" cy="1.745" r="1.745" transform="translate(-355.507 458.178)" fill="#5aa5da"/>
    </g>
    <g id="グループ_88" data-name="グループ 88" transform="translate(868.464 2489.517) rotate(90)">
      <circle id="楕円形_2-3" data-name="楕円形 2" cx="1.745" cy="1.745" r="1.745" transform="translate(-355.507 320.589)" fill="#5aa5da"/>
      <circle id="楕円形_3-3" data-name="楕円形 3" cx="1.745" cy="1.745" r="1.745" transform="translate(-355.507 329.762)" fill="#5aa5da"/>
      <circle id="楕円形_4-3" data-name="楕円形 4" cx="1.745" cy="1.745" r="1.745" transform="translate(-355.507 338.934)" fill="#5aa5da"/>
      <circle id="楕円形_5-3" data-name="楕円形 5" cx="1.745" cy="1.745" r="1.745" transform="translate(-355.507 348.107)" fill="#5aa5da"/>
      <circle id="楕円形_6-3" data-name="楕円形 6" cx="1.745" cy="1.745" r="1.745" transform="translate(-355.507 357.279)" fill="#5aa5da"/>
      <circle id="楕円形_7-3" data-name="楕円形 7" cx="1.745" cy="1.745" r="1.745" transform="translate(-355.507 366.452)" fill="#5aa5da"/>
      <circle id="楕円形_8-3" data-name="楕円形 8" cx="1.745" cy="1.745" r="1.745" transform="translate(-355.507 375.625)" fill="#5aa5da"/>
      <circle id="楕円形_9-3" data-name="楕円形 9" cx="1.745" cy="1.745" r="1.745" transform="translate(-355.507 384.797)" fill="#5aa5da"/>
      <circle id="楕円形_10-3" data-name="楕円形 10" cx="1.745" cy="1.745" r="1.745" transform="translate(-355.507 393.97)" fill="#5aa5da"/>
      <circle id="楕円形_11-3" data-name="楕円形 11" cx="1.745" cy="1.745" r="1.745" transform="translate(-355.507 403.142)" fill="#5aa5da"/>
      <circle id="楕円形_12-3" data-name="楕円形 12" cx="1.745" cy="1.745" r="1.745" transform="translate(-355.507 412.315)" fill="#5aa5da"/>
      <circle id="楕円形_13-3" data-name="楕円形 13" cx="1.745" cy="1.745" r="1.745" transform="translate(-355.507 421.488)" fill="#5aa5da"/>
      <circle id="楕円形_14-3" data-name="楕円形 14" cx="1.745" cy="1.745" r="1.745" transform="translate(-355.507 430.66)" fill="#5aa5da"/>
      <circle id="楕円形_15-3" data-name="楕円形 15" cx="1.745" cy="1.745" r="1.745" transform="translate(-355.507 439.833)" fill="#5aa5da"/>
      <circle id="楕円形_16-3" data-name="楕円形 16" cx="1.745" cy="1.745" r="1.745" transform="translate(-355.507 449.006)" fill="#5aa5da"/>
      <circle id="楕円形_17-3" data-name="楕円形 17" cx="1.745" cy="1.745" r="1.745" transform="translate(-355.507 458.178)" fill="#5aa5da"/>
    </g>
  </g>
</svg>
