<svg xmlns="http://www.w3.org/2000/svg" width="104.386" height="53.923" viewBox="0 0 104.386 53.923">
  <g id="グループ_173" data-name="グループ 173" transform="translate(-141.634 -688.767)">
    <g id="グループ_35" data-name="グループ 35" transform="translate(142.164 694.946)">
      <path id="パス_97" data-name="パス 97" d="M-2009.624-61.625l7.8.352,6.8.307a32.873,32.873,0,0,1,32.547-28.28h26.358a32.868,32.868,0,0,1-32.868,32.868H-1991.8l-4.134,6.468-4.2,6.575a2.885,2.885,0,0,1-4.992-.226l-3.593-6.927-3.593-6.927A2.885,2.885,0,0,1-2009.624-61.625Z" transform="translate(2012.643 89.246)" fill="#ffc37c" stroke="#ff917b" stroke-width="1"/>
      <path id="パス_98" data-name="パス 98" d="M-1989.683-78.841a2.115,2.115,0,0,1,2.941.548,2.116,2.116,0,0,1-.548,2.941,2.116,2.116,0,0,1-2.941-.548A2.116,2.116,0,0,1-1989.683-78.841Z" transform="translate(2055.367 82.636)" fill="#ff917b"/>
      <path id="パス_99" data-name="パス 99" d="M-1976.1-66.63a.632.632,0,0,0,.264-.405.634.634,0,0,0-.505-.742,7.307,7.307,0,0,1-5.05-3,8.064,8.064,0,0,1-.89-5.615.635.635,0,0,0-.453-.761c-2.25-.6-3.67-2.262-4.222-4.934a13.039,13.039,0,0,1-.147-4.046.635.635,0,0,0-.533-.721.634.634,0,0,0-.722.532c-.012.084-1.158,8.147,4.737,10.221a9.015,9.015,0,0,0,1.157,6,8.509,8.509,0,0,0,5.886,3.565A.633.633,0,0,0-1976.1-66.63Z" transform="translate(2044.084 87.672)" fill="#fff"/>
      <path id="パス_100" data-name="パス 100" d="M-1947.428-7.821l4.414,2.691c1.256.766,3.2-.651,3.493-2.55l1.042-6.674,1.041-6.674c.3-1.9-1.274-2.857-2.826-1.723l-5.455,3.983-5.455,3.983c-1.553,1.134-1.923,3.508-.667,4.274Z" transform="translate(1993.43 45.763)" fill="#e7fea0"/>
      <path id="パス_101" data-name="パス 101" d="M-1939.813-71.119a4.029,4.029,0,0,1-5.691-.284,4.029,4.029,0,0,1,.284-5.691Z" transform="translate(1993.776 81.241)" fill="#e7ffa0"/>
      <path id="パス_102" data-name="パス 102" d="M-1959.542-40.759a4.029,4.029,0,0,1-5.691-.284,4.03,4.03,0,0,1,.285-5.691Z" transform="translate(2020.238 61.241)" fill="#e7ffa0"/>
      <path id="パス_103" data-name="パス 103" d="M-1933.465-46.742a4.029,4.029,0,0,1-5.691-.285,4.029,4.029,0,0,1,.284-5.691Z" transform="translate(1985.262 65.182)" fill="#e7ffa0"/>
      <path id="パス_104" data-name="パス 104" d="M-1901.694-60.3a4.029,4.029,0,0,1-5.691-.284,4.03,4.03,0,0,1,.284-5.691Z" transform="translate(1942.649 74.115)" fill="#e7ffa0"/>
      <path id="パス_105" data-name="パス 105" d="M-1919.54-27.545a4.029,4.029,0,0,1-5.691-.285,4.029,4.029,0,0,1,.285-5.691Z" transform="translate(1966.586 52.536)" fill="#e7ffa0"/>
      <path id="パス_106" data-name="パス 106" d="M-1893.792-27.545a4.029,4.029,0,0,1-5.691-.285,4.029,4.029,0,0,1,.284-5.691Z" transform="translate(1932.051 52.536)" fill="#e7ffa0"/>
      <path id="パス_107" data-name="パス 107" d="M-1865.543-24.331a4.029,4.029,0,0,1-5.691-.284,4.029,4.029,0,0,1,.285-5.691Z" transform="translate(1894.163 50.418)" fill="#e7ffa0"/>
    </g>
    <g id="グループ_36" data-name="グループ 36" transform="translate(215.447 703.384)">
      <path id="パス_97-2" data-name="パス 97" d="M-2011.456-78.39l3.064.138,2.672.121a12.92,12.92,0,0,1,12.792-11.115h10.359a12.918,12.918,0,0,1-12.918,12.918h-8.964l-1.625,2.542-1.652,2.584a1.134,1.134,0,0,1-1.962-.089l-1.412-2.722-1.412-2.722A1.134,1.134,0,0,1-2011.456-78.39Z" transform="translate(2012.643 89.246)" fill="#ffc37c" stroke="#ff917b" stroke-width="1"/>
      <path id="パス_98-2" data-name="パス 98" d="M-1990.241-79.066a.831.831,0,0,1,1.156.215.831.831,0,0,1-.215,1.156.832.832,0,0,1-1.156-.215A.832.832,0,0,1-1990.241-79.066Z" transform="translate(2016.056 80.558)" fill="#ff917b"/>
      <path id="パス_99-2" data-name="パス 99" d="M-1983.6-78.908a.248.248,0,0,0,.1-.159.249.249,0,0,0-.2-.291,2.872,2.872,0,0,1-1.985-1.178,3.169,3.169,0,0,1-.35-2.207.25.25,0,0,0-.178-.3,2.286,2.286,0,0,1-1.659-1.939,5.124,5.124,0,0,1-.058-1.59.25.25,0,0,0-.21-.284.249.249,0,0,0-.284.209c0,.033-.455,3.2,1.862,4.017a3.543,3.543,0,0,0,.455,2.359,3.344,3.344,0,0,0,2.313,1.4A.249.249,0,0,0-1983.6-78.908Z" transform="translate(2010.317 87.177)" fill="#fff"/>
      <path id="パス_100-2" data-name="パス 100" d="M-1950.566-17.179l1.735,1.057c.494.3,1.257-.256,1.373-1l.409-2.623.409-2.623c.117-.747-.5-1.123-1.111-.677l-2.144,1.565-2.144,1.565c-.61.446-.756,1.379-.262,1.68Z" transform="translate(1968.646 32.091)" fill="#e7fea0"/>
      <path id="パス_101-2" data-name="パス 101" d="M-1943.9-74.746a1.584,1.584,0,0,1-2.237-.112,1.584,1.584,0,0,1,.112-2.237Z" transform="translate(1965.108 78.724)" fill="#e7ffa0"/>
      <path id="パス_102-2" data-name="パス 102" d="M-1963.629-44.386a1.584,1.584,0,0,1-2.237-.112,1.584,1.584,0,0,1,.112-2.237Z" transform="translate(1987.484 52.435)" fill="#e7ffa0"/>
      <path id="パス_103-2" data-name="パス 103" d="M-1937.551-50.369a1.583,1.583,0,0,1-2.236-.112,1.583,1.583,0,0,1,.112-2.237Z" transform="translate(1957.908 57.616)" fill="#e7ffa0"/>
      <path id="パス_104-2" data-name="パス 104" d="M-1905.78-63.93a1.584,1.584,0,0,1-2.237-.112,1.584,1.584,0,0,1,.112-2.237Z" transform="translate(1921.877 69.358)" fill="#e7ffa0"/>
      <path id="パス_105-2" data-name="パス 105" d="M-1923.627-31.172a1.584,1.584,0,0,1-2.237-.112,1.583,1.583,0,0,1,.112-2.237Z" transform="translate(1942.116 40.994)" fill="#e7ffa0"/>
      <path id="パス_106-2" data-name="パス 106" d="M-1897.878-31.172a1.583,1.583,0,0,1-2.237-.112A1.583,1.583,0,0,1-1900-33.52Z" transform="translate(1912.915 40.994)" fill="#e7ffa0"/>
      <path id="パス_107-2" data-name="パス 107" d="M-1869.63-27.958a1.583,1.583,0,0,1-2.237-.112,1.584,1.584,0,0,1,.112-2.237Z" transform="translate(1880.878 38.211)" fill="#e7ffa0"/>
    </g>
    <g id="グループ_37" data-name="グループ 37" transform="translate(144.185 689.267)">
      <path id="パス_97-3" data-name="パス 97" d="M-2011.6-79.715l2.69.122,2.346.106a11.343,11.343,0,0,1,11.231-9.758h9.095a11.341,11.341,0,0,1-11.341,11.341h-7.869l-1.427,2.232-1.45,2.269a1,1,0,0,1-1.723-.078l-1.24-2.39-1.24-2.39A1,1,0,0,1-2011.6-79.715Z" transform="translate(2012.643 89.246)" fill="#ffc37c" stroke="#ff917b" stroke-width="1"/>
      <path id="パス_98-3" data-name="パス 98" d="M-1990.285-79.084a.73.73,0,0,1,1.015.189.73.73,0,0,1-.189,1.015.73.73,0,0,1-1.015-.189A.73.73,0,0,1-1990.285-79.084Z" transform="translate(2012.949 80.393)" fill="#ff917b"/>
      <path id="パス_99-3" data-name="パス 99" d="M-1984.189-79.878a.217.217,0,0,0,.091-.14.219.219,0,0,0-.174-.256,2.521,2.521,0,0,1-1.742-1.034,2.783,2.783,0,0,1-.307-1.937.219.219,0,0,0-.156-.262,2.007,2.007,0,0,1-1.457-1.7,4.493,4.493,0,0,1-.051-1.4.219.219,0,0,0-.184-.249.219.219,0,0,0-.249.184c0,.029-.4,2.811,1.635,3.527a3.108,3.108,0,0,0,.4,2.071,2.936,2.936,0,0,0,2.031,1.23A.218.218,0,0,0-1984.189-79.878Z" transform="translate(2007.648 87.138)" fill="#fff"/>
      <path id="パス_100-3" data-name="パス 100" d="M-1950.814-17.919l1.523.928c.434.264,1.1-.225,1.206-.88l.359-2.3.359-2.3c.1-.655-.44-.986-.975-.595l-1.882,1.374-1.882,1.374c-.536.391-.663,1.21-.23,1.475Z" transform="translate(1966.687 31.011)" fill="#e7fea0"/>
      <path id="パス_101-3" data-name="パス 101" d="M-1944.222-75.032a1.39,1.39,0,0,1-1.964-.1,1.39,1.39,0,0,1,.1-1.964Z" transform="translate(1962.842 78.525)" fill="#e7ffa0"/>
      <path id="パス_102-3" data-name="パス 102" d="M-1963.952-44.672a1.39,1.39,0,0,1-1.964-.1,1.391,1.391,0,0,1,.1-1.964Z" transform="translate(1984.895 51.739)" fill="#e7ffa0"/>
      <path id="パス_103-3" data-name="パス 103" d="M-1937.874-50.655a1.39,1.39,0,0,1-1.964-.1,1.39,1.39,0,0,1,.1-1.964Z" transform="translate(1955.747 57.018)" fill="#e7ffa0"/>
      <path id="パス_104-3" data-name="パス 104" d="M-1906.1-64.216a1.391,1.391,0,0,1-1.964-.1,1.39,1.39,0,0,1,.1-1.964Z" transform="translate(1920.235 68.982)" fill="#e7ffa0"/>
      <path id="パス_105-3" data-name="パス 105" d="M-1923.95-31.458a1.39,1.39,0,0,1-1.964-.1,1.39,1.39,0,0,1,.1-1.964Z" transform="translate(1940.183 40.081)" fill="#e7ffa0"/>
      <path id="パス_106-3" data-name="パス 106" d="M-1898.2-31.458a1.39,1.39,0,0,1-1.963-.1,1.39,1.39,0,0,1,.1-1.964Z" transform="translate(1911.402 40.081)" fill="#e7ffa0"/>
      <path id="パス_107-3" data-name="パス 107" d="M-1869.953-28.244a1.39,1.39,0,0,1-1.964-.1,1.39,1.39,0,0,1,.1-1.964Z" transform="translate(1879.828 37.246)" fill="#e7ffa0"/>
    </g>
  </g>
</svg>
