<svg id="グループ_127" data-name="グループ 127" xmlns="http://www.w3.org/2000/svg" width="199.683" height="122.733" viewBox="0 0 199.683 122.733">
  <path id="パス_192" data-name="パス 192" d="M939.493-454.648l36.483,3.99c8.166-27.1,39.375-47.28,76.632-47.28,43.475,0,78.719,27.475,78.719,61.367s-35.244,61.366-78.719,61.366c-33.057,0-61.349-15.886-73.013-38.4l-39.9,5.095c-4.121.526-8.052-1.212-8.052-3.56v-39C931.644-453.365,935.428-455.093,939.493-454.648Z" transform="translate(-931.644 497.938)" fill="#e65538"/>
  <path id="パス_193" data-name="パス 193" d="M931.705-414.135a179.637,179.637,0,0,1,6.272-51.528,211.353,211.353,0,0,1,10.882-30.521c36.707,5.205,64.539,30.254,64.539,60.371,0,33.173-33.765,60.193-75.965,61.325A176.556,176.556,0,0,1,931.705-414.135Z" transform="translate(-813.714 497.178)" fill="#ffa355"/>
  <path id="パス_194" data-name="パス 194" d="M1086.32-398.173l-.592,13.733a5.083,5.083,0,0,0,7.427,4.726l12.19-6.354,12.19-6.355a5.082,5.082,0,0,0,.379-8.795l-11.6-7.379-11.6-7.38a5.082,5.082,0,0,0-7.806,4.069Z" transform="translate(-1007.962 462.804)" fill="#fff362"/>
  <path id="パス_195" data-name="パス 195" d="M966.482-394.99a8.6,8.6,0,0,1,8.6,8.6,8.6,8.6,0,0,1-8.6,8.6,8.6,8.6,0,0,1-8.6-8.6A8.6,8.6,0,0,1,966.482-394.99Z" transform="translate(-787.267 451.236)" fill="#e65538"/>
  <path id="パス_196" data-name="パス 196" d="M995.6-373.681a2.533,2.533,0,0,0,1.724-.661,2.159,2.159,0,0,0,.011-3.214c-6.505-6.08-9.709-12.5-9.523-19.087.3-10.6,9.329-18.312,9.421-18.388a2.165,2.165,0,0,0,.22-3.165c-5.841-6.337-6.736-14.119-2.666-23.128a46.658,46.658,0,0,1,8.359-12.249,2.162,2.162,0,0,0-.122-3.212,2.581,2.581,0,0,0-3.456.111c-.223.221-21.458,21.719-7.234,39.792-3.005,3.049-9.119,10.411-9.412,20.073-.239,7.892,3.443,15.449,10.943,22.457A2.537,2.537,0,0,0,995.6-373.681Z" transform="translate(-833.188 480.387)" fill="#fff362"/>
</svg>
