<svg xmlns="http://www.w3.org/2000/svg" width="67.613" height="87.376" viewBox="0 0 67.613 87.376">
  <g id="グループ_135" data-name="グループ 135" transform="translate(0.506 0.535)">
    <path id="パス_84" data-name="パス 84" d="M-1944.945-264.587a.831.831,0,0,0,0-.287l-3.679-21.085a.833.833,0,0,1,1.354-.783l12.308,10.278,6.007,5.016-6.025-34.533a1.618,1.618,0,0,1,2.632-1.52l23.917,19.97,25.82,21.559a1.618,1.618,0,0,1,0,2.484l-25.82,21.56-23.917,19.97a1.618,1.618,0,0,1-2.632-1.521l6.025-34.533-6.007,5.016-12.308,10.277a.833.833,0,0,1-1.354-.782Z" transform="translate(1948.637 307.883)" fill="#2bbde0" stroke="#359abf" stroke-width="1"/>
    <path id="パス_85" data-name="パス 85" d="M-1944.071-268.725l17.733,14.806a1.619,1.619,0,0,1,0,2.484l-18.309,15.288C-1948.864-244.452-1951.2-258.085-1944.071-268.725Z" transform="translate(1992.365 295.83)" fill="#fbffcc" stroke="#359abf" stroke-width="1"/>
    <path id="パス_86" data-name="パス 86" d="M-1912.573-264.355v4.47l2.655-2.235,2.655-2.235-2.655-2.235-2.655-2.235Z" transform="translate(1948.906 295.861)" fill="#ffc37c"/>
    <path id="パス_87" data-name="パス 87" d="M-1916.408-248.167v4.47l2.655-2.235,2.655-2.235-2.655-2.235-2.655-2.235Z" transform="translate(1953.791 290.479)" fill="#ffc37c"/>
    <path id="パス_88" data-name="パス 88" d="M-1910.253-234.1v4.47l2.655-2.235,2.655-2.235-2.655-2.235-2.655-2.235Z" transform="translate(1944.981 286.548)" fill="#ffc37c"/>
    <path id="パス_89" data-name="パス 89" d="M-1901.066-248.742v4.47l2.655-2.235,2.655-2.235-2.655-2.235-2.655-2.235Z" transform="translate(1929.434 291.055)" fill="#ffc37c"/>
    <path id="パス_90" data-name="パス 90" d="M-1894.417-225.8v4.47l2.655-2.235,2.655-2.235-2.655-2.235-2.655-2.235Z" transform="translate(1918.184 283.994)" fill="#ffc37c"/>
    <path id="パス_91" data-name="パス 91" d="M-1895.506-270.812v4.47l2.655-2.235,2.655-2.235-2.655-2.235-2.655-2.235Z" transform="translate(1920.026 297.848)" fill="#ffc37c"/>
    <ellipse id="楕円形_20" data-name="楕円形 20" cx="2.9" cy="2.9" rx="2.9" ry="2.9" transform="translate(52.623 39.367)" fill="#1ebbe0"/>
  </g>
</svg>
