<svg xmlns="http://www.w3.org/2000/svg" width="240.503" height="195.255" viewBox="0 0 240.503 195.255">
  <g id="グループ_170" data-name="グループ 170" transform="translate(-18.091 -1510.076)">
    <g id="グループ_49" data-name="グループ 49" transform="matrix(0.978, 0.208, -0.208, 0.978, -53.496, -2698.037)">
      <path id="パス_129" data-name="パス 129" d="M1059.24,4193.521l-10.833-2.7,4.83,14.281,7.139-10.053c2.991,1.532,9.809,3.719,23.393,2.61,20.081-1.639,24.589-16.392,24.589-16.392Z" fill="#f8bc18" stroke="#eb7600" stroke-width="1"/>
      <path id="パス_130" data-name="パス 130" d="M1308.574,4185.167c.112.788.268,1.57.457,2.342a25.452,25.452,0,0,0,2.788,6.951c9.832-4.833,12.388-13.194,12.388-13.194Z" transform="translate(-215.849)" fill="#fff9e8" stroke="#eb7600" stroke-width="1"/>
      <path id="パス_131" data-name="パス 131" d="M1320.769,4228.393l2.688.8-.611,2.7A2.647,2.647,0,0,1,1320.769,4228.393Z" transform="translate(-225.844 -39.099)" fill="#daed35"/>
      <path id="パス_132" data-name="パス 132" d="M1297.482,4210.464l2.688.8-.611,2.7A2.648,2.648,0,0,1,1297.482,4210.464Z" transform="translate(-206.524 -24.224)" fill="#daed35"/>
      <path id="パス_133" data-name="パス 133" d="M1324.49,4206.036l2.688.8-.611,2.7A2.648,2.648,0,0,1,1324.49,4206.036Z" transform="translate(-228.932 -20.551)" fill="#daed35"/>
      <path id="パス_134" data-name="パス 134" d="M1292.612,4235.258l2.688.8-.611,2.7A2.648,2.648,0,0,1,1292.612,4235.258Z" transform="translate(-202.484 -44.794)" fill="#daed35"/>
      <path id="パス_135" data-name="パス 135" d="M1174.184,4245.513h17.1l-13.436,8.9Z" transform="translate(-104.351 -53.303)" fill="#efff6e" stroke="#eb7600" stroke-width="1"/>
      <circle id="楕円形_41" data-name="楕円形 41" cx="1.6" cy="1.6" r="1.6" transform="translate(1100.012 4184.576)" fill="#f8bc18"/>
    </g>
    <g id="グループ_50" data-name="グループ 50" transform="translate(-1006.874 -2593.662)">
      <path id="パス_129-2" data-name="パス 129" d="M1062.014,4196.659l-13.607-3.393,6.068,17.938,8.967-12.627c3.757,1.924,12.321,4.671,29.384,3.278,25.223-2.059,30.886-20.59,30.886-20.59Z" fill="#f8bc18" stroke="#eb7600" stroke-width="1"/>
      <path id="パス_130-2" data-name="パス 130" d="M1308.574,4186.165c.141.99.336,1.973.574,2.942a31.962,31.962,0,0,0,3.5,8.731c12.349-6.07,15.56-16.572,15.56-16.572Z" transform="translate(-204.499)" fill="#fff9e8" stroke="#eb7600" stroke-width="1"/>
      <path id="パス_131-2" data-name="パス 131" d="M1320.807,4228.393l3.376,1-.768,3.388A3.326,3.326,0,0,1,1320.807,4228.393Z" transform="translate(-213.969 -37.043)" fill="#daed35"/>
      <path id="パス_132-2" data-name="パス 132" d="M1297.52,4210.464l3.376,1-.768,3.388A3.326,3.326,0,0,1,1297.52,4210.464Z" transform="translate(-195.665 -22.95)" fill="#daed35"/>
      <path id="パス_133-2" data-name="パス 133" d="M1324.528,4206.036l3.376,1-.768,3.388A3.326,3.326,0,0,1,1324.528,4206.036Z" transform="translate(-216.894 -19.47)" fill="#daed35"/>
      <path id="パス_134-2" data-name="パス 134" d="M1292.65,4235.258l3.376,1-.768,3.388A3.326,3.326,0,0,1,1292.65,4235.258Z" transform="translate(-191.837 -42.439)" fill="#daed35"/>
      <path id="パス_135-2" data-name="パス 135" d="M1174.184,4245.513h21.479l-16.877,11.178Z" transform="translate(-98.865 -50.5)" fill="#efff6e" stroke="#eb7600" stroke-width="1"/>
      <circle id="楕円形_41-2" data-name="楕円形 41" cx="2.01" cy="2.01" r="2.01" transform="translate(1113.228 4185.424)" fill="#f8bc18"/>
    </g>
    <g id="グループ_52" data-name="グループ 52" transform="translate(161.349 -2750.154) rotate(14)">
      <path id="パス_129-3" data-name="パス 129" d="M1059.24,4193.521l-10.833-2.7,4.83,14.281,7.139-10.053c2.991,1.532,9.809,3.719,23.393,2.61,20.081-1.639,24.589-16.392,24.589-16.392Z" fill="#f8bc18" stroke="#eb7600" stroke-width="1"/>
      <path id="パス_130-3" data-name="パス 130" d="M1308.574,4185.167c.112.788.268,1.57.457,2.342a25.452,25.452,0,0,0,2.788,6.951c9.832-4.833,12.388-13.194,12.388-13.194Z" transform="translate(-215.849)" fill="#fff9e8" stroke="#eb7600" stroke-width="1"/>
      <path id="パス_131-3" data-name="パス 131" d="M1320.769,4228.393l2.688.8-.611,2.7A2.647,2.647,0,0,1,1320.769,4228.393Z" transform="translate(-225.844 -39.099)" fill="#daed35"/>
      <path id="パス_132-3" data-name="パス 132" d="M1297.482,4210.464l2.688.8-.611,2.7A2.648,2.648,0,0,1,1297.482,4210.464Z" transform="translate(-206.524 -24.224)" fill="#daed35"/>
      <path id="パス_133-3" data-name="パス 133" d="M1324.49,4206.036l2.688.8-.611,2.7A2.648,2.648,0,0,1,1324.49,4206.036Z" transform="translate(-228.932 -20.551)" fill="#daed35"/>
      <path id="パス_134-3" data-name="パス 134" d="M1292.612,4235.258l2.688.8-.611,2.7A2.648,2.648,0,0,1,1292.612,4235.258Z" transform="translate(-202.484 -44.794)" fill="#daed35"/>
      <path id="パス_135-3" data-name="パス 135" d="M1174.184,4245.513h17.1l-13.436,8.9Z" transform="translate(-104.351 -53.303)" fill="#efff6e" stroke="#eb7600" stroke-width="1"/>
      <circle id="楕円形_41-3" data-name="楕円形 41" cx="1.6" cy="1.6" r="1.6" transform="translate(1100.012 4184.576)" fill="#f8bc18"/>
    </g>
    <g id="グループ_53" data-name="グループ 53" transform="translate(-2247.145 -1894.616) rotate(-20)">
      <path id="パス_129-4" data-name="パス 129" d="M1062.014,4196.659l-13.607-3.393,6.068,17.938,8.967-12.627c3.757,1.924,12.321,4.671,29.384,3.278,25.223-2.059,30.886-20.59,30.886-20.59Z" fill="#f8bc18" stroke="#eb7600" stroke-width="1"/>
      <path id="パス_130-4" data-name="パス 130" d="M1308.574,4186.165c.141.99.336,1.973.574,2.942a31.962,31.962,0,0,0,3.5,8.731c12.349-6.07,15.56-16.572,15.56-16.572Z" transform="translate(-204.499)" fill="#fff9e8" stroke="#eb7600" stroke-width="1"/>
      <path id="パス_131-4" data-name="パス 131" d="M1320.807,4228.393l3.376,1-.768,3.388A3.326,3.326,0,0,1,1320.807,4228.393Z" transform="translate(-213.969 -37.043)" fill="#daed35"/>
      <path id="パス_132-4" data-name="パス 132" d="M1297.52,4210.464l3.376,1-.768,3.388A3.326,3.326,0,0,1,1297.52,4210.464Z" transform="translate(-195.665 -22.95)" fill="#daed35"/>
      <path id="パス_133-4" data-name="パス 133" d="M1324.528,4206.036l3.376,1-.768,3.388A3.326,3.326,0,0,1,1324.528,4206.036Z" transform="translate(-216.894 -19.47)" fill="#daed35"/>
      <path id="パス_134-4" data-name="パス 134" d="M1292.65,4235.258l3.376,1-.768,3.388A3.326,3.326,0,0,1,1292.65,4235.258Z" transform="translate(-191.837 -42.439)" fill="#daed35"/>
      <path id="パス_135-4" data-name="パス 135" d="M1174.184,4245.513h21.479l-16.877,11.178Z" transform="translate(-98.865 -50.5)" fill="#efff6e" stroke="#eb7600" stroke-width="1"/>
      <circle id="楕円形_41-4" data-name="楕円形 41" cx="2.01" cy="2.01" r="2.01" transform="translate(1113.228 4185.424)" fill="#f8bc18"/>
    </g>
    <g id="グループ_59" data-name="グループ 59" transform="translate(-2347.573 -2005.597) rotate(-20)">
      <path id="パス_129-5" data-name="パス 129" d="M1058.159,4192.3l-9.752-2.432,4.348,12.856,6.426-9.05c2.692,1.379,8.83,3.348,21.058,2.35,18.076-1.475,22.134-14.756,22.134-14.756Z" fill="#f8bc18" stroke="#eb7600" stroke-width="1"/>
      <path id="パス_130-5" data-name="パス 130" d="M1308.574,4184.777c.1.71.241,1.414.411,2.109a22.9,22.9,0,0,0,2.51,6.257c8.85-4.35,11.151-11.876,11.151-11.876Z" transform="translate(-220.273)" fill="#fff9e8" stroke="#eb7600" stroke-width="1"/>
      <path id="パス_131-5" data-name="パス 131" d="M1320.754,4228.393l2.42.717-.55,2.428A2.383,2.383,0,0,1,1320.754,4228.393Z" transform="translate(-230.473 -39.9)" fill="#daed35"/>
      <path id="パス_132-5" data-name="パス 132" d="M1297.468,4210.464l2.42.717-.55,2.428A2.383,2.383,0,0,1,1297.468,4210.464Z" transform="translate(-210.757 -24.721)" fill="#daed35"/>
      <path id="パス_133-5" data-name="パス 133" d="M1324.476,4206.036l2.42.717-.55,2.428A2.383,2.383,0,0,1,1324.476,4206.036Z" transform="translate(-233.624 -20.972)" fill="#daed35"/>
      <path id="パス_134-5" data-name="パス 134" d="M1292.6,4235.258l2.42.717-.55,2.429A2.384,2.384,0,0,1,1292.6,4235.258Z" transform="translate(-206.634 -45.713)" fill="#daed35"/>
      <path id="パス_135-5" data-name="パス 135" d="M1174.184,4245.513h15.393l-12.095,8.011Z" transform="translate(-106.49 -54.395)" fill="#efff6e" stroke="#eb7600" stroke-width="1"/>
      <circle id="楕円形_41-5" data-name="楕円形 41" cx="1.44" cy="1.44" r="1.44" transform="translate(1094.861 4184.246)" fill="#f8bc18"/>
    </g>
    <g id="グループ_57" data-name="グループ 57" transform="translate(-2402.769 -1955.183) rotate(-22)">
      <path id="パス_129-6" data-name="パス 129" d="M1057.032,4191.022l-8.625-2.15,3.846,11.37,5.684-8c2.381,1.22,7.81,2.961,18.624,2.078,15.987-1.3,19.576-13.05,19.576-13.05Z" fill="#f8bc18" stroke="#eb7600" stroke-width="1"/>
      <path id="パス_130-6" data-name="パス 130" d="M1308.574,4184.371c.089.628.213,1.25.364,1.865a20.267,20.267,0,0,0,2.22,5.534,19.275,19.275,0,0,0,9.862-10.5Z" transform="translate(-224.884)" fill="#fff9e8" stroke="#eb7600" stroke-width="1"/>
      <path id="パス_131-6" data-name="パス 131" d="M1320.739,4228.393l2.14.634-.487,2.147A2.108,2.108,0,0,1,1320.739,4228.393Z" transform="translate(-235.298 -40.736)" fill="#daed35"/>
      <path id="パス_132-6" data-name="パス 132" d="M1297.452,4210.464l2.14.634-.487,2.148A2.108,2.108,0,0,1,1297.452,4210.464Z" transform="translate(-215.169 -25.238)" fill="#daed35"/>
      <path id="パス_133-6" data-name="パス 133" d="M1324.46,4206.036l2.14.634-.487,2.147A2.108,2.108,0,0,1,1324.46,4206.036Z" transform="translate(-238.514 -21.411)" fill="#daed35"/>
      <path id="パス_134-6" data-name="パス 134" d="M1292.582,4235.258l2.14.634-.487,2.147A2.107,2.107,0,0,1,1292.582,4235.258Z" transform="translate(-210.959 -46.669)" fill="#daed35"/>
      <path id="パス_135-6" data-name="パス 135" d="M1174.184,4245.513H1187.8l-10.7,7.085Z" transform="translate(-108.719 -55.534)" fill="#efff6e" stroke="#eb7600" stroke-width="1"/>
      <circle id="楕円形_41-6" data-name="楕円形 41" cx="1.274" cy="1.274" r="1.274" transform="translate(1089.492 4183.901)" fill="#f8bc18"/>
    </g>
    <g id="グループ_58" data-name="グループ 58" transform="translate(-509.135 -2637.518) rotate(7)">
      <path id="パス_129-7" data-name="パス 129" d="M1059.24,4193.521l-10.833-2.7,4.83,14.281,7.139-10.053c2.991,1.532,9.809,3.719,23.393,2.61,20.081-1.639,24.589-16.392,24.589-16.392Z" fill="#f8bc18" stroke="#eb7600" stroke-width="1"/>
      <path id="パス_130-7" data-name="パス 130" d="M1308.574,4185.167c.112.788.268,1.57.457,2.342a25.452,25.452,0,0,0,2.788,6.951c9.832-4.833,12.388-13.194,12.388-13.194Z" transform="translate(-215.849)" fill="#fff9e8" stroke="#eb7600" stroke-width="1"/>
      <path id="パス_131-7" data-name="パス 131" d="M1320.769,4228.393l2.688.8-.611,2.7A2.647,2.647,0,0,1,1320.769,4228.393Z" transform="translate(-225.844 -39.099)" fill="#daed35"/>
      <path id="パス_132-7" data-name="パス 132" d="M1297.482,4210.464l2.688.8-.611,2.7A2.648,2.648,0,0,1,1297.482,4210.464Z" transform="translate(-206.524 -24.224)" fill="#daed35"/>
      <path id="パス_133-7" data-name="パス 133" d="M1324.49,4206.036l2.688.8-.611,2.7A2.648,2.648,0,0,1,1324.49,4206.036Z" transform="translate(-228.932 -20.551)" fill="#daed35"/>
      <path id="パス_134-7" data-name="パス 134" d="M1292.612,4235.258l2.688.8-.611,2.7A2.648,2.648,0,0,1,1292.612,4235.258Z" transform="translate(-202.484 -44.794)" fill="#daed35"/>
      <path id="パス_135-7" data-name="パス 135" d="M1174.184,4245.513h17.1l-13.436,8.9Z" transform="translate(-104.351 -53.303)" fill="#efff6e" stroke="#eb7600" stroke-width="1"/>
      <circle id="楕円形_41-7" data-name="楕円形 41" cx="1.6" cy="1.6" r="1.6" transform="translate(1100.012 4184.576)" fill="#f8bc18"/>
    </g>
    <g id="グループ_55" data-name="グループ 55" transform="translate(-1780.853 -2229.67) rotate(-13)">
      <path id="パス_129-8" data-name="パス 129" d="M1059.24,4193.521l-10.833-2.7,4.83,14.281,7.139-10.053c2.991,1.532,9.809,3.719,23.393,2.61,20.081-1.639,24.589-16.392,24.589-16.392Z" fill="#f8bc18" stroke="#eb7600" stroke-width="1"/>
      <path id="パス_130-8" data-name="パス 130" d="M1308.574,4185.167c.112.788.268,1.57.457,2.342a25.452,25.452,0,0,0,2.788,6.951c9.832-4.833,12.388-13.194,12.388-13.194Z" transform="translate(-215.849)" fill="#fff9e8" stroke="#eb7600" stroke-width="1"/>
      <path id="パス_131-8" data-name="パス 131" d="M1320.769,4228.393l2.688.8-.611,2.7A2.647,2.647,0,0,1,1320.769,4228.393Z" transform="translate(-225.844 -39.099)" fill="#daed35"/>
      <path id="パス_132-8" data-name="パス 132" d="M1297.482,4210.464l2.688.8-.611,2.7A2.648,2.648,0,0,1,1297.482,4210.464Z" transform="translate(-206.524 -24.224)" fill="#daed35"/>
      <path id="パス_133-8" data-name="パス 133" d="M1324.49,4206.036l2.688.8-.611,2.7A2.648,2.648,0,0,1,1324.49,4206.036Z" transform="translate(-228.932 -20.551)" fill="#daed35"/>
      <path id="パス_134-8" data-name="パス 134" d="M1292.612,4235.258l2.688.8-.611,2.7A2.648,2.648,0,0,1,1292.612,4235.258Z" transform="translate(-202.484 -44.794)" fill="#daed35"/>
      <path id="パス_135-8" data-name="パス 135" d="M1174.184,4245.513h17.1l-13.436,8.9Z" transform="translate(-104.351 -53.303)" fill="#efff6e" stroke="#eb7600" stroke-width="1"/>
      <circle id="楕円形_41-8" data-name="楕円形 41" cx="1.6" cy="1.6" r="1.6" transform="translate(1100.012 4184.576)" fill="#f8bc18"/>
    </g>
    <g id="グループ_56" data-name="グループ 56" transform="translate(-825.797 -2645.736)">
      <path id="パス_129-9" data-name="パス 129" d="M1054.776,4188.471l-6.369-1.588,2.84,8.4,4.2-5.911c1.759.9,5.767,2.187,13.754,1.535,11.806-.964,14.457-9.638,14.457-9.638Z" fill="#f8bc18" stroke="#eb7600" stroke-width="1"/>
      <path id="パス_130-9" data-name="パス 130" d="M1308.574,4183.559c.066.463.157.923.269,1.377a14.967,14.967,0,0,0,1.639,4.087,14.237,14.237,0,0,0,7.283-7.757Z" transform="translate(-234.111)" fill="#fff9e8" stroke="#eb7600" stroke-width="1"/>
      <path id="パス_131-9" data-name="パス 131" d="M1320.708,4228.393l1.58.468-.359,1.586A1.557,1.557,0,0,1,1320.708,4228.393Z" transform="translate(-244.952 -42.407)" fill="#daed35"/>
      <path id="パス_132-9" data-name="パス 132" d="M1297.422,4210.464l1.58.468-.359,1.586A1.557,1.557,0,0,1,1297.422,4210.464Z" transform="translate(-223.997 -26.274)" fill="#daed35"/>
      <path id="パス_133-9" data-name="パス 133" d="M1324.43,4206.036l1.58.468-.359,1.586A1.557,1.557,0,0,1,1324.43,4206.036Z" transform="translate(-248.3 -22.289)" fill="#daed35"/>
      <path id="パス_134-9" data-name="パス 134" d="M1292.552,4235.258l1.58.468-.359,1.586A1.557,1.557,0,0,1,1292.552,4235.258Z" transform="translate(-219.615 -48.584)" fill="#daed35"/>
      <path id="パス_135-9" data-name="パス 135" d="M1174.184,4245.513h10.054l-7.9,5.232Z" transform="translate(-113.18 -57.813)" fill="#efff6e" stroke="#eb7600" stroke-width="1"/>
      <circle id="楕円形_41-9" data-name="楕円形 41" cx="0.941" cy="0.941" r="0.941" transform="translate(1078.748 4183.212)" fill="#f8bc18"/>
    </g>
  </g>
</svg>
