<svg id="グループ_68" data-name="グループ 68" xmlns="http://www.w3.org/2000/svg" width="119.139" height="73.556" viewBox="0 0 119.139 73.556">
  <path id="パス_141" data-name="パス 141" d="M-3740.762-1119.788l12.137.548,10.584.478a51.184,51.184,0,0,1,50.677-44.032h41.04a51.175,51.175,0,0,1-51.175,51.175h-35.512l-6.437,10.071-6.543,10.237a4.492,4.492,0,0,1-7.772-.351l-5.594-10.785-5.594-10.785A4.492,4.492,0,0,1-3740.762-1119.788Z" transform="translate(3745.464 1162.794)" fill="#e65538"/>
  <path id="パス_142" data-name="パス 142" d="M-3721.991-1152.182a3.294,3.294,0,0,1,4.579.853,3.294,3.294,0,0,1-.853,4.579,3.294,3.294,0,0,1-4.579-.853A3.3,3.3,0,0,1-3721.991-1152.182Z" transform="translate(3824.261 1158.091)" fill="#fff"/>
  <path id="パス_143" data-name="パス 143" d="M-3702.035-1128.912a.982.982,0,0,0,.412-.63.987.987,0,0,0-.787-1.155c-3.66-.694-6.306-2.264-7.862-4.667-2.506-3.866-1.4-8.694-1.386-8.741a.99.99,0,0,0-.705-1.185c-3.5-.938-5.714-3.523-6.574-7.681a20.28,20.28,0,0,1-.229-6.3.989.989,0,0,0-.831-1.124.988.988,0,0,0-1.124.829c-.02.13-1.8,12.685,7.376,15.915a14.038,14.038,0,0,0,1.8,9.344c1.861,2.883,4.944,4.75,9.164,5.55A.981.981,0,0,0-3702.035-1128.912Z" transform="translate(3807.891 1161.674)" fill="#fff"/>
  <path id="パス_144" data-name="パス 144" d="M-3677.369-1072.781l6.873,4.189c1.956,1.192,4.978-1.014,5.439-3.971l1.622-10.391,1.621-10.391c.462-2.957-1.983-4.448-4.4-2.682l-8.494,6.2-8.494,6.2c-2.418,1.765-2.995,5.461-1.039,6.654Z" transform="translate(3748.994 1131.856)" fill="#fbffdb"/>
  <path id="パス_145" data-name="パス 145" d="M-3668.883-1141.338a6.273,6.273,0,0,1-8.86-.443,6.273,6.273,0,0,1,.442-8.861Z" transform="translate(3752.903 1157.098)" fill="#fff"/>
  <path id="パス_146" data-name="パス 146" d="M-3688.613-1110.977a6.273,6.273,0,0,1-8.861-.443,6.273,6.273,0,0,1,.443-8.861Z" transform="translate(3783.115 1142.868)" fill="#fff"/>
  <path id="パス_147" data-name="パス 147" d="M-3662.535-1116.961a6.274,6.274,0,0,1-8.861-.443,6.274,6.274,0,0,1,.442-8.861Z" transform="translate(3743.183 1145.673)" fill="#fff"/>
  <path id="パス_148" data-name="パス 148" d="M-3630.764-1130.522a6.274,6.274,0,0,1-8.861-.443,6.274,6.274,0,0,1,.443-8.861Z" transform="translate(3694.531 1152.029)" fill="#fff"/>
  <path id="パス_149" data-name="パス 149" d="M-3648.611-1097.764a6.274,6.274,0,0,1-8.861-.443,6.274,6.274,0,0,1,.443-8.861Z" transform="translate(3721.86 1136.675)" fill="#fff"/>
  <path id="パス_150" data-name="パス 150" d="M-3622.862-1097.764a6.273,6.273,0,0,1-8.86-.443,6.274,6.274,0,0,1,.442-8.861Z" transform="translate(3682.431 1136.675)" fill="#fff"/>
  <path id="パス_151" data-name="パス 151" d="M-3594.614-1094.549a6.273,6.273,0,0,1-8.861-.443,6.273,6.273,0,0,1,.443-8.861Z" transform="translate(3639.174 1135.168)" fill="#fff"/>
</svg>
