<svg xmlns="http://www.w3.org/2000/svg" width="88.296" height="102.491" viewBox="0 0 88.296 102.491">
  <g id="グループ_125" data-name="グループ 125" transform="matrix(0.921, -0.391, 0.391, 0.921, -128.615, 858.331)">
    <path id="パス_186" data-name="パス 186" d="M504.06-696.784h0a21.342,21.342,0,0,0-17.875,9.664V-718.5c-37.49,7.309-41.479,43.074-41.479,43.074s3.988,35.766,41.479,43.074v-31.376a21.342,21.342,0,0,0,17.875,9.664h0A47.768,47.768,0,0,1,504.06-696.784Z" fill="#28c78a"/>
    <path id="パス_187" data-name="パス 187" d="M470.033-579.518a13.136,13.136,0,0,0,.99-2.434,16.6,16.6,0,0,0,.2-8.28,31.235,31.235,0,0,0-3.774-8.529A44.16,44.16,0,0,1,463.37-607a13.551,13.551,0,0,1-.648-4.788,20.971,20.971,0,0,1,.763-4.669c.83-3.063,2.141-5.97,2.985-9.029a23.073,23.073,0,0,0,.577-9.171,27.251,27.251,0,0,0-5.466-13.524c-14.838,13.092-16.875,31.35-16.875,31.35S447.472-592.037,470.033-579.518Z" transform="translate(0 -58.594)" fill="#faff84"/>
    <circle id="楕円形_83" data-name="楕円形 83" cx="4.001" cy="4.001" r="4.001" transform="translate(450.472 -680.444)" fill="#28c78a"/>
    <path id="パス_188" data-name="パス 188" d="M606.335-642.083a6.1,6.1,0,0,0,6.1,6.1v-12.19A6.1,6.1,0,0,0,606.335-642.083Z" transform="translate(-134.681 -58.594)" fill="#fbfe84"/>
    <path id="パス_189" data-name="パス 189" d="M624.614-520.73a6.1,6.1,0,0,0,6.1,6.1v-12.19A6.1,6.1,0,0,0,624.614-520.73Z" transform="translate(-149.912 -159.714)" fill="#fbfe84"/>
    <path id="パス_190" data-name="パス 190" d="M624.614-311.977a6.1,6.1,0,0,0,6.1,6.1v-12.19A6.1,6.1,0,0,0,624.614-311.977Z" transform="translate(-149.912 -333.662)" fill="#fbfe84"/>
    <path id="パス_191" data-name="パス 191" d="M580.253-412.745a6.1,6.1,0,0,0,6.1,6.1v-12.19A6.1,6.1,0,0,0,580.253-412.745Z" transform="translate(-112.948 -249.695)" fill="#fbfe84"/>
  </g>
</svg>
