<svg xmlns="http://www.w3.org/2000/svg" width="83.026" height="56.083" viewBox="0 0 83.026 56.083">
  <g id="グループ_53" data-name="グループ 53" transform="translate(-2414.298 -3543.864) rotate(-20)">
    <path id="パス_129" data-name="パス 129" d="M1062.014,4196.659l-13.607-3.393,6.068,17.938,8.967-12.627c3.757,1.924,12.321,4.671,29.384,3.278,25.223-2.059,30.886-20.59,30.886-20.59Z" fill="#f8bc18" stroke="#eb7600" stroke-width="1"/>
    <path id="パス_130" data-name="パス 130" d="M1308.574,4186.165c.141.99.336,1.973.574,2.942a31.962,31.962,0,0,0,3.5,8.731c12.349-6.07,15.56-16.572,15.56-16.572Z" transform="translate(-204.499)" fill="#fff9e8" stroke="#eb7600" stroke-width="1"/>
    <path id="パス_131" data-name="パス 131" d="M1320.807,4228.393l3.376,1-.768,3.388A3.326,3.326,0,0,1,1320.807,4228.393Z" transform="translate(-213.969 -37.043)" fill="#daed35"/>
    <path id="パス_132" data-name="パス 132" d="M1297.52,4210.464l3.376,1-.768,3.388A3.326,3.326,0,0,1,1297.52,4210.464Z" transform="translate(-195.665 -22.95)" fill="#daed35"/>
    <path id="パス_133" data-name="パス 133" d="M1324.528,4206.036l3.376,1-.768,3.388A3.326,3.326,0,0,1,1324.528,4206.036Z" transform="translate(-216.894 -19.47)" fill="#daed35"/>
    <path id="パス_134" data-name="パス 134" d="M1292.65,4235.258l3.376,1-.768,3.388A3.326,3.326,0,0,1,1292.65,4235.258Z" transform="translate(-191.837 -42.439)" fill="#daed35"/>
    <path id="パス_135" data-name="パス 135" d="M1174.184,4245.513h21.479l-16.877,11.178Z" transform="translate(-98.865 -50.5)" fill="#efff6e" stroke="#eb7600" stroke-width="1"/>
    <circle id="楕円形_41" data-name="楕円形 41" cx="2.01" cy="2.01" r="2.01" transform="translate(1113.228 4185.424)" fill="#f8bc18"/>
  </g>
</svg>
