<svg xmlns="http://www.w3.org/2000/svg" width="244.184" height="140.437" viewBox="0 0 244.184 140.437">
  <g id="グループ_172" data-name="グループ 172" transform="translate(-44 -855.563)">
    <g id="グループ_68" data-name="グループ 68" transform="translate(169.046 855.563)">
      <path id="パス_141" data-name="パス 141" d="M-3740.762-1119.788l12.137.548,10.584.478a51.184,51.184,0,0,1,50.677-44.032h41.04a51.175,51.175,0,0,1-51.175,51.175h-35.512l-6.437,10.071-6.543,10.237a4.492,4.492,0,0,1-7.772-.351l-5.594-10.785-5.594-10.785A4.492,4.492,0,0,1-3740.762-1119.788Z" transform="translate(3745.464 1162.794)" fill="#e65538"/>
      <path id="パス_142" data-name="パス 142" d="M-3721.991-1152.182a3.294,3.294,0,0,1,4.579.853,3.294,3.294,0,0,1-.853,4.579,3.294,3.294,0,0,1-4.579-.853A3.3,3.3,0,0,1-3721.991-1152.182Z" transform="translate(3824.261 1158.091)" fill="#fff"/>
      <path id="パス_143" data-name="パス 143" d="M-3702.035-1128.912a.982.982,0,0,0,.412-.63.987.987,0,0,0-.787-1.155c-3.66-.694-6.306-2.264-7.862-4.667-2.506-3.866-1.4-8.694-1.386-8.741a.99.99,0,0,0-.705-1.185c-3.5-.938-5.714-3.523-6.574-7.681a20.28,20.28,0,0,1-.229-6.3.989.989,0,0,0-.831-1.124.988.988,0,0,0-1.124.829c-.02.13-1.8,12.685,7.376,15.915a14.038,14.038,0,0,0,1.8,9.344c1.861,2.883,4.944,4.75,9.164,5.55A.981.981,0,0,0-3702.035-1128.912Z" transform="translate(3807.891 1161.674)" fill="#fff"/>
      <path id="パス_144" data-name="パス 144" d="M-3677.369-1072.781l6.873,4.189c1.956,1.192,4.978-1.014,5.439-3.971l1.622-10.391,1.621-10.391c.462-2.957-1.983-4.448-4.4-2.682l-8.494,6.2-8.494,6.2c-2.418,1.765-2.995,5.461-1.039,6.654Z" transform="translate(3748.994 1131.856)" fill="#fbffdb"/>
      <path id="パス_145" data-name="パス 145" d="M-3668.883-1141.338a6.273,6.273,0,0,1-8.86-.443,6.273,6.273,0,0,1,.442-8.861Z" transform="translate(3752.903 1157.098)" fill="#fff"/>
      <path id="パス_146" data-name="パス 146" d="M-3688.613-1110.977a6.273,6.273,0,0,1-8.861-.443,6.273,6.273,0,0,1,.443-8.861Z" transform="translate(3783.115 1142.868)" fill="#fff"/>
      <path id="パス_147" data-name="パス 147" d="M-3662.535-1116.961a6.274,6.274,0,0,1-8.861-.443,6.274,6.274,0,0,1,.442-8.861Z" transform="translate(3743.183 1145.673)" fill="#fff"/>
      <path id="パス_148" data-name="パス 148" d="M-3630.764-1130.522a6.274,6.274,0,0,1-8.861-.443,6.274,6.274,0,0,1,.443-8.861Z" transform="translate(3694.531 1152.029)" fill="#fff"/>
      <path id="パス_149" data-name="パス 149" d="M-3648.611-1097.764a6.274,6.274,0,0,1-8.861-.443,6.274,6.274,0,0,1,.443-8.861Z" transform="translate(3721.86 1136.675)" fill="#fff"/>
      <path id="パス_150" data-name="パス 150" d="M-3622.862-1097.764a6.273,6.273,0,0,1-8.86-.443,6.274,6.274,0,0,1,.442-8.861Z" transform="translate(3682.431 1136.675)" fill="#fff"/>
      <path id="パス_151" data-name="パス 151" d="M-3594.614-1094.549a6.273,6.273,0,0,1-8.861-.443,6.273,6.273,0,0,1,.443-8.861Z" transform="translate(3639.174 1135.168)" fill="#fff"/>
    </g>
    <g id="グループ_73" data-name="グループ 73" transform="translate(139.241 946.412)">
      <path id="パス_141-2" data-name="パス 141" d="M-3742.295-1133.8l8.182.37,7.136.322a34.505,34.505,0,0,1,34.164-29.684h27.667a34.5,34.5,0,0,1-34.5,34.5h-23.94l-4.34,6.789-4.411,6.9a3.028,3.028,0,0,1-5.24-.236l-3.771-7.271-3.771-7.271A3.028,3.028,0,0,1-3742.295-1133.8Z" transform="translate(3745.464 1162.794)" fill="#e65538"/>
      <path id="パス_142-2" data-name="パス 142" d="M-3722.457-1152.37a2.221,2.221,0,0,1,3.087.575,2.22,2.22,0,0,1-.576,3.087,2.221,2.221,0,0,1-3.087-.575A2.221,2.221,0,0,1-3722.457-1152.37Z" transform="translate(3791.403 1156.354)" fill="#fff"/>
      <path id="パス_143-2" data-name="パス 143" d="M-3708.3-1139.174a.663.663,0,0,0,.278-.425.666.666,0,0,0-.53-.778,7.668,7.668,0,0,1-5.3-3.146,8.466,8.466,0,0,1-.934-5.893.667.667,0,0,0-.475-.8c-2.361-.632-3.852-2.375-4.432-5.178a13.679,13.679,0,0,1-.155-4.247.667.667,0,0,0-.56-.758.666.666,0,0,0-.757.559c-.013.088-1.215,8.552,4.972,10.729a9.465,9.465,0,0,0,1.215,6.3,8.931,8.931,0,0,0,6.178,3.742A.66.66,0,0,0-3708.3-1139.174Z" transform="translate(3779.667 1161.261)" fill="#fff"/>
      <path id="パス_144-2" data-name="パス 144" d="M-3679.992-1080.6l4.633,2.824c1.318.8,3.356-.684,3.667-2.677l1.093-7.005,1.093-7.005c.312-1.993-1.337-3-2.967-1.808l-5.726,4.181-5.726,4.181c-1.63,1.19-2.019,3.682-.7,4.485Z" transform="translate(3728.278 1120.428)" fill="#fbffdb"/>
      <path id="パス_145-2" data-name="パス 145" d="M-3672.3-1144.369a4.229,4.229,0,0,1-5.974-.3,4.229,4.229,0,0,1,.3-5.973Z" transform="translate(3728.941 1154.994)" fill="#fff"/>
      <path id="パス_146-2" data-name="パス 146" d="M-3692.028-1114.009a4.229,4.229,0,0,1-5.974-.3,4.228,4.228,0,0,1,.3-5.973Z" transform="translate(3755.738 1135.508)" fill="#fff"/>
      <path id="パス_147-2" data-name="パス 147" d="M-3665.951-1119.993a4.23,4.23,0,0,1-5.974-.3,4.23,4.23,0,0,1,.3-5.974Z" transform="translate(3720.32 1139.349)" fill="#fff"/>
      <path id="パス_148-2" data-name="パス 148" d="M-3634.18-1133.554a4.23,4.23,0,0,1-5.974-.3,4.229,4.229,0,0,1,.3-5.974Z" transform="translate(3677.169 1148.053)" fill="#fff"/>
      <path id="パス_149-2" data-name="パス 149" d="M-3652.026-1100.8a4.23,4.23,0,0,1-5.974-.3,4.229,4.229,0,0,1,.3-5.974Z" transform="translate(3701.407 1127.028)" fill="#fff"/>
      <path id="パス_150-2" data-name="パス 150" d="M-3626.278-1100.8a4.229,4.229,0,0,1-5.973-.3,4.229,4.229,0,0,1,.3-5.974Z" transform="translate(3666.436 1127.028)" fill="#fff"/>
      <path id="パス_151-2" data-name="パス 151" d="M-3598.03-1097.581a4.229,4.229,0,0,1-5.973-.3,4.229,4.229,0,0,1,.3-5.973Z" transform="translate(3628.07 1124.964)" fill="#fff"/>
    </g>
    <g id="グループ_74" data-name="グループ 74" transform="translate(44 914.541)">
      <path id="パス_141-3" data-name="パス 141" d="M-3741.706-1128.414l9.7.438,8.461.382a40.916,40.916,0,0,1,40.512-35.2h32.808a40.91,40.91,0,0,1-40.91,40.91h-28.389l-5.146,8.051-5.231,8.183a3.591,3.591,0,0,1-6.213-.28l-4.472-8.622-4.472-8.622A3.59,3.59,0,0,1-3741.706-1128.414Z" transform="translate(3745.463 1162.794)" fill="#e65538"/>
      <path id="パス_142-3" data-name="パス 142" d="M-3722.278-1152.3a2.633,2.633,0,0,1,3.661.682,2.633,2.633,0,0,1-.682,3.661,2.634,2.634,0,0,1-3.661-.682A2.634,2.634,0,0,1-3722.278-1152.3Z" transform="translate(3804.034 1157.021)" fill="#fff"/>
      <path id="パス_143-3" data-name="パス 143" d="M-3705.894-1135.229a.788.788,0,0,0,.33-.5.789.789,0,0,0-.629-.923c-2.926-.555-5.041-1.809-6.285-3.731a10.041,10.041,0,0,1-1.108-6.988.791.791,0,0,0-.563-.947c-2.8-.75-4.568-2.816-5.255-6.14a16.19,16.19,0,0,1-.183-5.036.791.791,0,0,0-.664-.9.791.791,0,0,0-.9.663c-.015.1-1.441,10.14,5.9,12.722a11.226,11.226,0,0,0,1.441,7.47c1.487,2.3,3.952,3.8,7.326,4.437A.783.783,0,0,0-3705.894-1135.229Z" transform="translate(3790.516 1161.42)" fill="#fff"/>
      <path id="パス_144-3" data-name="パス 144" d="M-3678.983-1077.6l5.494,3.349c1.563.953,3.979-.811,4.348-3.175l1.3-8.307,1.3-8.307c.37-2.364-1.585-3.555-3.518-2.144l-6.79,4.958-6.791,4.958c-1.933,1.411-2.394,4.366-.83,5.319Z" transform="translate(3736.241 1124.821)" fill="#fbffdb"/>
      <path id="パス_145-3" data-name="パス 145" d="M-3670.986-1143.2a5.014,5.014,0,0,1-7.083-.354,5.015,5.015,0,0,1,.353-7.083Z" transform="translate(3738.152 1155.803)" fill="#fff"/>
      <path id="パス_146-3" data-name="パス 146" d="M-3690.715-1112.844a5.015,5.015,0,0,1-7.083-.354,5.015,5.015,0,0,1,.354-7.083Z" transform="translate(3766.261 1138.337)" fill="#fff"/>
      <path id="パス_147-3" data-name="パス 147" d="M-3664.637-1118.828a5.015,5.015,0,0,1-7.083-.354,5.016,5.016,0,0,1,.354-7.084Z" transform="translate(3729.108 1141.78)" fill="#fff"/>
      <path id="パス_148-3" data-name="パス 148" d="M-3632.866-1132.389a5.015,5.015,0,0,1-7.083-.354,5.015,5.015,0,0,1,.354-7.084Z" transform="translate(3683.843 1149.581)" fill="#fff"/>
      <path id="パス_149-3" data-name="パス 149" d="M-3650.713-1099.63a5.015,5.015,0,0,1-7.083-.354,5.015,5.015,0,0,1,.354-7.083Z" transform="translate(3709.27 1130.736)" fill="#fff"/>
      <path id="パス_150-3" data-name="パス 150" d="M-3624.964-1099.63a5.016,5.016,0,0,1-7.083-.354,5.015,5.015,0,0,1,.354-7.083Z" transform="translate(3672.585 1130.736)" fill="#fff"/>
      <path id="パス_151-3" data-name="パス 151" d="M-3596.716-1096.416a5.015,5.015,0,0,1-7.083-.354,5.015,5.015,0,0,1,.354-7.083Z" transform="translate(3632.339 1128.887)" fill="#fff"/>
    </g>
    <g id="グループ_75" data-name="グループ 75" transform="translate(105.62 865.222)">
      <path id="パス_141-4" data-name="パス 141" d="M-3743.5-1144.855l5.063.229,4.415.2a21.35,21.35,0,0,1,21.138-18.367h17.119a21.346,21.346,0,0,1-21.346,21.346h-14.813l-2.685,4.2-2.729,4.27a1.874,1.874,0,0,1-3.242-.146l-2.333-4.5-2.333-4.5A1.873,1.873,0,0,1-3743.5-1144.855Z" transform="translate(3745.464 1162.794)" fill="#e65538"/>
      <path id="パス_142-4" data-name="パス 142" d="M-3722.825-1152.519a1.374,1.374,0,0,1,1.91.356,1.374,1.374,0,0,1-.356,1.91,1.374,1.374,0,0,1-1.91-.356A1.374,1.374,0,0,1-3722.825-1152.519Z" transform="translate(3765.484 1154.983)" fill="#fff"/>
      <path id="パス_143-4" data-name="パス 143" d="M-3713.248-1147.269a.411.411,0,0,0,.172-.263.412.412,0,0,0-.328-.482,4.745,4.745,0,0,1-3.28-1.947,5.237,5.237,0,0,1-.578-3.646.413.413,0,0,0-.294-.494,3.777,3.777,0,0,1-2.742-3.2,8.462,8.462,0,0,1-.1-2.627.413.413,0,0,0-.346-.469.412.412,0,0,0-.469.346c-.008.054-.752,5.291,3.076,6.638a5.857,5.857,0,0,0,.752,3.9,5.526,5.526,0,0,0,3.823,2.315A.408.408,0,0,0-3713.248-1147.269Z" transform="translate(3757.403 1160.934)" fill="#fff"/>
      <path id="パス_144-4" data-name="パス 144" d="M-3682.06-1086.772l2.867,1.747c.816.5,2.077-.423,2.269-1.656l.676-4.334.676-4.335c.193-1.233-.827-1.855-1.836-1.119l-3.543,2.587-3.543,2.587c-1.009.736-1.249,2.278-.434,2.775Z" transform="translate(3711.937 1111.414)" fill="#fbffdb"/>
      <path id="パス_145-4" data-name="パス 145" d="M-3674.993-1146.76a2.617,2.617,0,0,1-3.7-.185,2.617,2.617,0,0,1,.185-3.7Z" transform="translate(3710.04 1153.335)" fill="#fff"/>
      <path id="パス_146-4" data-name="パス 146" d="M-3694.723-1116.4a2.617,2.617,0,0,1-3.7-.185,2.616,2.616,0,0,1,.185-3.7Z" transform="translate(3734.142 1129.703)" fill="#fff"/>
      <path id="パス_147-4" data-name="パス 147" d="M-3668.645-1122.384a2.617,2.617,0,0,1-3.7-.185,2.617,2.617,0,0,1,.185-3.7Z" transform="translate(3702.285 1134.36)" fill="#fff"/>
      <path id="パス_148-4" data-name="パス 148" d="M-3636.874-1135.945a2.617,2.617,0,0,1-3.7-.185,2.617,2.617,0,0,1,.185-3.7Z" transform="translate(3663.473 1144.916)" fill="#fff"/>
      <path id="パス_149-4" data-name="パス 149" d="M-3654.72-1103.187a2.617,2.617,0,0,1-3.7-.185,2.617,2.617,0,0,1,.185-3.7Z" transform="translate(3685.274 1119.418)" fill="#fff"/>
      <path id="パス_150-4" data-name="パス 150" d="M-3628.972-1103.187a2.617,2.617,0,0,1-3.7-.185,2.617,2.617,0,0,1,.185-3.7Z" transform="translate(3653.819 1119.418)" fill="#fff"/>
      <path id="パス_151-4" data-name="パス 151" d="M-3600.724-1099.972a2.616,2.616,0,0,1-3.7-.185,2.616,2.616,0,0,1,.185-3.7Z" transform="translate(3619.311 1116.915)" fill="#fff"/>
    </g>
  </g>
</svg>
