<svg xmlns="http://www.w3.org/2000/svg" width="134.223" height="173.734" viewBox="0 0 134.223 173.734">
  <g id="グループ_134" data-name="グループ 134" transform="translate(0.509 0.561)">
    <path id="パス_84" data-name="パス 84" d="M-1941.253-221.29a1.661,1.661,0,0,0,0-.573l-7.358-42.171a1.666,1.666,0,0,1,2.708-1.566l24.617,20.555,12.013,10.031-12.05-69.067a3.237,3.237,0,0,1,5.263-3.04l47.834,39.941,51.64,43.118a3.237,3.237,0,0,1,0,4.969l-51.64,43.119-47.834,39.941a3.237,3.237,0,0,1-5.263-3.042l12.05-69.065-12.013,10.031-24.617,20.554a1.665,1.665,0,0,1-2.708-1.564Z" transform="translate(1948.637 307.883)" fill="#ffc37c" stroke="#ff8e52" stroke-width="1"/>
    <path id="パス_85" data-name="パス 85" d="M-1939.5-268.725l35.465,29.612a3.237,3.237,0,0,1,0,4.969l-36.618,30.575C-1949.091-220.179-1953.754-247.446-1939.5-268.725Z" transform="translate(2036.092 322.935)" fill="#fbffcc" stroke="#ff8e52" stroke-width="1"/>
    <path id="パス_86" data-name="パス 86" d="M-1912.573-259.885v8.94l5.31-4.47,5.31-4.47-5.31-4.47-5.31-4.47Z" transform="translate(1985.239 322.897)" fill="#e0fff2"/>
    <path id="パス_87" data-name="パス 87" d="M-1916.408-243.7v8.94l5.31-4.47,5.31-4.47-5.31-4.47-5.31-4.47Z" transform="translate(1991.174 328.322)" fill="#e0fff2"/>
    <path id="パス_88" data-name="パス 88" d="M-1910.253-229.632v8.94l5.31-4.47,5.31-4.47-5.31-4.47-5.31-4.47Z" transform="translate(1979.709 334.525)" fill="#e0fff2"/>
    <path id="パス_89" data-name="パス 89" d="M-1901.066-244.273v8.94l5.31-4.47,5.31-4.47-5.31-4.47-5.31-4.47Z" transform="translate(1957.803 328.898)" fill="#e0fff2"/>
    <path id="パス_90" data-name="パス 90" d="M-1894.417-221.334v8.94l5.31-4.47,5.31-4.47-5.31-4.47-5.31-4.47Z" transform="translate(1941.95 337.715)" fill="#e0fff2"/>
    <path id="パス_91" data-name="パス 91" d="M-1895.506-266.343v8.94l5.31-4.47,5.31-4.47-5.31-4.47-5.31-4.47Z" transform="translate(1944.546 320.414)" fill="#e0fff2"/>
    <ellipse id="楕円形_20" data-name="楕円形 20" cx="5.8" cy="5.8" rx="5.8" ry="5.8" transform="translate(105.246 78.735)" fill="#ff8e52"/>
  </g>
</svg>
