<svg xmlns="http://www.w3.org/2000/svg" width="187.866" height="223.161" viewBox="0 0 187.866 223.161">
  <g id="グループ_124" data-name="グループ 124" transform="translate(-598.688 523.067) rotate(20)">
    <path id="パス_186" data-name="パス 186" d="M575.522-670.642h0a47.037,47.037,0,0,0-39.4,21.3V-718.5c-82.629,16.108-91.419,94.935-91.419,94.935s8.791,78.827,91.419,94.935v-69.153a47.037,47.037,0,0,0,39.4,21.3h0A105.279,105.279,0,0,1,575.522-670.642Z" fill="#ff662e"/>
    <path id="パス_187" data-name="パス 187" d="M500.527-496.851a28.946,28.946,0,0,0,2.182-5.364,36.585,36.585,0,0,0,.45-18.249c-1.545-6.751-4.88-12.851-8.318-18.8-3.381-5.848-6.891-11.7-9-18.153a29.863,29.863,0,0,1-1.427-10.552,46.224,46.224,0,0,1,1.681-10.291c1.83-6.751,4.719-13.158,6.579-19.9a50.853,50.853,0,0,0,1.271-20.214c-1.354-10.509-5.25-21.425-12.047-29.807-32.7,28.854-37.193,69.1-37.193,69.1S450.8-524.445,500.527-496.851Z" transform="translate(0 -44.478)" fill="#fff474"/>
    <circle id="楕円形_83" data-name="楕円形 83" cx="8.818" cy="8.818" r="8.818" transform="translate(457.413 -634.629)" fill="#ff662e"/>
    <path id="パス_188" data-name="パス 188" d="M606.335-634.744a13.434,13.434,0,0,0,13.434,13.434v-26.868A13.434,13.434,0,0,0,606.335-634.744Z" transform="translate(-102.236 -44.478)" fill="#ffce4a"/>
    <path id="パス_189" data-name="パス 189" d="M624.614-513.391a13.434,13.434,0,0,0,13.434,13.434v-26.868A13.434,13.434,0,0,0,624.614-513.391Z" transform="translate(-113.798 -121.238)" fill="#ffce4a"/>
    <path id="パス_190" data-name="パス 190" d="M624.614-304.638A13.434,13.434,0,0,0,638.048-291.2v-26.868A13.434,13.434,0,0,0,624.614-304.638Z" transform="translate(-113.798 -253.281)" fill="#ffce4a"/>
    <path id="パス_191" data-name="パス 191" d="M580.253-405.406a13.434,13.434,0,0,0,13.434,13.434V-418.84A13.434,13.434,0,0,0,580.253-405.406Z" transform="translate(-85.738 -189.542)" fill="#ffce4a"/>
  </g>
</svg>
