<svg id="グループ_110" data-name="グループ 110" xmlns="http://www.w3.org/2000/svg" width="185.277" height="136.17" viewBox="0 0 185.277 136.17">
  <path id="パス_160" data-name="パス 160" d="M264.22,4330.336l31.245,15.351-.614-6.117,5.307-.533-3.9-6.805,6.549-4.182-36.5-6.666Z" transform="translate(-119.078 -4209.518)" fill="#fff541"/>
  <path id="パス_161" data-name="パス 161" d="M258.152,4231.18l31.245,15.351-.614-6.117,5.307-.533-3.9-6.805,6.549-4.182-36.5-6.666Z" transform="translate(-111.463 -4135.656)" fill="#fff541"/>
  <path id="パス_162" data-name="パス 162" d="M384.318,4149.823s19.437,31.963,44.644,32.59,42.565-2.4,42.565-2.4l.675-15.829s-42.084,7.564-54.989-9.892c-5.347-7.232.89-9.8.89-9.8s28.91,11.917,54.218,9.957l2.651-13.724s-37.488-2.14-61.8-26.73l-14.546,1.46-6.827,6.048-7.477,28.323" transform="translate(-321.881 -4055.031)" fill="#148493"/>
  <path id="パス_163" data-name="パス 163" d="M649.892,3906.359c6.95.366,30.29,23.5,30.29,23.5l15.685,13.54,22.016,15.9h0a49.1,49.1,0,0,1-21.846,31.412l-7,4.419-20.346-20.439-15.151-14.135s-25.51-20.712-26.623-27.582.94-7.5,2.406-7.646,3.877,4.9,3.877,4.9-.671-2.471,1.025-2.43,2.57,3.974,2.57,3.974a53.346,53.346,0,0,0,27.247,21.173l3.574-.359-1.784-.875,5.869-4.24,2.015-3.538.056.088-.023-2.9a53.347,53.347,0,0,0-23.985-24.806s-4-.445-4.227-2.127,2.306-1.281,2.306-1.281-5.278-1.853-5.289-3.326S642.942,3905.993,649.892,3906.359Z" transform="translate(-626.596 -3900.333)" fill="#30aaba"/>
  <path id="パス_164" data-name="パス 164" d="M946.294,3994.344q-.529.513-1.064,1.021c-2.409-2.785-4.1-5.25-4.369-6.908-1.113-6.87.94-7.5,2.406-7.646s3.877,4.9,3.877,4.9-.671-2.471,1.026-2.43,2.57,3.973,2.57,3.973.33.574,1,1.543C949.96,3990.678,948.154,3992.538,946.294,3994.344Z" transform="translate(-940.542 -3955.821)" fill="#fffbe3"/>
  <path id="パス_165" data-name="パス 165" d="M873.04,3917.507c-1.431-.817-2.3-1.2-2.3-1.2s-4-.445-4.227-2.127,2.306-1.281,2.306-1.281-5.278-1.853-5.289-3.327.393-3.582,7.343-3.216c1.716.09,4.433,1.57,7.55,3.746A74.219,74.219,0,0,1,873.04,3917.507Z" transform="translate(-847.58 -3900.333)" fill="#fffbe3"/>
  <path id="パス_166" data-name="パス 166" d="M758.436,4002.352s1.494,16.3-17.333,14.274-13.747-19.354-13.747-19.354l12.551-14.045,14.045,3.586Z" transform="translate(-692.72 -3957.623)" fill="#fffbe3"/>
  <ellipse id="楕円形_58" data-name="楕円形 58" cx="1.753" cy="1.753" rx="1.753" ry="1.753" transform="translate(52.661 48.708)" fill="#ed5821"/>
  <ellipse id="楕円形_59" data-name="楕円形 59" cx="1.753" cy="1.753" rx="1.753" ry="1.753" transform="translate(39.464 45.201)" fill="#ed5821"/>
  <path id="パス_167" data-name="パス 167" d="M725.978,3986.286a19.988,19.988,0,0,1-3.748-3.522l-5.354-9.376-7.339,2.256s-8.449,3.187-10.909-.886,4.024-19.455,20.584-19.457c9.24,0,15.138,4.652,18.312,12.378,2.218,5.4-.413,12.136-2.811,16.584A5.975,5.975,0,0,1,725.978,3986.286Z" transform="translate(-665.319 -3936.82)" fill="#ff662e"/>
  <path id="パス_168" data-name="パス 168" d="M770.735,4063.363a6.19,6.19,0,0,0,1.677-.219,4.487,4.487,0,0,0,3.331-4.738c-.178-6.111-10.054-8.125-10.937-8.293a20.882,20.882,0,0,0-7.457-.439,6.1,6.1,0,0,0-5.344,3.373,5.036,5.036,0,0,0,.642,5.149c2.4,3.171,8.855.69,9.128.583l.063-.028c.69-.346,1.494.339,1.706.538A8.559,8.559,0,0,0,770.735,4063.363Zm-10.808-12.271a16.012,16.012,0,0,1,4.453.491l.1.026a23.7,23.7,0,0,1,4.96,1.6c2.135.984,4.7,2.692,4.771,5.244a2.923,2.923,0,0,1-2.218,3.22c-2.736.774-5.92-1.05-7.178-3.237l-.044-.077-.061-.065a3.16,3.16,0,0,0-3.524-.927c-1.588.614-5.914,1.765-7.322-.094a3.526,3.526,0,0,1-.464-3.6,4.625,4.625,0,0,1,4.075-2.47C758.38,4051.123,759.2,4051.092,759.927,4051.092Z" transform="translate(-716.339 -4007.036)" fill="#30aaba"/>
  <path id="パス_169" data-name="パス 169" d="M801.618,4093.129l-4.277-.972a2.773,2.773,0,0,0,2.138,1.426A4.542,4.542,0,0,0,801.618,4093.129Z" transform="translate(-753.887 -4038.766)" fill="#ffc790"/>
  <ellipse id="楕円形_60" data-name="楕円形 60" cx="7.23" cy="7.23" rx="7.23" ry="7.23" transform="translate(68.432 32.833)" fill="#ed5821"/>
  <ellipse id="楕円形_61" data-name="楕円形 61" cx="4.29" cy="4.29" rx="4.29" ry="4.29" transform="translate(78.892 30.727)" fill="#ed5821"/>
  <ellipse id="楕円形_62" data-name="楕円形 62" cx="4.322" cy="4.322" rx="4.322" ry="4.322" transform="translate(83.994 25.603)" fill="#ed5821"/>
  <path id="パス_170" data-name="パス 170" d="M603.481,3953.661s-1.185-7.475-9.226-5.535c0,0-4.244,8.488,0,10.517S603.481,3953.661,603.481,3953.661Z" transform="translate(-503.462 -3931.237)" fill="#ed5821"/>
  <ellipse id="楕円形_63" data-name="楕円形 63" cx="7.23" cy="7.23" rx="7.23" ry="7.23" transform="translate(61.133 16.266)" fill="#ed5821"/>
  <ellipse id="楕円形_64" data-name="楕円形 64" cx="4.29" cy="4.29" rx="4.29" ry="4.29" transform="translate(71.593 14.16)" fill="#ed5821"/>
  <ellipse id="楕円形_65" data-name="楕円形 65" cx="4.322" cy="4.322" rx="4.322" ry="4.322" transform="translate(76.695 9.036)" fill="#ed5821"/>
  <path id="パス_171" data-name="パス 171" d="M620.981,3893.7c4.244,2.03,9.226-4.982,9.226-4.982s-1.185-7.475-9.226-5.535" transform="translate(-537.487 -3882.86)" fill="#ed5821"/>
</svg>
