<svg xmlns="http://www.w3.org/2000/svg" width="188.995" height="169.543" viewBox="0 0 188.995 169.543">
  <g id="グループ_117" data-name="グループ 117" transform="translate(19.558 -3.655) rotate(9)">
    <circle id="楕円形_21" data-name="楕円形 21" cx="74.093" cy="74.093" r="74.093" transform="translate(23.363)" fill="#e65538"/>
    <g id="レイヤー_4" data-name="レイヤー 4" transform="translate(0 51.288)">
      <path id="パス_92" data-name="パス 92" d="M171.191,56.571s-4.406-32.39-43.137-33.7c-2.383-9.623-13.338-18.586-27.888-21.733C86.6-1.8,73.788,1.146,67.129,7.859,28.045-8.325,11.064,22.084,11.064,22.084S.805,21.4.045,29.56s8.419,5.373,8.419,5.373a7.583,7.583,0,0,0-1.153,2.932c-.377,1.92.564,1.915,5.649-.978S17,29.431,17,29.431c17.483-13.4,36.667-8.958,46.286-5.278,3.025,9.106,13.615,17.394,27.487,20.4,12.435,2.691,24.247.435,31.255-5.134,10.35.127,29.65,3.083,40.952,21.826,0,0-2.641,3.867,1.034,8.417s4.55,4.9,4.9,2.975a7.581,7.581,0,0,0,0-3.15s7.525,5.95,9.8-1.926S171.191,56.571,171.191,56.571Z" transform="translate(0 0)" fill="#fbc6a1"/>
    </g>
    <path id="パス_93" data-name="パス 93" d="M2.183,8.708S-8.382,34.069,16.976,39.14c25.133,5.028,26.628-13.525,27.052-22.4L27.36,0Z" transform="translate(77.201 39.215)" fill="#ffe6b7"/>
    <path id="パス_94" data-name="パス 94" d="M33.184,21.545l.521,9.6L57.78,37.186S66.768,6.1,36.594.965c0,0-16.425-5-28.776,7.758A31.03,31.03,0,0,0,.845,20.582L0,23.116l26.964,6.1Z" transform="translate(69.523 26.377)" fill="#3a1e1c"/>
    <circle id="楕円形_22" data-name="楕円形 22" cx="3.171" cy="3.171" r="3.171" transform="translate(104.502 62.21)" fill="#411d0f"/>
    <circle id="楕円形_23" data-name="楕円形 23" cx="3.171" cy="3.171" r="3.171" transform="translate(85.465 58.084)" fill="#411d0f"/>
    <path id="パス_95" data-name="パス 95" d="M.058,0,10.533,2.482a5.393,5.393,0,0,1-6.2,3.188A4.783,4.783,0,0,1,.058,0Z" transform="translate(91.04 68.553)" fill="#e6564a"/>
    <circle id="楕円形_24" data-name="楕円形 24" cx="3.969" cy="3.969" r="3.969" transform="translate(80.698 64.427)" fill="#f4a890"/>
    <circle id="楕円形_25" data-name="楕円形 25" cx="3.969" cy="3.969" r="3.969" transform="translate(104.502 69.565)" fill="#f4a890"/>
    <circle id="楕円形_26" data-name="楕円形 26" cx="7.179" cy="7.179" r="7.179" transform="translate(48.025 92.549)" fill="#f7c0b6"/>
    <path id="パス_96" data-name="パス 96" d="M33.411,18.724A50.582,50.582,0,0,1,1.434,7.519,4.309,4.309,0,0,1,7.171,1.088h0c.679.6,16.856,14.527,41.06,6.549a4.309,4.309,0,1,1,2.7,8.184A55.7,55.7,0,0,1,33.411,18.724Z" transform="translate(65.364 106.198)" fill="#f7c0b6"/>
  </g>
</svg>
