<svg id="グループ_65" data-name="グループ 65" xmlns="http://www.w3.org/2000/svg" width="202.156" height="148.576" viewBox="0 0 202.156 148.576">
  <path id="パス_119" data-name="パス 119" d="M264.22,4331.152l34.091,16.75-.67-6.674,5.791-.582-4.255-7.425,7.146-4.563-39.829-7.273Z" transform="translate(-105.855 -4199.326)" fill="#474645"/>
  <path id="パス_120" data-name="パス 120" d="M258.152,4232l34.091,16.75-.67-6.674,5.791-.582-4.255-7.426,7.146-4.563-39.829-7.273Z" transform="translate(-98.099 -4127.769)" fill="#474645"/>
  <path id="パス_121" data-name="パス 121" d="M384.318,4153.087s21.208,34.876,48.711,35.559,46.443-2.622,46.443-2.622l.736-17.271s-45.918,8.254-60-10.792c-5.834-7.891.971-10.694.971-10.694s31.544,13,59.158,10.865l2.893-14.974s-40.9-2.335-67.435-29.166l-15.872,1.593-7.449,6.6-8.158,30.9" transform="translate(-316.192 -4049.659)" fill="#767676"/>
  <path id="パス_122" data-name="パス 122" d="M652.014,3906.364c7.583.4,33.05,25.637,33.05,25.637l17.114,14.773,24.022,17.348h0a53.576,53.576,0,0,1-23.837,34.273l-7.642,4.822-22.2-22.3-16.531-15.423s-27.834-22.6-29.049-30.1,1.025-8.182,2.625-8.343,4.23,5.346,4.23,5.346-.732-2.7,1.119-2.651,2.8,4.335,2.8,4.335a58.206,58.206,0,0,0,29.729,23.1l3.9-.391-1.947-.955,6.4-4.626,2.2-3.86.061.1-.025-3.163a58.2,58.2,0,0,0-26.17-27.066s-4.368-.485-4.612-2.321,2.516-1.4,2.516-1.4-5.759-2.021-5.771-3.629S644.431,3905.965,652.014,3906.364Z" transform="translate(-626.596 -3899.789)" fill="#302d2c"/>
  <path id="パス_123" data-name="パス 123" d="M761.324,4004.095s1.63,17.78-18.912,15.574-15-21.118-15-21.118l13.695-15.325,15.325,3.913Z" transform="translate(-689.622 -3955.291)" fill="#bdbebf"/>
  <circle id="楕円形_33" data-name="楕円形 33" cx="1.913" cy="1.913" r="1.913" transform="translate(57.459 53.145)" fill="#474645"/>
  <circle id="楕円形_34" data-name="楕円形 34" cx="1.913" cy="1.913" r="1.913" transform="translate(43.059 49.319)" fill="#474645"/>
  <path id="パス_124" data-name="パス 124" d="M728.516,3989.109a21.784,21.784,0,0,1-4.09-3.844l-5.842-10.229-8.008,2.46s-9.219,3.478-11.9-.967,4.39-21.228,22.459-21.23c10.081,0,16.517,5.076,19.981,13.506,2.42,5.888-.45,13.241-3.067,18.1A6.519,6.519,0,0,1,728.516,3989.109Z" transform="translate(-662.33 -3935.137)" fill="#474645"/>
  <path id="パス_125" data-name="パス 125" d="M772.481,4064.621a6.728,6.728,0,0,0,1.829-.24,4.9,4.9,0,0,0,3.635-5.169c-.194-6.667-10.97-8.865-11.934-9.049a22.81,22.81,0,0,0-8.136-.479,6.655,6.655,0,0,0-5.831,3.681,5.5,5.5,0,0,0,.7,5.618c2.621,3.46,9.661.753,9.96.636l.068-.03c.753-.377,1.63.369,1.862.587A9.34,9.34,0,0,0,772.481,4064.621Zm-11.793-13.389a17.443,17.443,0,0,1,4.859.537l.112.028a25.887,25.887,0,0,1,5.412,1.742c2.33,1.074,5.125,2.938,5.205,5.722a3.189,3.189,0,0,1-2.42,3.514c-2.985.845-6.459-1.145-7.832-3.532l-.048-.083-.066-.071a3.448,3.448,0,0,0-3.845-1.012c-1.733.67-6.453,1.926-7.989-.1a3.847,3.847,0,0,1-.506-3.93,5.046,5.046,0,0,1,4.447-2.7C759,4051.265,759.892,4051.232,760.689,4051.232Z" transform="translate(-713.129 -4003.161)" fill="#474645"/>
  <path id="パス_126" data-name="パス 126" d="M802.008,4093.218l-4.667-1.061a3.026,3.026,0,0,0,2.333,1.556A4.957,4.957,0,0,0,802.008,4093.218Z" transform="translate(-749.928 -4033.902)" fill="#474645"/>
  <circle id="楕円形_35" data-name="楕円形 35" cx="7.889" cy="7.889" r="7.889" transform="translate(74.666 35.825)" fill="#474645"/>
  <circle id="楕円形_36" data-name="楕円形 36" cx="4.681" cy="4.681" r="4.681" transform="translate(86.08 33.526)" fill="#474645"/>
  <circle id="楕円形_37" data-name="楕円形 37" cx="4.716" cy="4.716" r="4.716" transform="translate(91.646 27.936)" fill="#474645"/>
  <path id="パス_127" data-name="パス 127" d="M604.493,3954.195s-1.293-8.156-10.066-6.04c0,0-4.63,9.261,0,11.476S604.493,3954.195,604.493,3954.195Z" transform="translate(-495.362 -3929.728)" fill="#474645"/>
  <circle id="楕円形_38" data-name="楕円形 38" cx="7.889" cy="7.889" r="7.889" transform="translate(66.703 17.748)" fill="#474645"/>
  <circle id="楕円形_39" data-name="楕円形 39" cx="4.681" cy="4.681" r="4.681" transform="translate(78.116 15.45)" fill="#474645"/>
  <circle id="楕円形_40" data-name="楕円形 40" cx="4.716" cy="4.716" r="4.716" transform="translate(83.683 9.859)" fill="#474645"/>
  <path id="パス_128" data-name="パス 128" d="M620.981,3894.687c4.63,2.214,10.066-5.436,10.066-5.436s-1.293-8.156-10.066-6.04" transform="translate(-529.88 -3882.861)" fill="#474645"/>
</svg>
