<svg xmlns="http://www.w3.org/2000/svg" width="143.687" height="176.332" viewBox="0 0 143.687 176.332">
  <g id="グループ_111" data-name="グループ 111" transform="translate(984.523 -332.733)">
    <g id="レイヤー_3" data-name="レイヤー 3" transform="translate(-984.523 332.733)">
      <g id="レイヤー_7" data-name="レイヤー 7" transform="translate(0 0)">
        <path id="パス_172" data-name="パス 172" d="M-966.3,386.927l-18.219-29.272h6.089v-5.283l7.092,3.17,3.473-6.868,10.18,35.314Z" transform="translate(984.523 -344.646)" fill="#ffb641"/>
        <path id="パス_173" data-name="パス 173" d="M-868.249,370.986l-18.219-29.272h6.089v-5.283l7.092,3.17,3.473-6.868,10.18,35.314Z" transform="translate(911.242 -332.733)" fill="#ffb641"/>
      </g>
      <g id="レイヤー_6" data-name="レイヤー 6" transform="translate(13.417 30.971)">
        <path id="パス_174" data-name="パス 174" d="M-892.786,545.552s-33.422-15.993-36.533-40.772-1.843-42.185-1.843-42.185l15.532-2.231s-3.291,42.221,15.188,53.212c7.657,4.554,9.57-1.846,9.57-1.846s-14.6-27.312-15.176-52.446l13.262-3.97s5.818,36.732,32.457,58.263v14.48l-5.285,7.326-27.172,10.17" transform="translate(931.417 -455.313)" fill="#83a227"/>
      </g>
      <path id="パス_175" data-name="パス 175" d="M-687.167,747.682c-1.048-6.813-26.151-27.526-26.151-27.526l-14.895-14.118-17.847-20.123h0a48.631,48.631,0,0,0-28.794,24.636l-3.662,7.339,22.155,18.028,15.429,13.532s22.935,23.091,29.815,23.508,7.3-1.668,7.3-3.127-5.213-3.336-5.213-3.336,2.5.417,2.294-1.251-4.17-2.14-4.17-2.14a52.836,52.836,0,0,1-23.561-24.756V734.79l1.038,1.672,3.6-6.2,3.287-2.335-.092-.046,2.859-.264A52.837,52.837,0,0,1-696.96,748.8s.834,3.9,2.514,3.956,1.035-2.4,1.035-2.4,2.348,5.018,3.8,4.883S-686.118,754.494-687.167,747.682Z" transform="translate(830.565 -596.68)" fill="#e65538"/>
      <path id="パス_176" data-name="パス 176" d="M-457.075,901.285c-2.274,1.511-4.5,3.089-6.658,4.765-.213.166-.424.334-.637.5a31.853,31.853,0,0,1,2.185,3.2s.834,3.9,2.514,3.955,1.035-2.4,1.035-2.4,2.348,5.018,3.8,4.883,3.491-.741,2.443-7.554C-452.659,906.9-454.493,904.257-457.075,901.285Z" transform="translate(595.79 -757.636)" fill="#ffe6b7"/>
      <path id="パス_177" data-name="パス 177" d="M-537.875,987.426s2.5.417,2.294-1.251-4.17-2.14-4.17-2.14a34.96,34.96,0,0,1-4.354-2.5c-.99,1.137-1.951,2.3-2.867,3.5-.879,1.148-1.727,2.331-2.523,3.547,3.926,2.995,7.461,5.184,9.536,5.309,6.88.417,7.3-1.668,7.3-3.127S-537.875,987.426-537.875,987.426Z" transform="translate(659.408 -817.612)" fill="#ffe6b7"/>
      <path id="パス_178" data-name="パス 178" d="M-670.072,788.276s-1.48,16.14,17.167,14.138,13.615-19.169,13.615-19.169l-12.431-13.911-13.911,3.552Z" transform="translate(749.541 -659.023)" fill="#ffe6b7"/>
    </g>
    <g id="レイヤー_8" data-name="レイヤー 8" transform="translate(-912.68 435.987)">
      <circle id="楕円形_66" data-name="楕円形 66" cx="1.737" cy="1.737" r="1.737" transform="translate(17.081 29.94)" fill="#3a1e1c"/>
      <circle id="楕円形_67" data-name="楕円形 67" cx="1.737" cy="1.737" r="1.737" transform="translate(30.152 26.466)" fill="#3a1e1c"/>
      <path id="パス_179" data-name="パス 179" d="M-696.885,770.944s11.7-1.208,19.079-4.71V760.3l3.806,5.176s11.114-.761,13.55-4.8-3.985-19.269-20.387-19.271c-9.151,0-14.993,4.608-18.137,12.26C-702.583,762.448-696.885,770.944-696.885,770.944Z" transform="translate(700.171 -741.406)" fill="#3a1e1c"/>
      <path id="パス_180" data-name="パス 180" d="M-640.3,849.338a6.129,6.129,0,0,1-1.661-.217,4.444,4.444,0,0,1-3.3-4.692c.176-6.052,9.957-8.047,10.833-8.214a20.687,20.687,0,0,1,7.385-.435,6.041,6.041,0,0,1,5.293,3.341,4.988,4.988,0,0,1-.636,5.1c-2.38,3.141-8.77.684-9.041.578l-.062-.028c-.683-.342-1.479.336-1.69.533A8.477,8.477,0,0,1-640.3,849.338Zm10.7-12.153a15.856,15.856,0,0,0-4.41.487l-.1.026a23.476,23.476,0,0,0-4.912,1.582c-2.115.974-4.652,2.667-4.725,5.194a2.9,2.9,0,0,0,2.2,3.19c2.71.767,5.863-1.039,7.11-3.206l.044-.076.06-.064a3.129,3.129,0,0,1,3.49-.918c1.573.608,5.857,1.748,7.252-.093a3.492,3.492,0,0,0,.459-3.568,4.581,4.581,0,0,0-4.036-2.447C-628.062,837.215-628.872,837.184-629.594,837.184Z" transform="translate(659.135 -811.852)" fill="#e65538"/>
      <path id="パス_181" data-name="パス 181" d="M-599.491,879.227l4.236-.963a2.746,2.746,0,0,1-2.118,1.412A4.5,4.5,0,0,1-599.491,879.227Z" transform="translate(624.929 -843.686)" fill="#ff9189"/>
    </g>
  </g>
</svg>
