<svg xmlns="http://www.w3.org/2000/svg" width="333.042" height="410.996" viewBox="0 0 333.042 410.996">
  <g id="グループ_61" data-name="グループ 61" transform="translate(0 -1483.58)">
    <path id="パス_137" data-name="パス 137" d="M-6648.807-423.627s-66.094-7.029-26.553-73.483,36.178-102.172-10.278-107.6-70.409,53.877-78.776,11.254-51.509-46.3-73.661,18.415-45.976-7.728-78.776,19.438c-25.327,20.976-25.327,75.32-25.327,75.32v163.976s55,144.353,94.9,90.626c28.329-38.147,45-7.768,61.384-1.519,30.6,11.674,71.339,13.309,69.555-31.715,0,0,0-57.292,53.213-57.292C-6621.7-316.206-6573.1-394.982-6648.807-423.627Z" transform="translate(6942.177 2108.273)" fill="#0dab79"/>
    <path id="パス_136" data-name="パス 136" d="M-4775.323,3362.042v161.8s53.439,95.844,117.828.707c23.511-34.738,76.314,2.995,100.126-49.841,12.764-28.322-1.146-64.236-22.67-94.017-22.093-30.569,8.513-42.269-14.67-82.011-8.641-14.813-43.2-28.391-67.521-3.153-11.252,11.678-28.116,48.156-53.313,34.188C-4766.9,3301.248-4775.323,3362.042-4775.323,3362.042Z" transform="translate(4775.323 -1683.292)" fill="#e8ff88"/>
    <path id="パス_138" data-name="パス 138" d="M-4775.323,3330.508v98.477s32.525,58.334,71.715.431c14.31-21.143,46.447,1.822,60.94-30.335,7.769-17.238-.7-39.1-13.8-57.223-13.447-18.605,5.181-25.726-8.929-49.915-5.259-9.016-26.3-17.28-41.1-1.919-6.849,7.108-17.112,29.31-32.449,20.808C-4770.194,3293.506-4775.323,3330.508-4775.323,3330.508Z" transform="translate(4775.323 -1712.421)" fill="#8bc745"/>
    <path id="パス_139" data-name="パス 139" d="M-6688.835-3980.35h9.559a18.8,18.8,0,0,0-18.8-18.8h-4.864c13.012-31.11,26.876-32.333,26.876-32.333s-13.607-1.6-27.345,15.8a18.807,18.807,0,0,0-18-13.37h-9.559a18.8,18.8,0,0,0,18.8,18.8h4.894a92.678,92.678,0,0,0-6.353,11.729,99.13,99.13,0,0,0-4.316,11.677,18.8,18.8,0,0,0-17.645-12.3h-9.557a18.8,18.8,0,0,0,18.8,18.8h6.487c-2.031,7.174-4.011,14.844-6.5,22.376a18.8,18.8,0,0,0-17.228-11.27h-9.558a18.8,18.8,0,0,0,18.8,18.8h5.283c-3.641,9.258-8.385,17.963-15.35,24.857a18.807,18.807,0,0,0-11.691-19.088l-8.863-3.579h0a18.8,18.8,0,0,0,10.393,24.469l5.541,2.237c-7.226,5.55-16.487,9.38-28.625,10.542a18.8,18.8,0,0,0-.276-23.333l-6.019-7.425h0a18.8,18.8,0,0,0-2.764,26.44l3.767,4.647a100.678,100.678,0,0,1-11.41-.333v11.181a75.656,75.656,0,0,0,33.46-1.7,18.805,18.805,0,0,0,8.712,19.778l8.179,4.945a18.8,18.8,0,0,0-6.363-25.812l-2.793-1.688a58.481,58.481,0,0,0,24.373-19.684,18.8,18.8,0,0,0,17.164,11.122h9.558a18.8,18.8,0,0,0-18.8-18.8H-6724a92.653,92.653,0,0,0,8.979-25.871q.27-1.344.544-2.655a18.8,18.8,0,0,0,16.481,9.75h9.557a18.8,18.8,0,0,0-18.8-18.8h-5.2a220.005,220.005,0,0,1,6.49-22.111A18.8,18.8,0,0,0-6688.835-3980.35Z" transform="translate(6794.368 5720.598)" fill="#85e36f"/>
    <path id="パス_140" data-name="パス 140" d="M-6737.992-4004.185h5.106a10.042,10.042,0,0,0-10.042-10.042h-2.6c6.951-16.619,14.357-17.272,14.357-17.272s-7.269-.856-14.607,8.44a10.047,10.047,0,0,0-9.617-7.142h-5.106a10.042,10.042,0,0,0,10.042,10.042h2.614a49.569,49.569,0,0,0-3.394,6.265,53.074,53.074,0,0,0-2.306,6.238,10.044,10.044,0,0,0-9.425-6.571h-5.105a10.042,10.042,0,0,0,10.042,10.042h3.465c-1.085,3.833-2.143,7.93-3.473,11.953a10.044,10.044,0,0,0-9.2-6.021h-5.106a10.042,10.042,0,0,0,10.042,10.042h2.822a37.754,37.754,0,0,1-8.2,13.279,10.047,10.047,0,0,0-6.246-10.2l-4.735-1.912h0a10.043,10.043,0,0,0,5.552,13.071l2.96,1.195a28.924,28.924,0,0,1-15.291,5.632,10.046,10.046,0,0,0-.147-12.464l-3.216-3.967h0a10.043,10.043,0,0,0-1.477,14.125l2.012,2.482a53.8,53.8,0,0,1-6.1-.178v5.973a40.414,40.414,0,0,0,17.875-.908,10.045,10.045,0,0,0,4.654,10.565l4.37,2.641a10.041,10.041,0,0,0-3.4-13.789l-1.492-.9a31.244,31.244,0,0,0,13.021-10.515,10.044,10.044,0,0,0,9.169,5.941h5.105a10.042,10.042,0,0,0-10.042-10.042h-1.667a49.51,49.51,0,0,0,4.8-13.82q.145-.718.291-1.418a10.042,10.042,0,0,0,8.8,5.208h5.105a10.042,10.042,0,0,0-10.042-10.042h-2.779a117.641,117.641,0,0,1,3.467-11.812A10.043,10.043,0,0,0-6737.992-4004.185Z" transform="translate(6794.368 5646.028)" fill="#f0ffb1"/>
  </g>
</svg>
