<svg xmlns="http://www.w3.org/2000/svg" width="247.103" height="247.103" viewBox="0 0 247.103 247.103">
  <g id="グループ_162" data-name="グループ 162" transform="translate(-3007.976 -4620.36)">
    <path id="パス_224" data-name="パス 224" d="M123.552,0A123.552,123.552,0,1,1,0,123.552,123.552,123.552,0,0,1,123.552,0Z" transform="translate(3007.976 4620.36)" fill="#2dc7eb"/>
    <path id="パス_223" data-name="パス 223" d="M3463.652,4960.607a4.034,4.034,0,0,0-4.034,4.034,21.5,21.5,0,0,1-21.473,21.473H3399.4v-17.439h15.092a29.574,29.574,0,0,0,29.541-29.541,4.034,4.034,0,1,0-8.068,0,21.5,21.5,0,0,1-21.473,21.473H3399.4v-34.73h36.109a29.574,29.574,0,0,0,29.541-29.541,4.034,4.034,0,0,0-8.067,0,21.5,21.5,0,0,1-21.473,21.473H3399.4v-14h14.213a29.574,29.574,0,0,0,29.541-29.541,4.034,4.034,0,1,0-8.068,0,21.5,21.5,0,0,1-21.473,21.473H3399.4v-32a4.034,4.034,0,1,0-8.068,0v35.511a3.632,3.632,0,0,0,0,1.042V4913.5h-14.251a21.5,21.5,0,0,1-21.473-21.473,4.034,4.034,0,1,0-8.068,0,29.574,29.574,0,0,0,29.541,29.541h14.227c-.006.09-.014.18-.014.271a4.069,4.069,0,0,0,.038.521v13.211h-36.146a21.5,21.5,0,0,1-21.473-21.473,4.034,4.034,0,0,0-8.067,0,29.574,29.574,0,0,0,29.541,29.541h36.146v34.73H3376.2a21.5,21.5,0,0,1-21.473-21.473,4.034,4.034,0,0,0-8.068,0,29.574,29.574,0,0,0,29.541,29.541h15.129v17.438h-38.783a21.5,21.5,0,0,1-21.473-21.473,4.034,4.034,0,1,0-8.067,0,29.574,29.574,0,0,0,29.541,29.541h38.783v25.122a4.034,4.034,0,0,0,8.068,0v-42.889h38.746a29.574,29.574,0,0,0,29.541-29.541A4.034,4.034,0,0,0,3463.652,4960.607Z" transform="translate(-263.819 -200.437)" fill="#1078a8"/>
  </g>
</svg>
