<svg xmlns="http://www.w3.org/2000/svg" width="275.284" height="339.718" viewBox="0 0 275.284 339.718">
  <g id="グループ_62" data-name="グループ 62" transform="translate(0)">
    <path id="パス_137" data-name="パス 137" d="M-6909.386-458.5s54.631-5.81,21.946-60.739-29.9-84.453,8.5-88.939,58.2,44.534,65.113,9.3,42.576-38.274,60.886,15.221,38-6.388,65.114,16.067c20.935,17.338,20.935,62.258,20.935,62.258v135.538s-45.458,119.319-78.437,74.909c-23.416-31.531-37.2-6.421-50.739-1.255-25.293,9.649-58.966,11-57.492-26.215,0,0,0-47.356-43.983-47.356C-6931.793-369.706-6971.963-434.82-6909.386-458.5Z" transform="translate(6942.177 624.693)" fill="#0dab79"/>
    <path id="パス_136" data-name="パス 136" d="M-4591.132,3348.068v133.739s-44.172,79.222-97.394.584c-19.433-28.713-63.08,2.475-82.762-41.2-10.55-23.411.948-53.1,18.738-77.712,18.261-25.267-7.036-34.938,12.126-67.788,7.143-12.244,35.711-23.467,55.811-2.606,9.3,9.653,23.24,39.8,44.067,28.259C-4598.1,3297.817-4591.132,3348.068-4591.132,3348.068Z" transform="translate(4866.415 -3186.745)" fill="#8bc745"/>
    <path id="パス_138" data-name="パス 138" d="M-4663.218,3322v81.4s-26.885,48.218-59.277.356c-11.828-17.476-38.392,1.506-50.372-25.074-6.421-14.249.577-32.316,11.4-47.3,11.115-15.379-4.282-21.265,7.381-41.259,4.347-7.452,21.735-14.283,33.968-1.586,5.661,5.875,14.145,24.226,26.821,17.2C-4667.458,3291.418-4663.218,3322-4663.218,3322Z" transform="translate(4938.501 -3210.822)" fill="#e8fe88"/>
    <path id="パス_139" data-name="パス 139" d="M-6783.812-3989.224h-7.9a15.539,15.539,0,0,1,15.538-15.538h4.021c-10.756-25.714-22.216-26.726-22.216-26.726s11.247-1.325,22.6,13.06a15.545,15.545,0,0,1,14.879-11.051h7.9a15.538,15.538,0,0,1-15.539,15.538h-4.045a76.642,76.642,0,0,1,5.25,9.695,81.888,81.888,0,0,1,3.567,9.652,15.545,15.545,0,0,1,14.585-10.167h7.9a15.538,15.538,0,0,1-15.538,15.538h-5.362c1.68,5.93,3.315,12.27,5.375,18.495a15.541,15.541,0,0,1,14.24-9.315h7.9a15.538,15.538,0,0,1-15.538,15.538h-4.367c3.01,7.652,6.932,14.848,12.688,20.546a15.547,15.547,0,0,1,9.664-15.778l7.326-2.958h0a15.539,15.539,0,0,1-8.59,20.226l-4.581,1.848c5.973,4.588,13.628,7.753,23.661,8.714a15.542,15.542,0,0,1,.228-19.286l4.975-6.137h0a15.539,15.539,0,0,1,2.285,21.854l-3.113,3.841a83.21,83.21,0,0,0,9.432-.275v9.242a62.535,62.535,0,0,1-27.658-1.406,15.545,15.545,0,0,1-7.2,16.349l-6.76,4.086a15.536,15.536,0,0,1,5.259-21.335l2.309-1.4a48.337,48.337,0,0,1-20.146-16.271,15.543,15.543,0,0,1-14.188,9.193h-7.9a15.537,15.537,0,0,1,15.537-15.538h2.582a76.56,76.56,0,0,1-7.422-21.385q-.224-1.111-.45-2.194a15.536,15.536,0,0,1-13.623,8.059h-7.9a15.537,15.537,0,0,1,15.537-15.538h4.3a182.122,182.122,0,0,0-5.365-18.276A15.538,15.538,0,0,1-6783.812-3989.224Z" transform="translate(6971.864 4201.379)" fill="#0dab79"/>
    <path id="パス_140" data-name="パス 140" d="M-6788.729-4008.926h-4.221a8.3,8.3,0,0,1,8.3-8.3h2.148c-5.746-13.737-11.868-14.277-11.868-14.277s6.009-.707,12.075,6.977a8.3,8.3,0,0,1,7.947-5.9h4.222a8.3,8.3,0,0,1-8.3,8.3h-2.16a41.007,41.007,0,0,1,2.8,5.179,43.969,43.969,0,0,1,1.905,5.156,8.3,8.3,0,0,1,7.791-5.431h4.22a8.3,8.3,0,0,1-8.3,8.3h-2.864c.9,3.168,1.771,6.555,2.871,9.88a8.3,8.3,0,0,1,7.606-4.977h4.221a8.3,8.3,0,0,1-8.3,8.3h-2.332a31.2,31.2,0,0,0,6.777,10.975,8.3,8.3,0,0,1,5.162-8.428l3.914-1.581h0a8.3,8.3,0,0,1-4.589,10.8l-2.447.987a23.9,23.9,0,0,0,12.64,4.655,8.3,8.3,0,0,1,.122-10.3l2.657-3.278h0a8.3,8.3,0,0,1,1.221,11.675l-1.663,2.052a44.536,44.536,0,0,0,5.038-.147v4.937a33.4,33.4,0,0,1-14.774-.75,8.3,8.3,0,0,1-3.847,8.733l-3.612,2.183a8.3,8.3,0,0,1,2.81-11.4l1.233-.745a25.836,25.836,0,0,1-10.763-8.692,8.3,8.3,0,0,1-7.578,4.912h-4.22a8.3,8.3,0,0,1,8.3-8.3h1.379a40.934,40.934,0,0,1-3.964-11.423q-.12-.594-.241-1.173a8.3,8.3,0,0,1-7.277,4.306h-4.22a8.3,8.3,0,0,1,8.3-8.3h2.3a97.426,97.426,0,0,0-2.865-9.763A8.3,8.3,0,0,1-6788.729-4008.926Z" transform="translate(7017.414 4139.742)" fill="#b4f568"/>
  </g>
</svg>
