<svg xmlns="http://www.w3.org/2000/svg" width="156.027" height="326.736" viewBox="0 0 156.027 326.736">
  <g id="グループ_72" data-name="グループ 72" transform="translate(0 0)">
    <g id="グループ_69" data-name="グループ 69" transform="translate(0 0)">
      <path id="パス_152" data-name="パス 152" d="M56.647,5432.136v60.378S7.657,5496.54,3.3,5467.692s-38.567-35.556-38.567-35.556-34.214-3.437-32.873-28.553,9.392-32.5-5.367-51.951-28.847-17.415-22.81-42.251,5.856-27.52-1.433-39.6,10.825-34.885,33.635-12.076,1.342,29.049,9.392,43.037,19.455,9.958,28.177,17.34-5.367,28.677,0,40.839,19.52,8.336,28.081,14.751,2.69,21.828,11.247,29.907,17.01-3.321,29.867,0S56.647,5432.136,56.647,5432.136Z" transform="translate(99.38 -5247.97)" fill="#a8de51"/>
      <path id="パス_153" data-name="パス 153" d="M-85.9,5248.836a21.308,21.308,0,0,1,3.286,2.271c5.818,4.894,9.157,12.227,11.575,19.269,2.915,8.488,4.667,17.344,6.267,26.158,1.515,8.349,2.764,16.768,4.732,25.026a80.18,80.18,0,0,0,2.993,9.745c2.06,5.463,3.992,10.976,5.954,16.475,3.814,10.687,7.645,21.377,12.127,31.806a178.257,178.257,0,0,0,15.855,29.721A120.135,120.135,0,0,0,0,5434.857c3.908,3.21,8.067,6.1,12.223,8.979,4.22,2.922,8.509,5.749,12.934,8.352,8.807,5.182,18.425,9.818,28.658,11.174q1.409.187,2.83.275v29.539S7.657,5497.2,3.3,5468.354-35.263,5432.8-35.263,5432.8s-34.214-3.437-32.873-28.553,9.392-32.5-5.367-51.952-28.847-17.414-22.81-42.25,5.856-27.52-1.433-39.6C-102.417,5262.706-96.649,5250.552-85.9,5248.836Z" transform="translate(99.38 -5248.632)" fill="#0dab79"/>
    </g>
    <g id="グループ_70" data-name="グループ 70" transform="translate(63.354 44.008)">
      <path id="パス_152-2" data-name="パス 152" d="M-6.707,5357.357v35.862s-29.1,2.391-31.683-14.744S-61.3,5357.357-61.3,5357.357s-20.322-2.042-19.525-16.96,5.579-19.3-3.188-30.856-17.134-10.343-13.548-25.1,3.478-16.345-.851-23.518,6.43-20.72,19.977-7.172.8,17.254,5.578,25.562,11.556,5.915,16.736,10.3-3.188,17.033,0,24.256,11.594,4.951,16.679,8.762,1.6,12.965,6.68,17.763,10.1-1.973,17.74,0S-6.707,5357.357-6.707,5357.357Z" transform="translate(99.38 -5247.97)" fill="#0dab79"/>
      <path id="パス_153-2" data-name="パス 153" d="M-91.372,5248.836a12.685,12.685,0,0,1,1.952,1.349c3.455,2.906,5.439,7.263,6.875,11.445a105.844,105.844,0,0,1,3.722,15.537c.9,4.959,1.642,9.959,2.811,14.865a47.644,47.644,0,0,0,1.778,5.788c1.224,3.245,2.371,6.519,3.536,9.785,2.265,6.347,4.541,12.7,7.2,18.891a105.873,105.873,0,0,0,9.417,17.653,71.366,71.366,0,0,0,13.726,15.176c2.321,1.906,4.792,3.624,7.26,5.333,2.506,1.735,5.054,3.415,7.682,4.961,5.231,3.078,10.943,5.831,17.021,6.637q.837.111,1.681.164v17.544s-29.1,2.391-31.683-14.744S-61.3,5358.1-61.3,5358.1s-20.322-2.042-19.525-16.96,5.579-19.3-3.188-30.856-17.134-10.344-13.548-25.1,3.478-16.346-.851-23.518C-101.184,5257.074-97.758,5249.856-91.372,5248.836Z" transform="translate(99.38 -5248.715)" fill="#e8fe88"/>
    </g>
    <g id="グループ_71" data-name="グループ 71" transform="translate(43.599 150.388)">
      <path id="パス_152-3" data-name="パス 152" d="M13.047,5380.673v43.507s-35.3,2.9-38.437-17.886-27.79-25.621-27.79-25.621-24.654-2.476-23.687-20.574,6.768-23.415-3.867-37.434-20.786-12.548-16.436-30.445,4.22-19.83-1.032-28.531,7.8-25.137,24.236-8.7S-73,5275.92-67.2,5286s14.019,7.175,20.3,12.494-3.867,20.664,0,29.427,14.066,6.007,20.235,10.629,1.938,15.729,8.1,21.55,12.257-2.393,21.521,0S13.047,5380.673,13.047,5380.673Z" transform="translate(99.38 -5247.97)" fill="#0dab79"/>
      <path id="パス_153-3" data-name="パス 153" d="M-89.665,5248.836a15.335,15.335,0,0,1,2.368,1.636c4.192,3.526,6.6,8.811,8.341,13.884a128.425,128.425,0,0,1,4.516,18.849c1.092,6.016,1.992,12.082,3.41,18.033a57.781,57.781,0,0,0,2.157,7.022c1.485,3.937,2.876,7.909,4.29,11.871,2.748,7.7,5.509,15.4,8.738,22.918a128.444,128.444,0,0,0,11.425,21.416,86.559,86.559,0,0,0,16.651,18.411c2.816,2.313,5.813,4.4,8.807,6.47,3.041,2.105,6.131,4.143,9.32,6.019,6.346,3.734,13.276,7.074,20.65,8.052q1.015.135,2.04.2V5424.9s-35.3,2.9-38.437-17.886-27.79-25.621-27.79-25.621-24.654-2.477-23.687-20.574,6.768-23.416-3.867-37.435-20.786-12.548-16.436-30.444,4.22-19.83-1.032-28.531C-101.568,5258.83-97.412,5250.073-89.665,5248.836Z" transform="translate(99.38 -5248.689)" fill="#e8fe88"/>
    </g>
  </g>
</svg>
