<svg xmlns="http://www.w3.org/2000/svg" width="231.897" height="372.66" viewBox="0 0 231.897 372.66">
  <g id="グループ_170" data-name="グループ 170" transform="translate(-1134.103 -3808.554)">
    <g id="グループ_138" data-name="グループ 138" transform="translate(1134.103 3808.554)">
      <path id="パス_197" data-name="パス 197" d="M-3513.566-6451.324s-137.7,81.974-171.125-38.382c0,0-67.921,26.64-60.154-75.882,9.059-119.562,71.064-85.351,71.064-85.351s7.207-50.311,43.95-55.457c44.4-6.22,56.225,30.128,56.225,30.128s32.4-29.025,60.04,5.8Z" transform="translate(3745.464 6707.112)" fill="#00878d"/>
      <path id="パス_198" data-name="パス 198" d="M-2271.781-5508.936a21.645,21.645,0,0,1-21.645,21.645,21.645,21.645,0,0,1-21.645-21.645Z" transform="translate(2387.452 5606.294)" fill="#82d8c1"/>
      <path id="パス_199" data-name="パス 199" d="M-1835.47-5753.673a21.645,21.645,0,0,1,21.645-21.645,21.645,21.645,0,0,1,21.645,21.645Z" transform="translate(1868.88 5851.032)" fill="#c9f49f"/>
      <path id="パス_200" data-name="パス 200" d="M-2470.912-4969.754a21.645,21.645,0,0,1-21.645,21.645,21.645,21.645,0,0,1-21.645-21.645Z" transform="translate(2602.763 5110.924)" fill="#82d8c1"/>
      <path id="パス_201" data-name="パス 201" d="M-2034.6-5214.492a21.645,21.645,0,0,1,21.645-21.645,21.645,21.645,0,0,1,21.645,21.645Z" transform="translate(2084.193 5355.662)" fill="#c9f49f"/>
      <path id="パス_202" data-name="パス 202" d="M-2783.117-4368.563a21.645,21.645,0,0,1-21.645,21.645,21.645,21.645,0,0,1-21.645-21.645Z" transform="translate(2940.337 4558.583)" fill="#82d8c1"/>
      <path id="パス_203" data-name="パス 203" d="M-2346.807-4613.3a21.645,21.645,0,0,1,21.645-21.645,21.645,21.645,0,0,1,21.645,21.645Z" transform="translate(2421.765 4803.32)" fill="#c9f49f"/>
      <path id="パス_204" data-name="パス 204" d="M-2982.25-3829.38a21.645,21.645,0,0,1-21.645,21.645,21.645,21.645,0,0,1-21.645-21.645Z" transform="translate(3155.65 4063.211)" fill="#82d8c1"/>
      <path id="パス_205" data-name="パス 205" d="M-2545.938-4074.118a21.645,21.645,0,0,1,21.645-21.645,21.645,21.645,0,0,1,21.645,21.645Z" transform="translate(2637.077 4307.949)" fill="#c9f49f"/>
      <path id="パス_206" data-name="パス 206" d="M-3278.836-5858.591a21.645,21.645,0,0,1-21.645,21.645,21.645,21.645,0,0,1-21.645-21.645Z" transform="translate(3476.335 5927.538)" fill="#82d8c1"/>
      <path id="パス_207" data-name="パス 207" d="M-2842.524-6103.329a21.645,21.645,0,0,1,21.645-21.645,21.645,21.645,0,0,1,21.645,21.645Z" transform="translate(2957.763 6172.275)" fill="#c9f49f"/>
      <path id="パス_208" data-name="パス 208" d="M-3477.967-5319.409a21.645,21.645,0,0,1-21.645,21.645,21.645,21.645,0,0,1-21.645-21.645Z" transform="translate(3691.646 5432.167)" fill="#82d8c1"/>
      <path id="パス_209" data-name="パス 209" d="M-3041.656-5564.146a21.645,21.645,0,0,1,21.645-21.646,21.645,21.645,0,0,1,21.645,21.646Z" transform="translate(3173.075 5676.905)" fill="#c9f49f"/>
      <path id="パス_210" data-name="パス 210" d="M-3582.907-4513.843a21.645,21.645,0,0,1-21.645,21.646,21.645,21.645,0,0,1-21.645-21.646Z" transform="translate(3805.113 4692.058)" fill="#82d8c1"/>
      <path id="パス_211" data-name="パス 211" d="M-3146.6-4758.581a21.645,21.645,0,0,1,21.645-21.645,21.645,21.645,0,0,1,21.645,21.645Z" transform="translate(3286.542 4936.796)" fill="#c9f49f"/>
    </g>
    <g id="グループ_139" data-name="グループ 139" transform="translate(1240 4027.421)">
      <path id="パス_197-2" data-name="パス 197" d="M-3619.464-6568.131s-74.82,44.54-92.98-20.855c0,0-36.9,14.475-32.684-41.229,4.922-64.964,38.612-46.375,38.612-46.375s3.916-27.336,23.88-30.133c24.125-3.379,30.549,16.37,30.549,16.37s17.6-15.771,32.623,3.154Z" transform="translate(3745.464 6707.113)" fill="#b6ff41"/>
      <path id="パス_198-2" data-name="パス 198" d="M-2291.551-5508.936a11.761,11.761,0,0,1-11.76,11.761,11.761,11.761,0,0,1-11.761-11.761Z" transform="translate(2354.399 5561.835)" fill="#42d1ab"/>
      <path id="パス_199-2" data-name="パス 199" d="M-1835.47-5763.558a11.76,11.76,0,0,1,11.761-11.761,11.76,11.76,0,0,1,11.761,11.761Z" transform="translate(1853.623 5816.457)" fill="#6db526"/>
      <path id="パス_200-2" data-name="パス 200" d="M-2490.681-4969.754a11.761,11.761,0,0,1-11.76,11.761,11.761,11.761,0,0,1-11.761-11.761Z" transform="translate(2562.321 5046.458)" fill="#42d1ab"/>
      <path id="パス_201-2" data-name="パス 201" d="M-2034.6-5224.376a11.761,11.761,0,0,1,11.76-11.761,11.761,11.761,0,0,1,11.761,11.761Z" transform="translate(2061.547 5301.08)" fill="#6db526"/>
      <path id="パス_202-2" data-name="パス 202" d="M-2802.886-4368.563a11.76,11.76,0,0,1-11.761,11.761,11.76,11.76,0,0,1-11.761-11.761Z" transform="translate(2888.31 4471.809)" fill="#42d1ab"/>
      <path id="パス_203-2" data-name="パス 203" d="M-2346.807-4623.185a11.761,11.761,0,0,1,11.761-11.761,11.761,11.761,0,0,1,11.761,11.761Z" transform="translate(2387.535 4726.431)" fill="#6db526"/>
      <path id="パス_204-2" data-name="パス 204" d="M-3002.019-3829.38a11.761,11.761,0,0,1-11.761,11.761,11.761,11.761,0,0,1-11.761-11.761Z" transform="translate(3096.234 3956.431)" fill="#42d1ab"/>
      <path id="パス_205-2" data-name="パス 205" d="M-2545.938-4084a11.761,11.761,0,0,1,11.761-11.761A11.761,11.761,0,0,1-2522.417-4084Z" transform="translate(2595.458 4211.053)" fill="#6db526"/>
      <path id="パス_206-2" data-name="パス 206" d="M-3298.6-5858.591a11.761,11.761,0,0,1-11.761,11.761,11.761,11.761,0,0,1-11.761-11.761Z" transform="translate(3405.914 5896.053)" fill="#42d1ab"/>
      <path id="パス_207-2" data-name="パス 207" d="M-2842.524-6113.213a11.761,11.761,0,0,1,11.761-11.761A11.761,11.761,0,0,1-2819-6113.213Z" transform="translate(2905.138 6150.675)" fill="#6db526"/>
      <path id="パス_208-2" data-name="パス 208" d="M-3497.736-5319.409a11.761,11.761,0,0,1-11.761,11.761,11.761,11.761,0,0,1-11.761-11.761Z" transform="translate(3613.837 5380.676)" fill="#42d1ab"/>
      <path id="パス_209-2" data-name="パス 209" d="M-3041.656-5574.031a11.761,11.761,0,0,1,11.761-11.761,11.761,11.761,0,0,1,11.76,11.761Z" transform="translate(3113.062 5635.298)" fill="#6db526"/>
      <path id="パス_210-2" data-name="パス 210" d="M-3602.676-4513.843a11.761,11.761,0,0,1-11.761,11.761,11.761,11.761,0,0,1-11.761-11.761Z" transform="translate(3723.41 4610.675)" fill="#42d1ab"/>
      <path id="パス_211-2" data-name="パス 211" d="M-3146.6-4768.466a11.76,11.76,0,0,1,11.761-11.76,11.76,11.76,0,0,1,11.76,11.76Z" transform="translate(3222.635 4865.297)" fill="#6db526"/>
    </g>
  </g>
</svg>
