<svg xmlns="http://www.w3.org/2000/svg" width="231.897" height="372.66" viewBox="0 0 231.897 372.66">
  <g id="グループ_171" data-name="グループ 171" transform="translate(0 -3716.554)">
    <g id="グループ_136" data-name="グループ 136" transform="translate(3745.464 10423.667)">
      <path id="パス_197" data-name="パス 197" d="M-3745.464-6451.324s137.7,81.974,171.125-38.382c0,0,67.921,26.64,60.154-75.882-9.059-119.562-71.064-85.351-71.064-85.351s-7.207-50.311-43.95-55.457c-44.4-6.22-56.225,30.128-56.225,30.128s-32.4-29.025-60.04,5.8Z" transform="translate(0 0)" fill="#00878d"/>
      <path id="パス_198" data-name="パス 198" d="M-2315.072-5508.936a21.645,21.645,0,0,0,21.645,21.645,21.645,21.645,0,0,0,21.645-21.645Z" transform="translate(-1314.165 -1100.818)" fill="#82d8c1"/>
      <path id="パス_199" data-name="パス 199" d="M-1792.18-5753.673a21.645,21.645,0,0,0-21.645-21.645,21.645,21.645,0,0,0-21.645,21.645Z" transform="translate(-1754.797 -856.081)" fill="#c9f49f"/>
      <path id="パス_200" data-name="パス 200" d="M-2514.2-4969.754a21.645,21.645,0,0,0,21.645,21.645,21.645,21.645,0,0,0,21.645-21.645Z" transform="translate(-1131.215 -1596.189)" fill="#82d8c1"/>
      <path id="パス_201" data-name="パス 201" d="M-1991.312-5214.492a21.645,21.645,0,0,0-21.645-21.645,21.645,21.645,0,0,0-21.645,21.645Z" transform="translate(-1571.845 -1351.451)" fill="#c9f49f"/>
      <path id="パス_202" data-name="パス 202" d="M-2826.408-4368.563a21.645,21.645,0,0,0,21.645,21.645,21.645,21.645,0,0,0,21.645-21.645Z" transform="translate(-844.378 -2148.53)" fill="#82d8c1"/>
      <path id="パス_203" data-name="パス 203" d="M-2303.517-4613.3a21.645,21.645,0,0,0-21.645-21.645,21.645,21.645,0,0,0-21.645,21.645Z" transform="translate(-1285.009 -1903.792)" fill="#c9f49f"/>
      <path id="パス_204" data-name="パス 204" d="M-3025.54-3829.38a21.645,21.645,0,0,0,21.645,21.645,21.645,21.645,0,0,0,21.645-21.645Z" transform="translate(-661.426 -2643.902)" fill="#82d8c1"/>
      <path id="パス_205" data-name="パス 205" d="M-2502.648-4074.118a21.645,21.645,0,0,0-21.645-21.645,21.645,21.645,0,0,0-21.645,21.645Z" transform="translate(-1102.058 -2399.163)" fill="#c9f49f"/>
      <path id="パス_206" data-name="パス 206" d="M-3322.126-5858.591a21.645,21.645,0,0,0,21.645,21.645,21.645,21.645,0,0,0,21.645-21.645Z" transform="translate(-388.94 -779.575)" fill="#82d8c1"/>
      <path id="パス_207" data-name="パス 207" d="M-2799.234-6103.329a21.645,21.645,0,0,0-21.645-21.645,21.645,21.645,0,0,0-21.645,21.645Z" transform="translate(-829.571 -534.837)" fill="#c9f49f"/>
      <path id="パス_208" data-name="パス 208" d="M-3521.257-5319.409a21.645,21.645,0,0,0,21.645,21.645,21.645,21.645,0,0,0,21.645-21.645Z" transform="translate(-205.989 -1274.945)" fill="#82d8c1"/>
      <path id="パス_209" data-name="パス 209" d="M-2998.366-5564.146a21.645,21.645,0,0,0-21.645-21.646,21.645,21.645,0,0,0-21.645,21.646Z" transform="translate(-646.62 -1030.207)" fill="#c9f49f"/>
      <path id="パス_210" data-name="パス 210" d="M-3626.2-4513.843a21.645,21.645,0,0,0,21.645,21.646,21.645,21.645,0,0,0,21.645-21.646Z" transform="translate(-109.576 -2015.055)" fill="#82d8c1"/>
      <path id="パス_211" data-name="パス 211" d="M-3103.306-4758.581a21.645,21.645,0,0,0-21.645-21.645,21.645,21.645,0,0,0-21.645,21.645Z" transform="translate(-550.207 -1770.317)" fill="#c9f49f"/>
    </g>
    <g id="グループ_137" data-name="グループ 137" transform="translate(3745.464 10642.534)">
      <path id="パス_197-2" data-name="パス 197" d="M-3745.464-6568.131s74.82,44.54,92.98-20.855c0,0,36.9,14.475,32.684-41.229-4.922-64.964-38.612-46.375-38.612-46.375s-3.916-27.336-23.88-30.133c-24.125-3.379-30.549,16.37-30.549,16.37s-17.6-15.771-32.623,3.154Z" transform="translate(0)" fill="#b6ff41"/>
      <path id="パス_198-2" data-name="パス 198" d="M-2315.072-5508.936a11.761,11.761,0,0,0,11.76,11.761,11.761,11.761,0,0,0,11.761-11.761Z" transform="translate(-1367.241 -1145.278)" fill="#42d1ab"/>
      <path id="パス_199-2" data-name="パス 199" d="M-1811.949-5763.558a11.76,11.76,0,0,0-11.761-11.761,11.76,11.76,0,0,0-11.761,11.761Z" transform="translate(-1825.669 -890.656)" fill="#6db526"/>
      <path id="パス_200-2" data-name="パス 200" d="M-2514.2-4969.754a11.761,11.761,0,0,0,11.76,11.761,11.761,11.761,0,0,0,11.761-11.761Z" transform="translate(-1176.901 -1660.655)" fill="#42d1ab"/>
      <path id="パス_201-2" data-name="パス 201" d="M-2011.081-5224.376a11.761,11.761,0,0,0-11.76-11.761,11.761,11.761,0,0,0-11.761,11.761Z" transform="translate(-1635.328 -1406.033)" fill="#6db526"/>
      <path id="パス_202-2" data-name="パス 202" d="M-2826.408-4368.563a11.76,11.76,0,0,0,11.761,11.761,11.76,11.76,0,0,0,11.761-11.761Z" transform="translate(-878.48 -2235.304)" fill="#42d1ab"/>
      <path id="パス_203-2" data-name="パス 203" d="M-2323.285-4623.185a11.761,11.761,0,0,0-11.761-11.761,11.761,11.761,0,0,0-11.761,11.761Z" transform="translate(-1336.907 -1980.682)" fill="#6db526"/>
      <path id="パス_204-2" data-name="パス 204" d="M-3025.54-3829.38a11.761,11.761,0,0,0,11.761,11.761,11.761,11.761,0,0,0,11.761-11.761Z" transform="translate(-688.14 -2750.682)" fill="#42d1ab"/>
      <path id="パス_205-2" data-name="パス 205" d="M-2522.417-4084a11.761,11.761,0,0,0-11.761-11.761A11.761,11.761,0,0,0-2545.938-4084Z" transform="translate(-1146.568 -2496.06)" fill="#6db526"/>
      <path id="パス_206-2" data-name="パス 206" d="M-3322.126-5858.591a11.761,11.761,0,0,0,11.761,11.761,11.761,11.761,0,0,0,11.761-11.761Z" transform="translate(-404.648 -811.06)" fill="#42d1ab"/>
      <path id="パス_207-2" data-name="パス 207" d="M-2819-6113.213a11.761,11.761,0,0,0-11.761-11.761,11.761,11.761,0,0,0-11.761,11.761Z" transform="translate(-863.076 -556.438)" fill="#6db526"/>
      <path id="パス_208-2" data-name="パス 208" d="M-3521.257-5319.409a11.761,11.761,0,0,0,11.761,11.761,11.761,11.761,0,0,0,11.761-11.761Z" transform="translate(-214.308 -1326.437)" fill="#42d1ab"/>
      <path id="パス_209-2" data-name="パス 209" d="M-3018.135-5574.031a11.761,11.761,0,0,0-11.761-11.761,11.761,11.761,0,0,0-11.76,11.761Z" transform="translate(-672.735 -1071.815)" fill="#6db526"/>
      <path id="パス_210-2" data-name="パス 210" d="M-3626.2-4513.843a11.761,11.761,0,0,0,11.761,11.761,11.761,11.761,0,0,0,11.761-11.761Z" transform="translate(-114.001 -2096.438)" fill="#42d1ab"/>
      <path id="パス_211-2" data-name="パス 211" d="M-3123.075-4768.466a11.76,11.76,0,0,0-11.761-11.76,11.76,11.76,0,0,0-11.76,11.76Z" transform="translate(-572.428 -1841.815)" fill="#6db526"/>
    </g>
  </g>
</svg>
