<svg id="グループ_159" data-name="グループ 159" xmlns="http://www.w3.org/2000/svg" width="218.397" height="612.364" viewBox="0 0 218.397 612.364">
  <g id="グループ_156" data-name="グループ 156" transform="translate(0 342.848)">
    <path id="パス_137" data-name="パス 137" d="M-6916.162-492.841s43.342-4.609,17.413-48.188-23.724-67,6.74-70.56,46.171,35.331,51.658,7.38,33.778-30.365,48.3,12.076,30.149-5.068,51.658,12.747c16.609,13.756,16.609,49.392,16.609,49.392v107.53s-36.064,94.662-62.229,59.43c-18.577-25.015-29.511-5.094-40.253-1-20.067,7.655-46.782,8.728-45.611-20.8,0,0,0-37.57-34.9-37.57C-6933.938-422.4-6965.808-474.057-6916.162-492.841Z" transform="translate(6942.177 624.693)" fill="#0d3853"/>
    <path id="パス_136" data-name="パス 136" d="M-4629.194,3334.3v106.1s-35.044,62.851-77.268.464c-15.417-22.78-50.044,1.964-65.659-32.684-8.37-18.573.752-42.124,14.866-61.653,14.488-20.046-5.582-27.718,9.621-53.78,5.666-9.714,28.331-18.618,44.277-2.067,7.379,7.658,18.438,31.579,34.961,22.419C-4634.721,3294.438-4629.194,3334.3-4629.194,3334.3Z" transform="translate(4847.591 -3206.319)" fill="#1ca8c9"/>
    <path id="パス_138" data-name="パス 138" d="M-4686.384,3313.626V3378.2s-21.329,38.254-47.028.282c-9.384-13.865-30.458,1.2-39.963-19.893-5.094-11.3.458-25.638,9.048-37.525,8.818-12.2-3.4-16.87,5.855-32.732,3.449-5.912,17.244-11.332,26.949-1.259,4.491,4.661,11.222,19.22,21.279,13.645C-4689.748,3289.361-4686.384,3313.626-4686.384,3313.626Z" transform="translate(4904.781 -3225.42)" fill="#58dae5"/>
    <path id="パス_139" data-name="パス 139" d="M-6785.993-3997.964h-6.269a12.328,12.328,0,0,1,12.328-12.327h3.189c-8.533-20.4-17.624-21.2-17.624-21.2s8.923-1.051,17.932,10.361a12.333,12.333,0,0,1,11.8-8.768h6.269a12.328,12.328,0,0,1-12.328,12.327h-3.209a60.852,60.852,0,0,1,4.166,7.691,65.127,65.127,0,0,1,2.83,7.657,12.332,12.332,0,0,1,11.57-8.066h6.268a12.327,12.327,0,0,1-12.326,12.327h-4.254c1.332,4.7,2.63,9.734,4.264,14.673a12.329,12.329,0,0,1,11.3-7.391h6.269a12.327,12.327,0,0,1-12.327,12.327h-3.464c2.387,6.071,5.5,11.779,10.065,16.3a12.334,12.334,0,0,1,7.667-12.517l5.812-2.347h0a12.326,12.326,0,0,1-6.814,16.046l-3.634,1.467c4.739,3.639,10.812,6.151,18.771,6.913a12.33,12.33,0,0,1,.181-15.3l3.947-4.869h0a12.328,12.328,0,0,1,1.813,17.339l-2.47,3.047a66.035,66.035,0,0,0,7.482-.219v7.333a49.614,49.614,0,0,1-21.942-1.116,12.333,12.333,0,0,1-5.713,12.97l-5.364,3.242a12.327,12.327,0,0,1,4.173-16.926l1.831-1.107a38.349,38.349,0,0,1-15.982-12.908,12.331,12.331,0,0,1-11.256,7.293h-6.268a12.327,12.327,0,0,1,12.327-12.327h2.047a60.741,60.741,0,0,1-5.888-16.965q-.177-.881-.357-1.741a12.325,12.325,0,0,1-10.808,6.394h-6.268a12.327,12.327,0,0,1,12.327-12.327h3.412a144.263,144.263,0,0,0-4.257-14.5A12.326,12.326,0,0,1-6785.993-3997.964Z" transform="translate(6935.185 4166.278)" fill="#0d3853"/>
    <path id="パス_140" data-name="パス 140" d="M-6789.895-4013.594h-3.348a6.585,6.585,0,0,1,6.585-6.585h1.7c-4.559-10.9-9.415-11.327-9.415-11.327s4.767-.562,9.579,5.535a6.589,6.589,0,0,1,6.307-4.684h3.348a6.585,6.585,0,0,1-6.585,6.585h-1.714a32.49,32.49,0,0,1,2.225,4.108,34.78,34.78,0,0,1,1.513,4.091,6.586,6.586,0,0,1,6.181-4.309h3.348a6.585,6.585,0,0,1-6.585,6.585h-2.272c.712,2.513,1.405,5.2,2.277,7.838a6.587,6.587,0,0,1,6.035-3.948h3.349a6.585,6.585,0,0,1-6.585,6.585h-1.851a24.76,24.76,0,0,0,5.377,8.708,6.59,6.59,0,0,1,4.1-6.687l3.105-1.253h0a6.587,6.587,0,0,1-3.641,8.572l-1.941.783a18.963,18.963,0,0,0,10.027,3.693,6.588,6.588,0,0,1,.1-8.173l2.109-2.6h0a6.586,6.586,0,0,1,.968,9.262l-1.319,1.628a35.326,35.326,0,0,0,4-.117v3.917a26.5,26.5,0,0,1-11.722-.6,6.587,6.587,0,0,1-3.052,6.929l-2.865,1.732a6.585,6.585,0,0,1,2.229-9.042l.979-.591a20.49,20.49,0,0,1-8.538-6.9,6.587,6.587,0,0,1-6.013,3.9h-3.348a6.585,6.585,0,0,1,6.584-6.585h1.094a32.451,32.451,0,0,1-3.145-9.063q-.1-.471-.191-.93a6.583,6.583,0,0,1-5.773,3.416h-3.348a6.585,6.585,0,0,1,6.585-6.585h1.822a77.031,77.031,0,0,0-2.273-7.746A6.585,6.585,0,0,1-6789.895-4013.594Z" transform="translate(6971.322 4117.378)" fill="#1ca8c9"/>
  </g>
  <g id="グループ_157" data-name="グループ 157" transform="translate(62.37)">
    <g id="グループ_69" data-name="グループ 69" transform="translate(0 0)">
      <path id="パス_152" data-name="パス 152" d="M56.647,5432.136v60.378S7.657,5496.54,3.3,5467.692s-38.567-35.556-38.567-35.556-34.214-3.437-32.873-28.553,9.392-32.5-5.367-51.951-28.847-17.415-22.81-42.251,5.856-27.52-1.433-39.6,10.825-34.885,33.635-12.076,1.342,29.049,9.392,43.037,19.455,9.958,28.177,17.34-5.367,28.677,0,40.839,19.52,8.336,28.081,14.751,2.69,21.828,11.247,29.907,17.01-3.321,29.867,0S56.647,5432.136,56.647,5432.136Z" transform="translate(99.38 -5247.97)" fill="#77e5ff"/>
      <path id="パス_153" data-name="パス 153" d="M-85.9,5248.836a21.308,21.308,0,0,1,3.286,2.271c5.818,4.894,9.157,12.227,11.575,19.269,2.915,8.488,4.667,17.344,6.267,26.158,1.515,8.349,2.764,16.768,4.732,25.026a80.18,80.18,0,0,0,2.993,9.745c2.06,5.463,3.992,10.976,5.954,16.475,3.814,10.687,7.645,21.377,12.127,31.806a178.257,178.257,0,0,0,15.855,29.721A120.135,120.135,0,0,0,0,5434.857c3.908,3.21,8.067,6.1,12.223,8.979,4.22,2.922,8.509,5.749,12.934,8.352,8.807,5.182,18.425,9.818,28.658,11.174q1.409.187,2.83.275v29.539S7.657,5497.2,3.3,5468.354-35.263,5432.8-35.263,5432.8s-34.214-3.437-32.873-28.553,9.392-32.5-5.367-51.952-28.847-17.414-22.81-42.25,5.856-27.52-1.433-39.6C-102.417,5262.706-96.649,5250.552-85.9,5248.836Z" transform="translate(99.38 -5248.632)" fill="#0d3853"/>
    </g>
    <g id="グループ_70" data-name="グループ 70" transform="translate(63.354 8.008)">
      <path id="パス_152-2" data-name="パス 152" d="M-6.707,5357.357v35.862s-29.1,2.391-31.683-14.744S-61.3,5357.357-61.3,5357.357s-20.322-2.042-19.525-16.96,5.579-19.3-3.188-30.856-17.134-10.343-13.548-25.1,3.478-16.345-.851-23.518,6.43-20.72,19.977-7.172.8,17.254,5.578,25.562,11.556,5.915,16.736,10.3-3.188,17.033,0,24.256,11.594,4.951,16.679,8.762,1.6,12.965,6.68,17.763,10.1-1.973,17.74,0S-6.707,5357.357-6.707,5357.357Z" transform="translate(99.38 -5247.97)" fill="#3dbec9"/>
      <path id="パス_153-2" data-name="パス 153" d="M-91.372,5248.836a12.685,12.685,0,0,1,1.952,1.349c3.455,2.906,5.439,7.263,6.875,11.445a105.844,105.844,0,0,1,3.722,15.537c.9,4.959,1.642,9.959,2.811,14.865a47.644,47.644,0,0,0,1.778,5.788c1.224,3.245,2.371,6.519,3.536,9.785,2.265,6.347,4.541,12.7,7.2,18.891a105.873,105.873,0,0,0,9.417,17.653,71.366,71.366,0,0,0,13.726,15.176c2.321,1.906,4.792,3.624,7.26,5.333,2.506,1.735,5.054,3.415,7.682,4.961,5.231,3.078,10.943,5.831,17.021,6.637q.837.111,1.681.164v17.544s-29.1,2.391-31.683-14.744S-61.3,5358.1-61.3,5358.1s-20.322-2.042-19.525-16.96,5.579-19.3-3.188-30.856-17.134-10.344-13.548-25.1,3.478-16.346-.851-23.518C-101.184,5257.074-97.758,5249.856-91.372,5248.836Z" transform="translate(99.38 -5248.715)" fill="#0d3853"/>
    </g>
    <g id="グループ_71" data-name="グループ 71" transform="translate(43.599 195.388)">
      <path id="パス_152-3" data-name="パス 152" d="M13.047,5380.673v43.507s-35.3,2.9-38.437-17.886-27.79-25.621-27.79-25.621-24.654-2.476-23.687-20.574,6.768-23.415-3.867-37.434-20.786-12.548-16.436-30.445,4.22-19.83-1.032-28.531,7.8-25.137,24.236-8.7S-73,5275.92-67.2,5286s14.019,7.175,20.3,12.494-3.867,20.664,0,29.427,14.066,6.007,20.235,10.629,1.938,15.729,8.1,21.55,12.257-2.393,21.521,0S13.047,5380.673,13.047,5380.673Z" transform="translate(99.38 -5247.97)" fill="#0d3853"/>
      <path id="パス_153-3" data-name="パス 153" d="M-89.665,5248.836a15.335,15.335,0,0,1,2.368,1.636c4.192,3.526,6.6,8.811,8.341,13.884a128.425,128.425,0,0,1,4.516,18.849c1.092,6.016,1.992,12.082,3.41,18.033a57.781,57.781,0,0,0,2.157,7.022c1.485,3.937,2.876,7.909,4.29,11.871,2.748,7.7,5.509,15.4,8.738,22.918a128.444,128.444,0,0,0,11.425,21.416,86.559,86.559,0,0,0,16.651,18.411c2.816,2.313,5.813,4.4,8.807,6.47,3.041,2.105,6.131,4.143,9.32,6.019,6.346,3.734,13.276,7.074,20.65,8.052q1.015.135,2.04.2V5424.9s-35.3,2.9-38.437-17.886-27.79-25.621-27.79-25.621-24.654-2.477-23.687-20.574,6.768-23.416-3.867-37.435-20.786-12.548-16.436-30.444,4.22-19.83-1.032-28.531C-101.568,5258.83-97.412,5250.073-89.665,5248.836Z" transform="translate(99.38 -5248.689)" fill="#58dae5"/>
    </g>
  </g>
</svg>
