<svg xmlns="http://www.w3.org/2000/svg" xmlns:xlink="http://www.w3.org/1999/xlink" width="222.888" height="154.196" viewBox="0 0 222.888 154.196">
  <defs>
    <filter id="パス_41" x="0" y="36.201" width="222.888" height="117.995" filterUnits="userSpaceOnUse">
      <feOffset input="SourceAlpha"/>
      <feGaussianBlur stdDeviation="5" result="blur"/>
      <feFlood flood-opacity="0.161"/>
      <feComposite operator="in" in2="blur"/>
      <feComposite in="SourceGraphic"/>
    </filter>
  </defs>
  <g id="グループ_169" data-name="グループ 169" transform="translate(-579.664 -24.507)">
    <g transform="matrix(1, 0, 0, 1, 579.66, 24.51)" filter="url(#パス_41)">
      <path id="パス_41-2" data-name="パス 41" d="M-640.824,1070.406a7.576,7.576,0,0,1-4.349-8.8,27.511,27.511,0,0,0,.787-6.552,27.456,27.456,0,0,0-23.246-27.129.712.712,0,0,1-.576-.505,27.462,27.462,0,0,0-26.38-19.837,27.447,27.447,0,0,0-7.73,1.105.719.719,0,0,1-.879-.449A20.027,20.027,0,0,0-721.937,995a20.074,20.074,0,0,0-20.121,19.917c0,.051,0,.1,0,.152a.717.717,0,0,1-.911.695,20.054,20.054,0,0,0-5.781-.741,20.069,20.069,0,0,0-19.662,20.107,20,20,0,0,0,.921,5.926.717.717,0,0,1-.691.933h-.229a20.5,20.5,0,0,0-20.5,20.5,20.427,20.427,0,0,0,1.745,8.288,4.418,4.418,0,0,1-2.3,5.837l-14.79,6.379h192.888Z" transform="translate(819.26 -943.8)" fill="#fff"/>
    </g>
    <g id="logo" transform="translate(416.544 -461.908)">
      <g id="グループ_5" data-name="グループ 5" transform="translate(200.874 486.415)">
        <g id="グループ_1" data-name="グループ 1" transform="translate(0 97.034)">
          <path id="パス_1" data-name="パス 1" d="M210.966,634.559a75.8,75.8,0,0,1-2.9,8.422,73.281,73.281,0,0,1-4.665,9.159l-2.529-1.253c.588-1.179,1.545-3.388,2.309-5.083,1.742-4,1.914-4.42,3.461-8.227.81-2.013,1.253-3.019,1.669-3.953Zm7.537,1.915a114.158,114.158,0,0,1,5.279,14.193l-2.577.957c-1.178-2.382-2.161-4.862-3.093-7.342-.835-2.283-1.572-4.616-2.259-6.95Z" transform="translate(-200.874 -632.005)" fill="#1a1311"/>
          <path id="パス_2" data-name="パス 2" d="M252.308,637.641a56.969,56.969,0,0,1-1.793,7.612A63.834,63.834,0,0,1,247.4,652.3l-2.7-1.007c2.308-6.335,2.553-7.047,3.708-10.582.393-1.228.884-2.7,1.153-3.709Zm5.157-6.434c.122,3.242.173,6.483.173,9.724,0,1.155-.076,6.188-.076,7.219,3.119-1.1,7.514-2.406,8.152-2.578l.86,2.578a47.316,47.316,0,0,1-12.056,4.1c-.025-.588-.05-1.055-.05-1.669-.051-2.381-.147-7.66-.147-9.821,0-.54.147-8.177.221-9.552Z" transform="translate(-215.328 -631.207)" fill="#1a1311"/>
          <path id="パス_3" data-name="パス 3" d="M295.578,639.388a69.546,69.546,0,0,1-3.916,8.031c.617-.131,1.122-.22,1.848-.352l.506,2.157a53.346,53.346,0,0,1-7.041,1.781l-.507-2.135c.617-.22,1.122-.373,2.069-.659,1.539-3.323,3.189-6.6,5.015-9.793Zm-1.21-6.161a45.142,45.142,0,0,1-3.894,5.215,9.046,9.046,0,0,1,1.519,1.386l-1.5,1.8a25.536,25.536,0,0,1-3.345-2.816,56.014,56.014,0,0,1,5.349-6.954Zm.682,17.362a24.512,24.512,0,0,1-1.276-4.665l2.179-.55a31.037,31.037,0,0,1,1.055,3.829c.771-2.751,1.542-5.523,2.289-8.274-.176,0-1.166.044-2.772.066l.021-2.243c1.364-.155,1.454-.176,3.435-.332.548-1.956,1.208-4.4,1.758-6.489l2.246.4c-.419,2.575-.551,3.344-1.145,5.919,2.245-.089,2.949-.11,4.709-.089a53.535,53.535,0,0,1-2.134,13.18,31.485,31.485,0,0,1-4.577-.682l.462-2.112c.814.044,1.167.066,2.069.177.527-3.3.814-4.886,1.429-8.141-.682.066-.857.088-2.574.2a84.487,84.487,0,0,1-3.521,10.715l-2.177-.616c.132-.462.153-.527.22-.726Z" transform="translate(-229.106 -631.423)" fill="#1a1311"/>
          <path id="パス_4" data-name="パス 4" d="M340.146,645.142c.468-.021.767-.064,1.58-.107.019-.745.019-1.174.042-1.707h2.093c0,.214,0,.342.04,1.622.407,0,.77-.021,1.856,0v1.921c-.383.043-.639.043-1.834.129,0,.426.023,1.131,0,1.28,1.131-.021,1.429-.021,1.941-.021v1.877c-1.131.109-1.578.13-1.964.151,0,.384-.021,1.194-.021,1.537,1.195-.021,1.323-.042,2.412-.064h.236v2.07c-3.159.193-6.32.321-9.478.3-.043-2.709-.064-3.67-.064-6.722,0-.554.043-3.073.043-3.585-.726,1.025-1.11,1.558-1.408,1.964l-1.773-1.2c.085-.15.407-.661.6-1-.148.021-1.194.106-1.216.106.044,3.543.022,7.066-.084,10.587h-2.3c-.086-3.052-.086-3.138-.086-6.082a32.048,32.048,0,0,1-3.033,2.518l-1.278-1.708a41.018,41.018,0,0,1,4.331-3.842l.022-1.323c-.492.021-2.626.106-3.075.106V641.9c1.6-.15,2.5-.213,3.119-.256.019-.448.086-2.5.1-2.9h2.177c0,.277,0,.534.064,2.776.982-.044,1.366-.044,1.793-.044v1.259c2.349-3.67,3.115-4.844,5.8-8.451l1.793,1.174c-1.024,1.62-2.071,3.307-3.351,5.207,2.541-.215,5.124-.32,7.707-.341v2.112c-2.244.15-4.463.256-7.513.386.042,1.749.061,3.5.061,5.229,0,.682,0,2.219-.042,3.99.3-.021.492-.021,2.327-.128,0-.3-.023-.683-.042-1.537H340.1v-1.9c.339-.021,1.195-.085,1.6-.107v-1.3h-1.557ZM326.828,637.4a88.345,88.345,0,0,1,9.3-2.925l.618,1.985c-3.755,1.346-6.124,2.114-9.282,2.988Zm9.178,9.838a1.252,1.252,0,0,1-1.281,1.3,1.447,1.447,0,0,1-1.452-1.5,1.223,1.223,0,0,1,1.344-1.259A1.477,1.477,0,0,1,336.006,647.233Zm9.474-9.006a1.687,1.687,0,0,1-1.643,1.579,1.47,1.47,0,0,1-1.513-1.472,1.592,1.592,0,0,1,1.622-1.558A1.5,1.5,0,0,1,345.48,638.227Z" transform="translate(-242.291 -632.22)" fill="#1a1311"/>
          <path id="パス_5" data-name="パス 5" d="M370.263,631.969c.162,7.156.257,10.944.233,17.96,3.2-.188,8.512-.375,13.8-.375-.093-3.812-.21-8.536-.165-15.13-4.278.21-8.6.4-12.885.515v-2.386c7.016-.561,12.606-.584,15.6-.608.116,4.654.162,8.067.162,12.488,0,2.386-.046,5.074-.07,7.46-6.408.281-12.816.422-19.2.492-.094-2.9-.211-6.969-.211-12.161,0-2.736.023-5.471.094-8.208Zm7.506,14.171c.025,1.38.025,1.637-.048,2.946h-2.269a17.478,17.478,0,0,1-.069-1.917c-.795.515-1.614,1.006-3.134,1.9l-.982-1.568c2.01-1.473,2.83-2.011,3.857-2.666-1.449.07-1.612.07-1.87.07-.023-.421-.069-.958-.069-1.941,0-.772.023-1.5.046-1.894l2.059-.024c.07.889.07,1.005.093,2.291,1.521-.069,1.872-.092,3.508-.139a5.473,5.473,0,0,1-.025-.772c-1.636.094-1.8.117-3.063.164V641.16a51.886,51.886,0,0,1,5.356-.257c.047,1.169.071,2.362.047,3.531a1.282,1.282,0,0,1,.913-.35,1.268,1.268,0,0,1,1.285,1.239,1.182,1.182,0,0,1-1.216,1.169,1.275,1.275,0,0,1-1.356-1.169,1.2,1.2,0,0,1,.28-.771c-1.029.046-1.145.07-2.128.117-.56.421-1.38.982-2.08,1.472Zm3.695-8.489c-1.287.094-2.291.141-2.736.164v.818c1.17-.047,2.174-.07,4.208-.117l.025,1.5c-5.215.375-7.11.422-11.18.538v-1.519c1.45-.117,1.732-.14,4.351-.3,0-.117-.025-.677-.025-.794-.655.023-2.056.094-3.343.141v-1.358c1.777-.14,2.432-.186,3.321-.233,0-.3,0-.467.022-1.122l2.5-.094c.048.655.048.8.071,1.122.07,0,1.614-.07,2.783-.07Zm.375,11.389a30.588,30.588,0,0,1-3.741-2.525l1.076-1.451a30.394,30.394,0,0,1,3.811,2.5Z" transform="translate(-255.842 -631.451)" fill="#1a1311"/>
        </g>
        <g id="グループ_2" data-name="グループ 2" transform="translate(9.947 124.654)">
          <path id="パス_6" data-name="パス 6" d="M218.858,677.982q.251,0,.251.22c0,.146-.084.22-.251.22h-2.89c-.168,0-.251-.074-.251-.22s.084-.22.251-.22Z" transform="translate(-215.717 -674.255)" fill="#474645"/>
          <path id="パス_7" data-name="パス 7" d="M230.427,673.281c0-.21.094-.314.283-.314s.282.1.282.314v.6l1.885-.063q.282,0,.283.251t-.283.251l-1.885.063v1.979c.084.357.147.639.189.848a3.876,3.876,0,0,1,.032.534,2.061,2.061,0,0,1-.88,1.728,4.19,4.19,0,0,1-2.545.659q-.22-.031-.22-.22a.228.228,0,0,1,.22-.251,3.708,3.708,0,0,0,2.074-.5,1.477,1.477,0,0,0,.754-1.257v-.471a1.761,1.761,0,0,1-1.508.911,1.564,1.564,0,0,1-1.7-1.57,1.724,1.724,0,0,1,.471-1.163,1.668,1.668,0,0,1,.911-.471,1.6,1.6,0,0,1,.629,0,1.864,1.864,0,0,1,1.005.566v-1.288q-2.2.094-4.178.126c-.146,0-.22-.084-.22-.251s.074-.251.22-.251q2.074-.032,4.178-.126Zm-2.23,2.67a1.251,1.251,0,0,0-.283.754,1.134,1.134,0,0,0,.408.911,1.17,1.17,0,0,0,.754.251,1.3,1.3,0,0,0,.911-.345,1.126,1.126,0,0,0,.346-.754,1.279,1.279,0,0,0-.22-.754,1.222,1.222,0,0,0-1.005-.471A1.2,1.2,0,0,0,228.2,675.951Z" transform="translate(-219.118 -672.6)" fill="#474645"/>
          <path id="パス_8" data-name="パス 8" d="M238.289,673.006a.252.252,0,0,1,.251.314q-.22,1.35-.314,2.2-.062.723-.062,1.413a22.2,22.2,0,0,0,.125,2.388.273.273,0,0,1-.251.314q-.251.03-.314-.283a17.842,17.842,0,0,1-.094-1.822q0-.911.031-1.665.031-.786.314-2.608A.252.252,0,0,1,238.289,673.006Zm4.052.125a.283.283,0,0,1,.566,0l.031,1.068,1.1-.031a.273.273,0,0,1,.314.251q0,.251-.283.251l-1.131.031q.094,1.476.094,2.859a7.137,7.137,0,0,1,1.32.974.389.389,0,0,1,.063.5.342.342,0,0,1-.471,0,6.321,6.321,0,0,0-.943-.848,1.622,1.622,0,0,1-.565,1.194,2.346,2.346,0,0,1-1.383.377,2.108,2.108,0,0,1-1.225-.346,1.341,1.341,0,0,1-.566-1.1,1.225,1.225,0,0,1,.534-1.005,2.318,2.318,0,0,1,1.288-.346,3.69,3.69,0,0,1,1.445.377q-.031-1.414-.125-2.608-2.042.063-3.079.063-.282,0-.283-.251t.283-.251h.754q1.32-.031,2.293-.063Zm-2.482,4.681a.833.833,0,0,0-.188.5.849.849,0,0,0,.408.723,2.018,2.018,0,0,0,2.105-.094,1.48,1.48,0,0,0,.314-1.068,3.086,3.086,0,0,0-1.413-.472A1.6,1.6,0,0,0,239.86,677.813Zm3.424-5.215a.193.193,0,0,1,.251.062,3.587,3.587,0,0,1,.5,1.037.178.178,0,0,1-.125.22.2.2,0,0,1-.251-.125,8.881,8.881,0,0,0-.44-.974A.161.161,0,0,1,243.284,672.6Zm.754-.157a.194.194,0,0,1,.251.063,3.141,3.141,0,0,1,.5,1.037.178.178,0,0,1-.125.22.2.2,0,0,1-.251-.126,9,9,0,0,0-.44-.974A.161.161,0,0,1,244.038,672.441Z" transform="translate(-222.945 -672.42)" fill="#474645"/>
          <path id="パス_9" data-name="パス 9" d="M249.372,674.6a.3.3,0,0,1,.345-.22.264.264,0,0,1,.189.345q-.22.848-.346,1.539a6.037,6.037,0,0,0-.095.974,7.737,7.737,0,0,1,1.6-.974,4.356,4.356,0,0,1,1.539-.283,2.7,2.7,0,0,1,1.947.691,1.543,1.543,0,0,1,.471,1.131,1.815,1.815,0,0,1-.565,1.382,4.017,4.017,0,0,1-2.8.817,12.081,12.081,0,0,1-1.6-.094.229.229,0,0,1-.22-.251q0-.22.251-.22.754.063,1.476.063a3.677,3.677,0,0,0,2.45-.722,1.318,1.318,0,0,0,.377-.974,1.074,1.074,0,0,0-.44-.88,2.134,2.134,0,0,0-1.383-.408,3.688,3.688,0,0,0-1.382.251,5.739,5.739,0,0,0-.785.408q-.628.44-1.005.723-.377.219-.471-.22v-.314a16.71,16.71,0,0,1,.345-2.356Zm4.209-.817a.3.3,0,0,1,.22.346.256.256,0,0,1-.345.22,17.176,17.176,0,0,0-3.456-.66c-.125-.042-.188-.115-.188-.22,0-.125.073-.2.22-.22A18.418,18.418,0,0,1,253.581,673.782Z" transform="translate(-226.673 -672.693)" fill="#474645"/>
          <path id="パス_10" data-name="パス 10" d="M260.355,673.765q.031-.282.283-.283c.209,0,.3.105.283.314q-.126,2.136-.157,3.456v.44a1.829,1.829,0,0,0,.471,1.35,1.746,1.746,0,0,0,1.288.44,2.905,2.905,0,0,0,2.074-.88,6.456,6.456,0,0,0,1.225-1.791.323.323,0,0,1,.377-.22q.283.094.157.44a7.954,7.954,0,0,1-1.225,1.822,3.507,3.507,0,0,1-2.576,1.162,2.341,2.341,0,0,1-1.728-.6,2.207,2.207,0,0,1-.6-1.634v-1.037Z" transform="translate(-230.399 -672.77)" fill="#474645"/>
          <path id="パス_11" data-name="パス 11" d="M270.92,673.669c.209,0,.3.1.282.314q-.093.691-.157,1.162a12.2,12.2,0,0,0-.157,1.791,7.676,7.676,0,0,0,.062,1.005,2.006,2.006,0,0,0,.472,1.288.251.251,0,0,0,.377.031,5.317,5.317,0,0,0,.942-2.262.228.228,0,0,1,.283-.157q.22.063.158.314l-.032.157a7.041,7.041,0,0,1-.754,2.073q-.409.628-.785.629-.44-.032-.817-.722a5.257,5.257,0,0,1-.408-2.388q0-.691.062-1.571.063-.754.157-1.382C270.647,673.742,270.753,673.648,270.92,673.669Zm4.178.157a.277.277,0,0,1,.346.063,6.749,6.749,0,0,1,1.194,2.388,10.439,10.439,0,0,1,.345,2.827.345.345,0,1,1-.691,0,11.31,11.31,0,0,0-.283-2.764A7.506,7.506,0,0,0,275,674.171.253.253,0,0,1,275.1,673.825Z" transform="translate(-233.749 -672.831)" fill="#474645"/>
          <path id="パス_12" data-name="パス 12" d="M282.7,672.936q.251.157.063.471a8.792,8.792,0,0,1-.754,1.1q1.131,0,2.073-.063-.282-.44-.6-.88a.169.169,0,0,1,.031-.251.214.214,0,0,1,.283.031,5.679,5.679,0,0,1,1.036,1.288q.189.282-.062.44-.22.094-.377-.157l-.094-.126a20.515,20.515,0,0,1-3.079.189.194.194,0,0,1-.158-.22c0-.126.042-.2.126-.22a2.3,2.3,0,0,1,.377-.031,12.892,12.892,0,0,0,.723-1.319Q282.447,672.81,282.7,672.936Zm1.194,2.607a.541.541,0,0,1,.5.5v3.393a.546.546,0,0,1-.6.6,4.048,4.048,0,0,1-.911-.094c-.147-.043-.209-.126-.188-.251.042-.147.147-.2.314-.157a2,2,0,0,0,.722.062q.22-.031.22-.22V678.4h-2.042v1.445c0,.168-.073.251-.22.251s-.22-.084-.22-.251v-3.8a.541.541,0,0,1,.5-.5Zm-1.979.629v.6h2.042v-.6a.222.222,0,0,0-.251-.251h-1.539A.222.222,0,0,0,281.912,676.171Zm0,1.854h2.042v-.88h-2.042Zm3.393-4.9q0-.251.22-.251c.146,0,.22.084.22.251v.974a6.017,6.017,0,0,0,1.728-.628q.346-.189.471.062.094.283-.251.409a8.658,8.658,0,0,1-1.948.6v.911a.222.222,0,0,0,.251.251h1.382a.444.444,0,0,0,.5-.5v-.44c0-.168.074-.251.22-.251s.22.084.22.251v.628a.666.666,0,0,1-.754.754h-1.759a.539.539,0,0,1-.5-.5Zm0,3.581q0-.251.22-.251c.146,0,.22.084.22.251v1.068a5.329,5.329,0,0,0,1.791-.6q.314-.189.44.032t-.22.44a5.567,5.567,0,0,1-2.011.565v1.1a.222.222,0,0,0,.251.251h1.35a.444.444,0,0,0,.5-.5v-.408q0-.251.22-.251c.146,0,.22.084.22.251v.629a.639.639,0,0,1-.722.722h-1.759a.541.541,0,0,1-.5-.5Z" transform="translate(-237.271 -672.569)" fill="#474645"/>
          <path id="パス_13" data-name="パス 13" d="M295.609,673.328q0-.313.283-.314c.189,0,.283.1.283.314v1.1h2.859a.541.541,0,0,1,.5.5v2.293a3.666,3.666,0,0,1-.534,2.419,1.555,1.555,0,0,1-1.131.346,6.655,6.655,0,0,1-1.916-.314c-.188-.063-.283-.157-.283-.283q0-.282.409-.188a8.9,8.9,0,0,0,1.853.251.94.94,0,0,0,.691-.283,3.266,3.266,0,0,0,.346-1.947v-2.1a.222.222,0,0,0-.251-.251h-2.576a6.306,6.306,0,0,1-2.764,4.964q-.251.157-.408,0-.157-.22.125-.409a5.974,5.974,0,0,0,2.482-4.555h-2.231q-.251,0-.251-.22t.251-.22h2.262Z" transform="translate(-241.179 -672.616)" fill="#474645"/>
          <path id="パス_14" data-name="パス 14" d="M306.554,673.106a.3.3,0,0,1,.346-.188.265.265,0,0,1,.188.346,4.8,4.8,0,0,1-.157.5q1.633-.063,3.329-.221a.252.252,0,0,1,.314.251q0,.251-.283.283-2.387.126-3.518.157a6.509,6.509,0,0,1-.817,1.539,7.979,7.979,0,0,1,1.288-.6,2.282,2.282,0,0,1,.66-.094,1.249,1.249,0,0,1,.816.283,1.413,1.413,0,0,1,.409.942q.785-.219,1.539-.44a.3.3,0,0,1,.345.22.256.256,0,0,1-.22.346q-.848.22-1.6.408v1.32q0,.315-.283.314c-.189,0-.283-.1-.283-.314v-1.131a7,7,0,0,0-2.482,1.162.858.858,0,0,0-.346.6.586.586,0,0,0,.408.534,4.5,4.5,0,0,0,1.351.126q.88,0,1.508-.063a11.052,11.052,0,0,0,1.32-.188.3.3,0,0,1,.314.251.292.292,0,0,1-.22.314,8.785,8.785,0,0,1-1.633.188c-.712.02-1.173.031-1.383.031a3.186,3.186,0,0,1-1.728-.346.992.992,0,0,1-.44-.785,1.311,1.311,0,0,1,.534-1.037,8.8,8.8,0,0,1,2.764-1.35.824.824,0,0,0-.942-.88,2.733,2.733,0,0,0-1.131.314,6.7,6.7,0,0,0-1.791,1.351.248.248,0,0,1-.377-.031.289.289,0,0,1,.031-.377,7.522,7.522,0,0,0,1.1-1.225,6.331,6.331,0,0,0,.692-1.35h-1.539c-.189,0-.283-.084-.283-.251s.094-.251.283-.251h1.7Z" transform="translate(-244.935 -672.583)" fill="#474645"/>
          <path id="パス_15" data-name="パス 15" d="M317,673.5a.361.361,0,0,1,.409.408v4.587a.361.361,0,0,1-.409.408h-1.162a.361.361,0,0,1-.408-.408v-4.587a.361.361,0,0,1,.408-.408Zm-1.131.6v4.21a.139.139,0,0,0,.157.157h.785a.139.139,0,0,0,.158-.157V674.1a.139.139,0,0,0-.158-.157h-.785A.139.139,0,0,0,315.866,674.1Zm5.623-1.131q.282.062.188.44a4.665,4.665,0,0,1-.534,1.131h.848q.251,0,.251.22c0,.146-.084.22-.251.22h-1.822v1.633h2.073c.168,0,.251.074.251.22s-.084.221-.251.221h-2.073a4.428,4.428,0,0,0,2.042,2.419q.314.157.22.44-.157.219-.5.063a5.109,5.109,0,0,1-1.947-2.136,5.059,5.059,0,0,1-2.8,2.262c-.23.083-.377.052-.44-.094-.042-.147.031-.263.22-.346q2.45-1.1,2.7-2.607h-1.7q-.251,0-.251-.221c0-.146.084-.22.251-.22h1.759v-1.633H318.1c-.168,0-.251-.074-.251-.22s.084-.22.251-.22h.722a8.735,8.735,0,0,0-.408-1.068q-.126-.251.063-.377c.146-.062.272-.01.377.158a6.744,6.744,0,0,1,.566,1.288h1.225a6.449,6.449,0,0,0,.534-1.32C321.216,673.029,321.321,672.945,321.489,672.965Z" transform="translate(-248.605 -672.599)" fill="#474645"/>
          <path id="パス_16" data-name="パス 16" d="M329.095,673.275a.255.255,0,0,1,.345-.22c.168.042.241.136.22.282q-.126.5-.283,1.005.816-.093,1.037-.094a1.573,1.573,0,0,1,1.162.44,2.872,2.872,0,0,1,.534,1.979,6.667,6.667,0,0,1-.314,2.168,1.3,1.3,0,0,1-1.32,1.005,2.3,2.3,0,0,1-.848-.189,3.089,3.089,0,0,1-.817-.471.2.2,0,0,1-.063-.283q.063-.126.251-.062a3.289,3.289,0,0,0,1.383.471.949.949,0,0,0,.848-.629,4.561,4.561,0,0,0,.314-1.947,2.987,2.987,0,0,0-.283-1.6,1.013,1.013,0,0,0-.848-.408,8.459,8.459,0,0,0-1.163.157,24.135,24.135,0,0,1-.974,2.8,17.042,17.042,0,0,1-.879,1.854.324.324,0,0,1-.44.125.332.332,0,0,1-.094-.44,12.972,12.972,0,0,0,.942-1.791,22.7,22.7,0,0,0,.879-2.45q-.691.062-1.413.125-.314,0-.346-.251c0-.189.105-.293.314-.314q.754-.032,1.571-.126Q328.969,673.841,329.095,673.275Zm3.079.44a.312.312,0,0,1,.377,0,6.19,6.19,0,0,1,1.037,1.571,4.827,4.827,0,0,1,.408,1.57.3.3,0,0,1-.283.346q-.282.031-.345-.283a6.091,6.091,0,0,0-.377-1.508,4.749,4.749,0,0,0-.816-1.35A.269.269,0,0,1,332.174,673.715Z" transform="translate(-252.362 -672.626)" fill="#474645"/>
          <path id="パス_17" data-name="パス 17" d="M344.089,675.275v.754a2.806,2.806,0,0,1-.283,1.571.893.893,0,0,1-.722.345,3.169,3.169,0,0,1-1.445-.408.259.259,0,0,1-.094-.377q.094-.157.314-.062a5.943,5.943,0,0,0,.6.22,1.838,1.838,0,0,0,.5.062q.345,0,.44-.22a2.408,2.408,0,0,0,.125-.911v-.942l-3.487.251v2.2a1.9,1.9,0,0,0,.346,1.288,1.472,1.472,0,0,0,1.131.377q1.037,0,2.074-.094a8.64,8.64,0,0,0,.911-.126.3.3,0,0,1,.346.283.308.308,0,0,1-.283.314q-.911.094-1.853.125h-1.194a1.927,1.927,0,0,1-1.6-.565,2.636,2.636,0,0,1-.44-1.728v-2.041l-1.036.062a.228.228,0,0,1-.251-.22.256.256,0,0,1,.251-.283l1.036-.062V673.83q0-.315.283-.314c.189,0,.283.1.283.314v1.225l3.487-.251v-1.383c0-.209.094-.314.283-.314s.283.105.283.314v1.351l1.068-.063c.209-.021.314.063.314.251,0,.147-.105.231-.314.251Z" transform="translate(-256.111 -672.647)" fill="#474645"/>
          <path id="パス_18" data-name="パス 18" d="M353.662,673.234q0-.315.283-.314t.283.314v.659l2.1-.094q.251,0,.251.283a.222.222,0,0,1-.251.251l-2.1.063v1.162l2.1-.094c.168,0,.251.094.251.283a.222.222,0,0,1-.251.251l-2.073.062v1.728a10.685,10.685,0,0,1,2.167,1.256.324.324,0,0,1,.031.471.347.347,0,0,1-.44,0,14.989,14.989,0,0,0-1.759-1.163,1.8,1.8,0,0,1-.6,1.256,2.279,2.279,0,0,1-1.508.409,2.085,2.085,0,0,1-1.476-.471,1.336,1.336,0,0,1-.44-.943,1.318,1.318,0,0,1,.44-1.005,2.079,2.079,0,0,1,1.35-.408,4.76,4.76,0,0,1,1.665.377v-1.477l-1.728.032h-1.759c-.189,0-.283-.084-.283-.251s.094-.251.283-.251h1.728l1.728-.032v-1.162l-1.728.031h-1.728c-.189,0-.283-.084-.283-.251s.094-.251.283-.251h1.728l1.728-.032Zm-2.545,4.649a.815.815,0,0,0-.377.66.952.952,0,0,0,.377.754,1.878,1.878,0,0,0,1.131.282,1.557,1.557,0,0,0,1.1-.377,1.505,1.505,0,0,0,.346-1.1,4.58,4.58,0,0,0-1.728-.471A1.5,1.5,0,0,0,351.118,677.883Z" transform="translate(-259.983 -672.585)" fill="#474645"/>
          <path id="パス_19" data-name="パス 19" d="M365.427,673.281c0-.21.094-.314.283-.314s.282.1.282.314v.6l1.885-.063q.282,0,.283.251t-.283.251l-1.885.063v1.979c.084.357.147.639.189.848a3.872,3.872,0,0,1,.032.534,2.061,2.061,0,0,1-.88,1.728,4.19,4.19,0,0,1-2.545.659c-.147-.021-.22-.094-.22-.22a.228.228,0,0,1,.22-.251,3.708,3.708,0,0,0,2.073-.5,1.477,1.477,0,0,0,.754-1.257v-.471a1.761,1.761,0,0,1-1.508.911,1.564,1.564,0,0,1-1.7-1.57,1.724,1.724,0,0,1,.471-1.163,1.668,1.668,0,0,1,.911-.471,1.6,1.6,0,0,1,.629,0,1.864,1.864,0,0,1,1.005.566v-1.288q-2.2.094-4.178.126c-.146,0-.22-.084-.22-.251s.074-.251.22-.251q2.074-.032,4.178-.126Zm-2.23,2.67a1.25,1.25,0,0,0-.283.754,1.134,1.134,0,0,0,.408.911,1.17,1.17,0,0,0,.754.251,1.3,1.3,0,0,0,.911-.345,1.126,1.126,0,0,0,.346-.754,1.279,1.279,0,0,0-.22-.754,1.222,1.222,0,0,0-1.005-.471A1.2,1.2,0,0,0,363.2,675.951Z" transform="translate(-263.646 -672.6)" fill="#474645"/>
          <path id="パス_20" data-name="パス 20" d="M379.827,677.982q.251,0,.251.22c0,.146-.084.22-.251.22h-2.89c-.168,0-.251-.074-.251-.22s.084-.22.251-.22Z" transform="translate(-268.81 -674.255)" fill="#474645"/>
        </g>
        <g id="グループ_4" data-name="グループ 4" transform="translate(33.383)">
          <g id="グループ_3" data-name="グループ 3">
            <path id="パス_21" data-name="パス 21" d="M264.376,493.193a34.21,34.21,0,0,1,5.526-3.482,27.318,27.318,0,0,1,11.928-3.3c7.619,0,14.21.685,20.9,4.705,4.746,2.85,9.152,6.531,11.925,11.39,5.961,10.449,7.559,24.384-.14,34.424-4.92,6.415-11.922,11.136-20.38,9.892-12.19-1.793-18.2-17.888-8.558-26.284a15.563,15.563,0,0,1,10.471-3.971c3.953-.014,8.745,2,10.681,5.615v.7c0-1.223-5.881-2.894-6.852-3.046a13.872,13.872,0,0,0-7.636,1.027,10.812,10.812,0,0,0-5.064,14.612,11.27,11.27,0,0,0,5.943,5.115c5.76,2.055,11.639-1.766,14.894-6.334a23.679,23.679,0,0,0,2.558-4.52,24.665,24.665,0,0,0-.741-21.111,29.231,29.231,0,0,0-8.916-9.874,26.308,26.308,0,0,0-8.815-3.725c-10.225-2.311-21.395-.045-28.883,7.712a19.546,19.546,0,0,0-4.309,6.751c-2.094,5.877-2.777,14.1-1.209,20.149a28.393,28.393,0,0,0,13.711,17.662c1.982,1.042,4.28,1.363,6.082,2.76-3.015-6.025-7.586-11.311-7.586-18.411v-4.208c.121-1.867.582-3.395.7-5.261.519.066.322.847.351,1.4-.506,9.506,2.655,15.348,6.312,20.691,1.613,3.434,6.124,5.775,7.015,8.768-.016.115-8.005-.6-8.719-.673-9.9-1.006-18.508-8.98-21.967-18.01a50.661,50.661,0,0,1-2.356-8.311,31.122,31.122,0,0,1,.491-13.864A35.582,35.582,0,0,1,264.376,493.193Z" transform="translate(-250.687 -486.415)" fill="#83a227" fill-rule="evenodd"/>
            <path id="パス_22" data-name="パス 22" d="M298.618,516.214a35.23,35.23,0,0,0-11.923,2.1c1.524-7.029,3.72-15.191,12.625-13.677.664,1.008.387,3.5,0,4.559,2.6-.375,5.99-1.9,8.417-.349a10.156,10.156,0,0,1,.351,3.857v.35c-.472,1.4-1.693,2.047-2.8,2.807h-.352C302.939,516.092,300.028,515.4,298.618,516.214Z" transform="translate(-262.564 -492.366)" fill="#f4954d" fill-rule="evenodd"/>
            <path id="パス_23" data-name="パス 23" d="M266.452,520.021c-2.415-4.452,1.649-7.735,5.963-7.716.783-4.016,4.077-9.1,8.768-5.961.931,4.7-3.129,7.053-2.807,12.273C274.341,517.485,270.7,521.354,266.452,520.021Z" transform="translate(-255.649 -492.666)" fill="#8cb05b" fill-rule="evenodd"/>
            <path id="パス_24" data-name="パス 24" d="M283.555,533.719a32.684,32.684,0,0,1,1.753-7.013c3.878-1.049,11.9-4.028,15.081-.351-.049,4.745-4.341,5.247-9.12,5.26h-.351v4.56c.568,4.362-6.877,6.042-7.364,1.4Z" transform="translate(-261.528 -499)" fill="#004b9e" fill-rule="evenodd"/>
            <path id="パス_25" data-name="パス 25" d="M265.955,538.282c-1.43.09-1.732,1.309-3.507,1.053-2.2-8.371,6.3-11.867,14.029-12.626.4,1.62-.786,1.116-1.754,2.805a28.07,28.07,0,0,0-2.106,6.314c-.942,3.975-.415,9.288-3.856,9.819C264.7,546.274,264.062,541.724,265.955,538.282Z" transform="translate(-254.45 -499.706)" fill="#e45560" fill-rule="evenodd"/>
            <path id="パス_26" data-name="パス 26" d="M327.843,548.112a2.546,2.546,0,0,1-.111-2.529c.629-1.324,1.657-.781,1.864.425C329.786,547.116,329.338,549.095,327.843,548.112Z" transform="translate(-276.006 -505.677)" fill="#0d0c0c" fill-rule="evenodd"/>
            <path id="パス_27" data-name="パス 27" d="M310.767,554.8v-1.4c.282.067.349.352.7.351.524,6.131,11.708,5.851,11.924-.351.284.067.35.352.7.351C324.137,561.352,311.7,561.883,310.767,554.8Z" transform="translate(-270.504 -508.509)" fill="#0d0c0c" fill-rule="evenodd"/>
            <path id="パス_28" data-name="パス 28" d="M329.659,549.759a1.136,1.136,0,0,1,.073-.186c.763-1.58,3.187-.915,2.475.907a1.37,1.37,0,0,1-2.3.431A1.2,1.2,0,0,1,329.659,549.759Z" transform="translate(-276.718 -506.954)" fill="#e6aa06" fill-rule="evenodd"/>
            <path id="パス_29" data-name="パス 29" d="M309.55,548.781c.639.43,1.136,1.351.838,1.96-.458.934-1.765.636-2.407.123-1.015-.811-.524-2.121.772-2.311A1.159,1.159,0,0,1,309.55,548.781Z" transform="translate(-269.405 -506.908)" fill="#e6aa06" fill-rule="evenodd"/>
            <path id="パス_30" data-name="パス 30" d="M311.488,548.288a1.241,1.241,0,0,1-.337-.21c-.546-.454-.447-1.836-.263-2.433.211-.692.938-1.519,1.661-.832.563.535.372,1.7.247,2.382C312.663,547.9,312.153,548.554,311.488,548.288Z" transform="translate(-270.495 -505.592)" fill="#0d0c0c" fill-rule="evenodd"/>
          </g>
        </g>
      </g>
      <g id="グループ_6" data-name="グループ 6" transform="translate(223.308 564.324)">
        <path id="パス_31" data-name="パス 31" d="M235.425,604.306a9.6,9.6,0,0,0-.512-1.134l1.269-.418a7.619,7.619,0,0,1,.638,1.551h1.025a9.8,9.8,0,0,0-.47-1.263l1.277-.375a10.168,10.168,0,0,1,.546,1.637h.764a10.545,10.545,0,0,0,.5-1.594l1.352.375a9.724,9.724,0,0,1-.479,1.22h.807v2.643h-1.067v.578a9.5,9.5,0,0,1-1.739,1.284h3.007v1.456h-3.318v1.53c0,.653-.3,1.1-.815,1.1H236.4l-.21-1.551h1.21c.227,0,.3-.032.3-.407v-.674H234.35v-1.456H237.7v-.535h.328a2.3,2.3,0,0,0,.781-.568h-3.184v-.76h-1.075v-2.643Zm5.469,1.4h-5.083v.588h5.083Z" transform="translate(-234.35 -602.669)" fill="#1a1311"/>
        <path id="パス_32" data-name="パス 32" d="M246.71,608.87a6.827,6.827,0,0,0,.958-2.847h-.823v-1.466h.958v-1.777h1.143v1.777h.747v1.466h-.747v.664a9.159,9.159,0,0,0,1.1,1.777l-.546,1.456a6.762,6.762,0,0,1-.554-1.124v4.12H247.8V608.9a10.294,10.294,0,0,1-.739,2.1Zm2.554,2.547a5.357,5.357,0,0,0,2.025-1.124,11.118,11.118,0,0,1-.958-2.472c-.05.032-.076.064-.168.139l-.706-1.242a5.522,5.522,0,0,0,1.429-1.637h-1.168v-1.445H251.6v-.856h1.252v.856h1.932v1.445h-3.873l.966.771a7.437,7.437,0,0,1-1.5,1.926l1.05-.525a8.614,8.614,0,0,0,.773,1.927,6.808,6.808,0,0,0,.714-1.958l1.118.545a8.324,8.324,0,0,1-1.487-1.926c.353-.257.773-.578,1.041-.749a7.349,7.349,0,0,0,1.361,1.531l-.621,1.391a2.458,2.458,0,0,1-.253-.214,8.177,8.177,0,0,1-1.033,2.483,5.528,5.528,0,0,0,1.915,1.08l-.6,1.552a6.151,6.151,0,0,1-2.218-1.466,5.622,5.622,0,0,1-2.243,1.466Z" transform="translate(-238.427 -602.706)" fill="#1a1311"/>
        <path id="パス_33" data-name="パス 33" d="M261.741,609.218a18.44,18.44,0,0,1-1.688,3.66l-.807-1.487a18.125,18.125,0,0,0,1.521-3.093Zm-1.806-3.788a6.017,6.017,0,0,1,1.478,1.123l-.731,1.338a6.265,6.265,0,0,0-1.4-1.167Zm.243-2.7a6.728,6.728,0,0,1,1.5,1.049l-.756,1.349a6.874,6.874,0,0,0-1.436-1.156Zm4.176,5.7c-.253.889-.521,1.755-.832,2.612.126,0,1.639-.129,1.865-.15a11.592,11.592,0,0,0-.68-1.423l1.058-.685a15.843,15.843,0,0,1,1.58,3.521l-1.184.717c-.068-.214-.092-.321-.244-.749-1.126.192-3.192.364-4.343.417l-.151-1.552c.21-.011.655-.032.73-.032a19.441,19.441,0,0,0,.8-2.675H261.6v-1.5h2.226v-1.37h-1.907v-1.52h1.907v-1.263H265.1v1.263h1.924v1.52H265.1v1.37h2.21v1.5Z" transform="translate(-242.562 -602.69)" fill="#1a1311"/>
        <path id="パス_34" data-name="パス 34" d="M275.226,602.812h1.361v1.659a12.006,12.006,0,0,0,.773,3.906A6.018,6.018,0,0,0,280,611.384l-.84,1.552a8.386,8.386,0,0,1-3.251-5.019,8.437,8.437,0,0,1-3.276,5.019l-.848-1.519a6.059,6.059,0,0,0,2.756-3.254,10.708,10.708,0,0,0,.688-3.692Z" transform="translate(-246.696 -602.716)" fill="#1a1311"/>
        <path id="パス_35" data-name="パス 35" d="M296.3,603.372v9.406h-6.771v-9.406Zm-5.452,3.852h4.107v-2.258h-4.107Zm0,1.563v2.4h4.107v-2.4Z" transform="translate(-252.551 -602.901)" fill="#1a1311"/>
        <path id="パス_36" data-name="パス 36" d="M302.936,610.154a8.993,8.993,0,0,1-1.252,1.413l-.731-1.616a9.732,9.732,0,0,0,2.915-4.109h-2.8V604.29h3.343v-1.541h1.269v1.541h3.352v1.552h-2.823a9.454,9.454,0,0,0,2.957,4.077l-.739,1.648a8.211,8.211,0,0,1-1.269-1.391v1.049h-1.5v1.734h-1.244v-1.734h-1.478Zm1.478-.428v-2.247a10.688,10.688,0,0,1-1.183,2.247Zm2.437,0a11.924,11.924,0,0,1-1.193-2.247v2.247Z" transform="translate(-256.318 -602.695)" fill="#1a1311"/>
        <path id="パス_37" data-name="パス 37" d="M317.168,611.444a4.629,4.629,0,0,0,1.764-1.551,9.176,9.176,0,0,1-.545-1.862c-.1.172-.194.332-.252.439l-.74-1.5c.068-.107.092-.149.118-.192h-.857c-.067.1-.168.235-.428.556H317.5v1.124a5.658,5.658,0,0,1-.941.963c.756-.074,1.117-.139,1.4-.182V610.6c-.42.086-.781.129-1.446.214v.952c0,.278,0,1.145-.689,1.145h-1.352l-.193-1.4h.873c.227,0,.227-.128.227-.267v-.31c-.159.011-1.672.139-1.739.16l-.076-1.466c.05,0,1.647-.1,1.815-.107v-.407h.218a2.625,2.625,0,0,0,.428-.546h-.982a7.316,7.316,0,0,1-.975.717l-.554-1.327a5.228,5.228,0,0,0,1.588-1.177H313.64v-1.37h1.328v-.568H313.8v-1.348h1.168v-.738h1.142v.738h.874v.513a10.478,10.478,0,0,0,.411-1.092l1,.631a13.886,13.886,0,0,1-.874,1.862h.4v.535a12.046,12.046,0,0,0,.773-3.21l1.193.086c-.05.438-.084.8-.168,1.284h1.849v1.637h-.353a13.174,13.174,0,0,1-.815,4.152,6.5,6.5,0,0,0,1.319,1.423l-.756,1.594a8.343,8.343,0,0,1-1.344-1.659,7.787,7.787,0,0,1-1.663,1.648Zm-1.159-6.678v.642h.285a6.636,6.636,0,0,0,.4-.642Zm3.352.974c-.1.31-.143.45-.2.6a8.828,8.828,0,0,0,.5,2.108,8.019,8.019,0,0,0,.4-2.707Z" transform="translate(-260.461 -602.69)" fill="#1a1311"/>
        <path id="パス_38" data-name="パス 38" d="M332.887,606.95a6.922,6.922,0,0,0-.529-.643c-.386.054-3.578.332-5.88.353L326.4,605.3c.2.011,1.218.011,1.445.011.143-.267.2-.375.344-.674H326.2V603.3h3.318v-.567H330.8v.567h3.369v1.338h-1.58a11.755,11.755,0,0,1,1.478,1.38l-1.083.932h.319v4.987c0,.856-.462.984-.765.984h-1.73l-.218-1.38h1.226c.143,0,.21-.011.21-.225V611h-3.7v1.916h-1.277V606.95Zm-.856,1.08h-3.7v.482h3.7Zm0,1.488h-3.7v.493h3.7Zm-.756-4.88H329.6c-.059.1-.311.556-.361.653.58,0,1.319-.053,1.9-.1-.151-.107-.185-.139-.345-.246Z" transform="translate(-264.645 -602.69)" fill="#1a1311"/>
        <path id="パス_39" data-name="パス 39" d="M342.047,609.828v.5h-.462a15.256,15.256,0,0,1,.84,1.82l-1.058.653a9.952,9.952,0,0,0-.706-1.958l.773-.514h-2.1l.924.514a6.681,6.681,0,0,1-.823,2.076l-.924-.909a5.583,5.583,0,0,0,.714-1.681H338.9V603h3.15v6.41a12.658,12.658,0,0,0,2.159-3.307h-1.941V604.52h2.361v-1.755h1.293v1.755h.7V606.1h-.7v5.426c0,.6,0,1.391-.848,1.391h-1.689l-.243-1.616h1.076c.318,0,.411-.043.411-.471v-3.061a13.383,13.383,0,0,1-2.025,3.264Zm-2.008-5.393v.706h.848v-.706Zm0,1.852v.727h.848v-.727Zm0,1.915v.717h.848V608.2Z" transform="translate(-268.706 -602.701)" fill="#1a1311"/>
        <path id="パス_40" data-name="パス 40" d="M359.065,603.26v9.524h-7.318V603.26Zm-6.066,1.5v6.517h4.839v-6.517Zm4.083,5.33c0,.674-.361.909-.815.909H355.05l-.151-1.37h.756c.236,0,.253-.161.253-.289v-2.055h-2.663V605.9h2.663v-.856h1.175v.856h.521v1.381h-.521Zm-2.772-2.707a11.407,11.407,0,0,1,.925,1.851l-1.009.857a12,12,0,0,0-.857-1.947Z" transform="translate(-273.072 -602.864)" fill="#1a1311"/>
      </g>
    </g>
  </g>
</svg>
