<svg xmlns="http://www.w3.org/2000/svg" width="59.685" height="35.615" viewBox="0 0 59.685 35.615">
  <g id="グループ_168" data-name="グループ 168" transform="translate(-1107.157 -78.385)">
    <g id="グループ_29" data-name="グループ 29" transform="translate(1109.157 78.385)">
      <path id="パス_76" data-name="パス 76" d="M-1466.336-100.614l-5.877.265-5.124.231a24.782,24.782,0,0,0-24.537-21.32h-19.871a24.778,24.778,0,0,0,24.778,24.778h17.194l3.116,4.876,3.168,4.957a2.175,2.175,0,0,0,3.763-.17l2.708-5.222,2.709-5.222A2.175,2.175,0,0,0-1466.336-100.614Z" transform="translate(1521.744 121.437)" fill="#3d8cc3"/>
      <path id="パス_77" data-name="パス 77" d="M-1497.2-111.123a1.6,1.6,0,0,0-2.217.413,1.6,1.6,0,0,0,.413,2.217,1.6,1.6,0,0,0,2.217-.413A1.6,1.6,0,0,0-1497.2-111.123Z" transform="translate(1505.372 113.984)" fill="#fff"/>
      <path id="パス_78" data-name="パス 78" d="M-1497.345-103.8a.476.476,0,0,1-.2-.305.478.478,0,0,1,.381-.559,5.508,5.508,0,0,0,3.807-2.259,6.081,6.081,0,0,0,.671-4.233.48.48,0,0,1,.341-.574,4.384,4.384,0,0,0,3.183-3.719,9.844,9.844,0,0,0,.111-3.05.478.478,0,0,1,.4-.544.478.478,0,0,1,.544.4c.01.063.873,6.142-3.571,7.706a6.8,6.8,0,0,1-.872,4.524,6.414,6.414,0,0,1-4.437,2.687A.476.476,0,0,1-1497.345-103.8Z" transform="translate(1503.776 119.662)" fill="#fff"/>
      <path id="パス_79" data-name="パス 79" d="M-1442.976-75.724l-1.666,3.523c-.474,1-2.283.914-3.257-.159l-3.42-3.773-3.42-3.772a1.277,1.277,0,0,1,1.066-2.256l5.086.249,5.086.249c1.447.071,2.664,1.413,2.19,2.416Z" transform="translate(1472.331 92.267)" fill="#fff"/>
    </g>
    <g id="グループ_30" data-name="グループ 30" transform="translate(1107.157 99.743)">
      <path id="パス_76-2" data-name="パス 76" d="M-1499.564-113.1l-2.353.106-2.051.093a9.92,9.92,0,0,0-9.822-8.534h-7.954a9.919,9.919,0,0,0,9.919,9.919h6.883l1.248,1.952,1.268,1.984a.871.871,0,0,0,1.506-.068l1.084-2.09,1.084-2.09A.871.871,0,0,0-1499.564-113.1Z" transform="translate(1521.744 121.437)" fill="#66acdd"/>
      <path id="パス_77-2" data-name="パス 77" d="M-1498.7-111.29a.638.638,0,0,0-.888.165.638.638,0,0,0,.165.888.638.638,0,0,0,.888-.165A.638.638,0,0,0-1498.7-111.29Z" transform="translate(1501.972 112.436)" fill="#fff"/>
      <path id="パス_78-2" data-name="パス 78" d="M-1497.469-112.943a.19.19,0,0,1-.08-.122.191.191,0,0,1,.153-.224,2.205,2.205,0,0,0,1.524-.9,2.434,2.434,0,0,0,.268-1.694.192.192,0,0,1,.137-.23,1.755,1.755,0,0,0,1.274-1.489,3.944,3.944,0,0,0,.045-1.221.191.191,0,0,1,.161-.218.191.191,0,0,1,.218.161c0,.025.349,2.458-1.429,3.085a2.721,2.721,0,0,1-.349,1.811,2.568,2.568,0,0,1-1.776,1.076A.191.191,0,0,1-1497.469-112.943Z" transform="translate(1500.044 119.293)" fill="#fff"/>
      <path id="パス_79-2" data-name="パス 79" d="M-1450.317-79.586l-.667,1.41c-.19.4-.914.366-1.3-.064l-1.369-1.51-1.369-1.51a.511.511,0,0,1,.427-.9l2.036.1,2.036.1c.579.028,1.066.566.877.967Z" transform="translate(1462.067 86.208)" fill="#fff"/>
    </g>
  </g>
</svg>
