<svg id="グループ_24" data-name="グループ 24" xmlns="http://www.w3.org/2000/svg" width="53.2" height="39" viewBox="0 0 53.2 39">
  <path id="パス_56" data-name="パス 56" d="M-1264.869-325.456l3.542,2.045,1.708.986a45.658,45.658,0,0,1,6.518-5.744,7.014,7.014,0,0,1,.1-2.746c.721-2.982,3.449-5.416,8.109-7.235,4.439-1.733,8.165-1.778,11.073-.133a10.713,10.713,0,0,1,4.519,5.488c4.752,1.67,9.751,5.117,14.794,11.168a2.45,2.45,0,0,1,0,3.138c-5.264,6.317-10.48,9.8-15.418,11.379a10.683,10.683,0,0,1-4.493,5.424,9.622,9.622,0,0,1-4.817,1.2,17.375,17.375,0,0,1-6.257-1.334c-4.66-1.819-7.388-4.253-8.109-7.235a7.134,7.134,0,0,1,0-3.257,45.908,45.908,0,0,1-6.018-5.379l-1.708.986-3.542,2.045a1.512,1.512,0,0,1-2.268-1.309v-8.18A1.512,1.512,0,0,1-1264.869-325.456Zm30.545-11.934c-2.627-1.486-6.057-1.42-10.2.2-4.326,1.688-6.843,3.88-7.483,6.513a5.81,5.81,0,0,0-.14,1.844c5.557-3.756,13.121-6.785,21.533-4.374A9.346,9.346,0,0,0-1234.324-337.39Zm-18.276,28.1c.64,2.633,3.158,4.825,7.483,6.513,4.134,1.614,7.562,1.681,10.188.2a9.338,9.338,0,0,0,3.708-4.161c-8.439,2.167-15.987-1.08-21.457-4.909A5.947,5.947,0,0,0-1252.6-309.286Z" transform="translate(1267.137 339.483)" fill="#3d8cc3"/>
  <path id="パス_57" data-name="パス 57" d="M-1239.917-234.8a1.243,1.243,0,0,1,1.244,1.243,1.244,1.244,0,0,1-1.244,1.243,1.243,1.243,0,0,1-1.243-1.243A1.243,1.243,0,0,1-1239.917-234.8Z" transform="translate(1288.067 250.138)" fill="#fff"/>
  <path id="パス_58" data-name="パス 58" d="M-1228.4-196.71a1.244,1.244,0,0,1,1.244,1.244,1.244,1.244,0,0,1-1.244,1.244,1.244,1.244,0,0,1-1.244-1.244A1.244,1.244,0,0,1-1228.4-196.71Z" transform="translate(1274.866 217.627)" fill="#fff"/>
  <path id="パス_59" data-name="パス 59" d="M-1207.523-244.807a.482.482,0,0,0,.328-.126.411.411,0,0,0,0-.612,4.831,4.831,0,0,1-1.812-3.631,5.384,5.384,0,0,1,1.792-3.5.412.412,0,0,0,.042-.6,3.741,3.741,0,0,1-.507-4.4,8.869,8.869,0,0,1,1.59-2.33.411.411,0,0,0-.023-.611.491.491,0,0,0-.658.021c-.042.042-4.082,4.132-1.376,7.57a5.96,5.96,0,0,0-1.791,3.819,5.62,5.62,0,0,0,2.082,4.272A.482.482,0,0,0-1207.523-244.807Z" transform="translate(1250.783 272.27)" fill="#fff"/>
  <path id="パス_60" data-name="パス 60" d="M-1110.687-192.868l1.543,2.974a1.239,1.239,0,0,0,2.143.1l1.8-2.823,1.8-2.823a1.239,1.239,0,0,0-.988-1.9l-3.347-.151-3.347-.151a1.239,1.239,0,0,0-1.156,1.808Z" transform="translate(1133.722 218.43)" fill="#fff"/>
  <path id="パス_61" data-name="パス 61" d="M-944.037-219.825a.22.22,0,0,0,.207-.147.219.219,0,0,0-.134-.28l-3.571-1.259a.22.22,0,0,0-.28.134.22.22,0,0,0,.134.28l3.571,1.259A.22.22,0,0,0-944.037-219.825Z" transform="translate(950.238 238.805)" fill="#fff"/>
  <path id="パス_62" data-name="パス 62" d="M-943.365-207.313a.22.22,0,0,0,.139-.213.22.22,0,0,0-.228-.211l-3.784.144a.219.219,0,0,0-.211.228.22.22,0,0,0,.228.211l3.784-.144A.221.221,0,0,0-943.365-207.313Z" transform="translate(949.591 227.038)" fill="#fff"/>
  <path id="パス_63" data-name="パス 63" d="M-943.944-201.617a.22.22,0,0,0,.073-.243.22.22,0,0,0-.278-.138l-3.588,1.209a.22.22,0,0,0-.138.278.22.22,0,0,0,.278.138l3.588-1.208A.219.219,0,0,0-943.944-201.617Z" transform="translate(950.288 222.15)" fill="#fff"/>
</svg>
