<svg xmlns="http://www.w3.org/2000/svg" width="62.496" height="35" viewBox="0 0 62.496 35">
  <g id="グループ_165" data-name="グループ 165" transform="translate(-74.752 -79)">
    <g id="グループ_23" data-name="グループ 23" transform="translate(102 79)">
      <g id="グループ_21" data-name="グループ 21">
        <path id="パス_49" data-name="パス 49" d="M-1599.133-575.9a.556.556,0,0,1,.556,0l5.636,3.254c.292-.177.614-.364.962-.558a2.831,2.831,0,0,1-.54-2.828c.712-1.5,3.162-1.728,3.954-1.762,3.5-3.169,6.039-4.294,7.764-3.44,1.707.846,1.892,3.376,1.882,4.544a27.706,27.706,0,0,1,14.538,5.152.556.556,0,0,1,.219.442.556.556,0,0,1-.219.442c-.276.211-6.862,5.161-15.117,5.161a26.883,26.883,0,0,1-13.443-4.052l-5.636,3.254a.556.556,0,0,1-.556,0,.556.556,0,0,1-.278-.482v-8.645A.556.556,0,0,1-1599.133-575.9Zm17.837-4.337c-1.669-.826-4.9,1.778-6.672,3.4a.557.557,0,0,1-.371.146c-.687.006-2.747.228-3.176,1.133-.243.513.1,1.224.523,1.825a26.079,26.079,0,0,1,10.962-2.963C-1580.016-577.806-1580.221-579.7-1581.3-580.236Z" transform="translate(1599.411 581.508)" fill="#66acdd"/>
      </g>
      <path id="パス_50" data-name="パス 50" d="M-1572.358-521.53a.766.766,0,0,1,.766.766.766.766,0,0,1-.766.766.766.766,0,0,1-.766-.766A.766.766,0,0,1-1572.358-521.53Z" transform="translate(1602.663 531.059)" fill="#fff"/>
      <path id="パス_51" data-name="パス 51" d="M-1513.573-530.224v2.1a.775.775,0,0,0,1.163.671l1.816-1.048,1.816-1.049a.775.775,0,0,0,0-1.343l-1.816-1.049-1.816-1.048a.775.775,0,0,0-1.163.671Z" transform="translate(1530 540.788)" fill="#fff"/>
      <path id="パス_52" data-name="パス 52" d="M-1553.143-532.515a.248.248,0,0,0,.168-.064.211.211,0,0,0,0-.313,2.473,2.473,0,0,1-.927-1.859,2.757,2.757,0,0,1,.917-1.791.211.211,0,0,0,.021-.308,1.915,1.915,0,0,1-.26-2.252,4.535,4.535,0,0,1,.814-1.193.211.211,0,0,0-.012-.313.251.251,0,0,0-.337.011c-.022.021-2.09,2.115-.7,3.875a3.052,3.052,0,0,0-.917,1.955,2.878,2.878,0,0,0,1.066,2.187A.247.247,0,0,0-1553.143-532.515Z" transform="translate(1580.438 547.156)" fill="#fff"/>
      <path id="パス_53" data-name="パス 53" d="M-1408.388-529.355a.238.238,0,0,0,.225-.159.238.238,0,0,0-.146-.3l-3.873-1.365a.238.238,0,0,0-.3.146.238.238,0,0,0,.146.3l3.873,1.365A.236.236,0,0,0-1408.388-529.355Z" transform="translate(1413.702 539.19)" fill="#fff"/>
      <path id="パス_54" data-name="パス 54" d="M-1407.691-516.95a.238.238,0,0,0,.15-.231.238.238,0,0,0-.247-.229l-4.1.156a.238.238,0,0,0-.229.247.238.238,0,0,0,.247.229l4.1-.156A.236.236,0,0,0-1407.691-516.95Z" transform="translate(1413.032 527.594)" fill="#fff"/>
      <path id="パス_55" data-name="パス 55" d="M-1408.282-511.257a.238.238,0,0,0,.079-.264.238.238,0,0,0-.3-.15l-3.891,1.311a.238.238,0,0,0-.15.3.238.238,0,0,0,.3.15l3.891-1.311A.239.239,0,0,0-1408.282-511.257Z" transform="translate(1413.752 522.777)" fill="#fff"/>
    </g>
    <g id="グループ_22" data-name="グループ 22" transform="translate(74.752 91.056)">
      <g id="グループ_21-2" data-name="グループ 21">
        <path id="パス_49-2" data-name="パス 49" d="M-1599.013-573.472a.8.8,0,0,1,.8,0l8.073,4.661c.418-.253.88-.522,1.378-.8-1.049-1.559-1.312-2.919-.774-4.051,1.02-2.148,4.529-2.475,5.664-2.524,5.011-4.54,8.651-6.152,11.123-4.928,2.446,1.212,2.71,4.836,2.7,6.509,11.435.318,20.439,7.085,20.826,7.38a.8.8,0,0,1,.313.633.8.8,0,0,1-.313.633c-.4.3-9.829,7.393-21.655,7.393-8.319,0-15.491-3.525-19.258-5.805l-8.073,4.661a.8.8,0,0,1-.8,0,.8.8,0,0,1-.4-.69v-12.385A.8.8,0,0,1-1599.013-573.472Zm25.552-6.213c-2.391-1.183-7.015,2.547-9.558,4.876a.8.8,0,0,1-.531.209c-.985.009-3.935.326-4.55,1.624-.349.735.144,1.753.75,2.614a37.361,37.361,0,0,1,15.7-4.244C-1571.627-576.2-1571.921-578.924-1573.46-579.685Z" transform="translate(1599.411 581.508)" fill="#3d8cc3"/>
      </g>
      <path id="パス_50-2" data-name="パス 50" d="M-1572.026-521.53a1.1,1.1,0,0,1,1.1,1.1,1.1,1.1,0,0,1-1.1,1.1,1.1,1.1,0,0,1-1.1-1.1A1.1,1.1,0,0,1-1572.026-521.53Z" transform="translate(1615.44 535.181)" fill="#fff"/>
      <path id="パス_51-2" data-name="パス 51" d="M-1513.573-528.981v3a1.111,1.111,0,0,0,1.666.962l2.6-1.5,2.6-1.5a1.11,1.11,0,0,0,0-1.923l-2.6-1.5-2.6-1.5a1.111,1.111,0,0,0-1.666.962Z" transform="translate(1537.106 544.115)" fill="#fff"/>
      <path id="パス_52-2" data-name="パス 52" d="M-1552.608-528.989a.355.355,0,0,0,.241-.092.3.3,0,0,0,0-.448,3.542,3.542,0,0,1-1.329-2.662,3.948,3.948,0,0,1,1.314-2.565.3.3,0,0,0,.031-.442,2.744,2.744,0,0,1-.372-3.226,6.5,6.5,0,0,1,1.166-1.709.3.3,0,0,0-.017-.448.36.36,0,0,0-.482.016c-.031.031-2.993,3.03-1.009,5.551a4.372,4.372,0,0,0-1.313,2.8,4.123,4.123,0,0,0,1.527,3.133A.353.353,0,0,0-1552.608-528.989Z" transform="translate(1591.71 549.962)" fill="#fff"/>
      <path id="パス_53-2" data-name="パス 53" d="M-1406.61-528.558a.341.341,0,0,0,.322-.228.341.341,0,0,0-.208-.435l-5.548-1.955a.341.341,0,0,0-.435.208.341.341,0,0,0,.209.435l5.548,1.955A.338.338,0,0,0-1406.61-528.558Z" transform="translate(1414.222 542.647)" fill="#fff"/>
      <path id="パス_54-2" data-name="パス 54" d="M-1405.775-516.751a.341.341,0,0,0,.215-.331.341.341,0,0,0-.354-.328l-5.878.224a.341.341,0,0,0-.328.354.341.341,0,0,0,.354.328l5.878-.224A.337.337,0,0,0-1405.775-516.751Z" transform="translate(1413.427 531.999)" fill="#fff"/>
      <path id="パス_55-2" data-name="パス 55" d="M-1406.432-511.073a.341.341,0,0,0,.113-.378.341.341,0,0,0-.432-.214l-5.575,1.878a.341.341,0,0,0-.214.432.341.341,0,0,0,.432.215l5.575-1.877A.342.342,0,0,0-1406.432-511.073Z" transform="translate(1414.268 527.575)" fill="#fff"/>
    </g>
  </g>
</svg>
