<svg xmlns="http://www.w3.org/2000/svg" width="64.482" height="39" viewBox="0 0 64.482 39">
  <g id="グループ_25" data-name="グループ 25" transform="translate(0 8.164)">
    <path id="パス_64" data-name="パス 64" d="M-1043.214-43.613l7.88-9.395a1.67,1.67,0,0,1,2.514-.176l8.6,9.492h35.4a2.235,2.235,0,0,1,2.2,2.676c-2.047,9.785-14.793,18.542-24.7,18.542-9.457,0-17.237-7.976-19.033-17.211l-11.928-1.189A1.619,1.619,0,0,1-1043.214-43.613Z" transform="translate(1043.659 53.311)" fill="#3d8cc3"/>
    <path id="パス_65" data-name="パス 65" d="M-1010,35.269a1.136,1.136,0,0,1,1.52.522,1.136,1.136,0,0,1-.522,1.52,1.137,1.137,0,0,1-1.52-.522A1.137,1.137,0,0,1-1010,35.269Z" transform="translate(1061.019 -23.625)" fill="#fff"/>
    <path id="パス_66" data-name="パス 66" d="M-988.2,37.423a.393.393,0,0,0,.2-.209.334.334,0,0,0-.217-.448,3.934,3.934,0,0,1-2.623-2.009,4.385,4.385,0,0,1,.06-3.2.335.335,0,0,0-.185-.456,3.046,3.046,0,0,1-1.944-3.038,7.225,7.225,0,0,1,.33-2.273.335.335,0,0,0-.235-.439.4.4,0,0,0-.474.251c-.016.046-1.509,4.482,1.7,6.03a4.855,4.855,0,0,0,.055,3.434,4.577,4.577,0,0,0,3.05,2.381A.393.393,0,0,0-988.2,37.423Z" transform="translate(1038.366 -15.125)" fill="#fff"/>
    <path id="パス_67" data-name="パス 67" d="M-918.835,100.762l2.185,2.718a2.318,2.318,0,0,0,3.036.089l2.556-2.58,2.556-2.58c.727-.734-.05-1.7-1.4-1.74l-4.741-.138-4.741-.138c-1.349-.039-2.258.878-1.636,1.652Z" transform="translate(949.76 -80.248)" fill="#fff"/>
    <circle id="楕円形_18" data-name="楕円形 18" cx="2.806" cy="2.806" r="2.806" transform="translate(58.87 3.06)" fill="#66acdd"/>
    <circle id="楕円形_19" data-name="楕円形 19" cx="5.612" cy="5.612" r="5.612" transform="translate(48.582 -8.164)" fill="#66acdd"/>
  </g>
</svg>
