<svg xmlns="http://www.w3.org/2000/svg" width="56.699" height="39" viewBox="0 0 56.699 39">
  <g id="グループ_26" data-name="グループ 26" transform="translate(1147.024 -245.509)">
    <path id="パス_68" data-name="パス 68" d="M-1093.634,307.626l-5.209,5.1-4.285,4.2v-3.588c0-3.367-1.818-6.1-4.062-6.1h-30.535c-5.159,0-9.337,6.307-9.3,14.065.038,7.7,4.288,13.853,9.415,13.853h30.419c2.243,0,4.062-2.73,4.062-6.1v-3.7l4.217,4.221,5.167,5.173c1.471,1.472,3.324-.343,3.336-3.267l.042-10.275.042-10.275C-1090.313,308.015-1092.151,306.174-1093.634,307.626Z" transform="translate(0 -50.768)" fill="#3d8cc3"/>
    <path id="パス_69" data-name="パス 69" d="M-1108.523,363.451a1.747,1.747,0,0,0-2.336.8,1.747,1.747,0,0,0,.8,2.336,1.747,1.747,0,0,0,2.336-.8A1.747,1.747,0,0,0-1108.523,363.451Z" transform="translate(-31.462 -96.233)" fill="#fff"/>
    <path id="パス_70" data-name="パス 70" d="M-1065.72,337.865a.568.568,0,0,1-.352-.216.483.483,0,0,1,.129-.708,5.683,5.683,0,0,0,2.877-3.809,6.334,6.334,0,0,0-1.319-4.431.484.484,0,0,1,.081-.705,4.4,4.4,0,0,0,1.534-4.979,10.438,10.438,0,0,0-1.337-3.037.484.484,0,0,1,.158-.7.577.577,0,0,1,.756.166c.04.058,3.831,5.657-.039,9.05a7.013,7.013,0,0,1,1.248,4.8,6.612,6.612,0,0,1-3.328,4.492A.567.567,0,0,1-1065.72,337.865Z" transform="translate(-70.684 -54.885)" fill="#fff"/>
    <path id="パス_71" data-name="パス 71" d="M-1015.195,260s-1.354-6.7,3.279-9.261c7.746-4.281,21.767-.131,23.793,9.261Z" transform="translate(-119.138 -3.541)" fill="#66acdd"/>
    <path id="パス_72" data-name="パス 72" d="M-918.835,100.762l2.185,2.718a2.318,2.318,0,0,0,3.036.089l2.556-2.58,2.556-2.58c.727-.734-.05-1.7-1.4-1.74l-4.741-.138-4.741-.138c-1.349-.039-2.258.878-1.636,1.652Z" transform="translate(-203.953 172.396)" fill="#fff"/>
  </g>
</svg>
