<svg xmlns="http://www.w3.org/2000/svg" width="44.297" height="39" viewBox="0 0 44.297 39">
  <g id="グループ_166" data-name="グループ 166" transform="translate(-207.352 -75)">
    <g id="グループ_20" data-name="グループ 20" transform="translate(234.804 95.01)">
      <path id="パス_45" data-name="パス 45" d="M-1686.467-264.782l1.023,1.419.969,1.345v-7.423a.987.987,0,0,1,1.555-.807l5.838,4.109,6.246,4.4a.987.987,0,0,1,0,1.614l-6.246,4.4-5.838,4.109a.987.987,0,0,1-1.555-.807v-7.237l-.969,1.345-1.023,1.419a.439.439,0,0,1-.795-.256v-7.368A.439.439,0,0,1-1686.467-264.782Z" transform="translate(1687.262 270.43)" fill="#66acdd"/>
      <path id="パス_46" data-name="パス 46" d="M-1669.271-196.63a.576.576,0,0,1,.576.576.576.576,0,0,1-.576.576.576.576,0,0,1-.576-.576A.576.576,0,0,1-1669.271-196.63Z" transform="translate(1683.46 205.443)" fill="#fff"/>
      <path id="パス_47" data-name="パス 47" d="M-1620.026-202.908v1.576a.583.583,0,0,0,.874.5l1.365-.788,1.365-.788a.583.583,0,0,0,0-1.009l-1.365-.788-1.365-.788a.583.583,0,0,0-.874.5Z" transform="translate(1624.947 212.873)" fill="#fff"/>
      <path id="パス_48" data-name="パス 48" d="M-1651.323-211.138a.178.178,0,0,0,.126-.052.179.179,0,0,0,0-.253,2.062,2.062,0,0,1-.7-1.5,2.275,2.275,0,0,1,.689-1.449.18.18,0,0,0,.016-.249,1.642,1.642,0,0,1-.2-1.823,3.681,3.681,0,0,1,.612-.965.179.179,0,0,0-.009-.253.179.179,0,0,0-.253.009c-.016.017-1.571,1.712-.53,3.136a2.546,2.546,0,0,0-.689,1.582,2.4,2.4,0,0,0,.8,1.77A.178.178,0,0,0-1651.323-211.138Z" transform="translate(1663.387 224.028)" fill="#fff"/>
    </g>
    <g id="グループ_19" data-name="グループ 19" transform="translate(207.352 75)">
      <path id="パス_45-2" data-name="パス 45" d="M-1685.63-258.832l2.1,2.914,1.991,2.763V-268.4a2.027,2.027,0,0,1,3.194-1.658l11.989,8.439,12.828,9.03a2.027,2.027,0,0,1,0,3.315l-12.828,9.03-11.989,8.439a2.027,2.027,0,0,1-3.194-1.658v-14.863l-1.991,2.763-2.1,2.914a.9.9,0,0,1-1.632-.527v-15.133A.9.9,0,0,1-1685.63-258.832Z" transform="translate(1687.262 270.43)" fill="#3d8cc3"/>
      <path id="パス_46-2" data-name="パス 46" d="M-1668.664-196.63a1.183,1.183,0,0,1,1.183,1.183,1.183,1.183,0,0,1-1.183,1.183,1.183,1.183,0,0,1-1.183-1.183A1.183,1.183,0,0,1-1668.664-196.63Z" transform="translate(1697.804 214.729)" fill="#fff"/>
      <path id="パス_47-2" data-name="パス 47" d="M-1620.026-200.632v3.237a1.2,1.2,0,0,0,1.795,1.036l2.8-1.619,2.8-1.618a1.2,1.2,0,0,0,0-2.073l-2.8-1.618-2.8-1.619a1.2,1.2,0,0,0-1.795,1.036Z" transform="translate(1630.132 221.097)" fill="#fff"/>
      <path id="パス_48-2" data-name="パス 48" d="M-1650.344-204.186a.366.366,0,0,0,.259-.107.368.368,0,0,0,0-.52,4.234,4.234,0,0,1-1.432-3.089,4.673,4.673,0,0,1,1.416-2.976.369.369,0,0,0,.033-.512,3.371,3.371,0,0,1-.4-3.743,7.562,7.562,0,0,1,1.256-1.983.368.368,0,0,0-.018-.52.368.368,0,0,0-.52.018c-.033.036-3.225,3.515-1.087,6.44a5.227,5.227,0,0,0-1.415,3.249,4.933,4.933,0,0,0,1.645,3.635A.367.367,0,0,0-1650.344-204.186Z" transform="translate(1675.12 230.658)" fill="#fff"/>
    </g>
  </g>
</svg>
