<svg xmlns="http://www.w3.org/2000/svg" width="61.488" height="41.857" viewBox="0 0 61.488 41.857">
  <g id="グループ_167" data-name="グループ 167" transform="translate(-984.256 -72.143)">
    <g id="グループ_27" data-name="グループ 27" transform="translate(2089.489 521.03) rotate(-11)">
      <path id="パス_73" data-name="パス 73" d="M-970.12-628.329a2.942,2.942,0,0,0,2.87-3.567,16.967,16.967,0,0,0-16.585-13.394A16.967,16.967,0,0,0-1000.42-631.9a2.942,2.942,0,0,0,2.87,3.567h6.914v12.18a3.33,3.33,0,0,1-3.326,3.326,3.33,3.33,0,0,1-3.326-3.326v-.908a1.212,1.212,0,0,0-1.212-1.212,1.212,1.212,0,0,0-1.212,1.212v.908a5.757,5.757,0,0,0,5.75,5.75,5.757,5.757,0,0,0,5.75-5.75v-12.18h1.041v12.075a1.212,1.212,0,0,0,1.212,1.212,1.212,1.212,0,0,0,1.212-1.212v-12.075h1.041v12.075a1.212,1.212,0,0,0,1.212,1.212,1.212,1.212,0,0,0,1.212-1.212v-12.075h1.329v12.18a5.757,5.757,0,0,0,5.75,5.75,5.757,5.757,0,0,0,5.75-5.75v-.908a1.212,1.212,0,0,0-1.212-1.212,1.212,1.212,0,0,0-1.212,1.212v.908a3.33,3.33,0,0,1-3.326,3.326,3.33,3.33,0,0,1-3.326-3.326v-12.18Z" transform="translate(0 0)" fill="#3d8cc3"/>
      <path id="パス_74" data-name="パス 74" d="M-938.584-602.331a1.488,1.488,0,0,0-1.488,1.488,1.488,1.488,0,0,0,1.488,1.487,1.488,1.488,0,0,0,1.488-1.487A1.488,1.488,0,0,0-938.584-602.331Z" transform="translate(-46.203 -34.375)" fill="#fff"/>
      <path id="パス_75" data-name="パス 75" d="M-905.634-602.331a1.487,1.487,0,0,0-1.487,1.488,1.487,1.487,0,0,0,1.487,1.487,1.488,1.488,0,0,0,1.488-1.487A1.488,1.488,0,0,0-905.634-602.331Z" transform="translate(-72.899 -34.936)" fill="#fff"/>
    </g>
    <g id="グループ_28" data-name="グループ 28" transform="translate(1041.263 114) rotate(-169)">
      <path id="パス_73-2" data-name="パス 73" d="M20.439,12.068a1.98,1.98,0,0,1,1.932,2.4,11.419,11.419,0,0,1-22.326,0,1.98,1.98,0,0,1,1.932-2.4H6.63V3.87a2.238,2.238,0,1,0-4.477,0v.611a.816.816,0,0,1-1.632,0V3.87a3.87,3.87,0,0,1,7.741,0v8.2h.7V3.941a.816.816,0,1,1,1.632,0v8.127h.7V3.941a.816.816,0,0,1,1.632,0v8.127h.894V3.87a3.87,3.87,0,1,1,7.74,0v.611a.816.816,0,1,1-1.632,0V3.87a2.238,2.238,0,0,0-4.477,0v8.2Z" transform="translate(0)" fill="#66acdd"/>
      <path id="パス_74-2" data-name="パス 74" d="M1,2A1,1,0,1,1,2,1,1,1,0,0,1,1,2Z" transform="translate(9.566 15.704)" fill="#fff"/>
      <path id="パス_75-2" data-name="パス 75" d="M1,2A1,1,0,1,1,2,1,1,1,0,0,1,1,2Z" transform="translate(13.775 16.082)" fill="#fff"/>
    </g>
  </g>
</svg>
