<svg xmlns="http://www.w3.org/2000/svg" width="63.452" height="39" viewBox="0 0 63.452 39">
  <g id="グループ_31" data-name="グループ 31" transform="translate(711.034 768.172)">
    <path id="パス_80" data-name="パス 80" d="M-650.076-754.416l-11.593,1.268c-2.595-8.612-12.512-15.024-24.351-15.024-13.815,0-25.014,8.73-25.014,19.5s11.2,19.5,25.014,19.5c10.5,0,19.494-5.048,23.2-12.2l12.678,1.619c1.309.167,2.559-.385,2.559-1.131v-12.391C-647.582-754.008-648.784-754.557-650.076-754.416Z" transform="translate(0)" fill="#3d8cc3"/>
    <path id="パス_81" data-name="パス 81" d="M-584.271-678.09l.188,4.364a1.615,1.615,0,0,1-2.36,1.5l-3.873-2.019-3.873-2.019a1.615,1.615,0,0,1-.12-2.795l3.685-2.345,3.685-2.345a1.615,1.615,0,0,1,2.48,1.293Z" transform="translate(-95.077 -69.003)" fill="#fff"/>
    <path id="パス_82" data-name="パス 82" d="M-683.269-665.224a1.53,1.53,0,0,0-1.53,1.53,1.53,1.53,0,0,0,1.53,1.53,1.53,1.53,0,0,0,1.53-1.53A1.53,1.53,0,0,0-683.269-665.224Z" transform="translate(-21.507 -84.397)" fill="#fff"/>
    <path id="パス_83" data-name="パス 83" d="M-657.164-701.028a.806.806,0,0,1-.548-.21.686.686,0,0,1,0-1.021c2.067-1.932,3.085-3.973,3.026-6.065-.1-3.367-2.964-5.819-2.994-5.843a.688.688,0,0,1-.07-1.006c1.856-2.014,2.141-4.486.847-7.349a14.822,14.822,0,0,0-2.656-3.893.687.687,0,0,1,.039-1.02.82.82,0,0,1,1.1.035c.071.07,6.819,6.9,2.3,12.645a9.958,9.958,0,0,1,2.991,6.378c.076,2.508-1.094,4.909-3.477,7.136A.805.805,0,0,1-657.164-701.028Z" transform="translate(-42.026 -33.237)" fill="#fff"/>
  </g>
</svg>
