<svg xmlns="http://www.w3.org/2000/svg" width="260.379" height="153.843" viewBox="0 0 260.379 153.843">
  <g id="グループ_63" data-name="グループ 63" transform="translate(1996.201 -70.333)">
    <path id="パス_108" data-name="パス 108" d="M-1741.774,141.115c-5.649-6.39-14.2-9.939-23.03-10.323-.871-.038-1.46-.771-1.17-1.457,5.182-12.273-1.635-26.035-16.113-31.56a36.109,36.109,0,0,0-21.516-1.236,1.3,1.3,0,0,1-1.7-1.041c-.152-12.131-10.733-22.785-25.6-24.822-14.807-2.029-28.877,5.174-33.74,16.547a1.8,1.8,0,0,1-3.1.054c-3.318-6.6-12.215-18.181-33.385-16.6-15.007,1.12-25.46,12.62-25.6,24.821a1.3,1.3,0,0,1-1.7,1.042,36.111,36.111,0,0,0-21.516,1.237c-14.478,5.525-21.294,19.287-16.113,31.56.29.686-.3,1.42-1.17,1.457-8.825.384-17.38,3.933-23.029,10.323-10.007,11.321-7.1,27.256,6.489,35.591l58.874,20.3,9.864,3.4c-7.06.738-12.522,5.753-12.522,11.833h0c0,6.589,6.412,11.93,14.322,11.93h94.42c7.91,0,14.322-5.341,14.322-11.93h0c0-6.081-5.463-11.1-12.523-11.833l9.865-3.4,58.874-20.3C-1734.673,168.371-1731.768,152.436-1741.774,141.115Z" transform="translate(0 0)" fill="#d6eeff"/>
    <path id="パス_109" data-name="パス 109" d="M-1741.774,207.666c-5.649-6.39-14.2-9.939-23.03-10.323-.871-.038-1.46-.771-1.17-1.457a21.641,21.641,0,0,0-1.812-20.294l-.1-.06a96.207,96.207,0,0,0-25-9.93,54.928,54.928,0,0,0-25.208-.146c-7.764,1.806-14.893,5.031-21.976,8.16-7.027,3.1-14.158,6.174-21.872,7.921-7.666,1.736-15.725,1.679-23.564.9-16.455-1.629-32.183-6.38-48.58-8.278-7.927-.917-16.084-1.127-23.928.384a50.49,50.49,0,0,0-6.646,1.76,21.576,21.576,0,0,0-1.381,19.58c.29.686-.3,1.42-1.17,1.457-8.825.384-17.38,3.933-23.029,10.323-10.007,11.321-7.1,27.256,6.489,35.591l58.874,20.3,9.864,3.4c-7.06.738-12.522,5.752-12.522,11.833h0c0,6.589,6.412,11.93,14.322,11.93h94.42c7.91,0,14.322-5.341,14.322-11.93h0c0-6.081-5.463-11.1-12.523-11.833l9.865-3.4,58.874-20.3C-1734.673,234.921-1731.768,218.986-1741.774,207.666Z" transform="translate(0 -66.551)" fill="#b5dfff"/>
    <path id="パス_110" data-name="パス 110" d="M-1742.932,323.815a94.052,94.052,0,0,0-27.845-2.75c-11.019.478-21.932,2.5-32.627,4.658-11.254,2.274-22.388,4.936-33.623,7.273-21.782,4.531-44.4,7.738-66.751,4.215-9.161-1.444-18.148-3.679-27.272-5.292a199.058,199.058,0,0,0-27.1-3.182,90.322,90.322,0,0,0-26.386,2.452,56.522,56.522,0,0,0-11.5,4.408c.5,7.31,4.753,14.386,12.384,19.067l58.874,20.3,9.864,3.4c-7.06.738-12.522,5.752-12.522,11.833h0c0,6.589,6.412,11.93,14.323,11.93h94.419c7.91,0,14.322-5.341,14.322-11.93h0c0-6.081-5.463-11.1-12.522-11.833l9.865-3.4,58.874-20.3c11.2-6.869,15.134-18.9,10.574-29.253Q-1740.216,324.531-1742.932,323.815Z" transform="translate(-0.108 -177.957)" fill="#4faaf2"/>
  </g>
</svg>
