<svg id="レイヤー_1" data-name="レイヤー 1" xmlns="http://www.w3.org/2000/svg" viewBox="0 0 267.56 37.76"><defs><style>.cls-1{fill:#229dd6;}</style></defs><path class="cls-1" d="M2.11,20.62l9.6-10.54L33.93,25.9l-3.7,5.76L11.64,14.3l-5,10ZM20.39,8.39l4-2.95,5.1,3.13-3,6-5.66-1.13Zm4.11-.6L22.39,9.06l.11,2.53,2.88.81L27,9.2Z"/><path class="cls-1" d="M42.11,17.74,70.79,17l.14,2.18-28.75.7Z"/><path class="cls-1" d="M80.24,17l.39-1.3L92,16.55l-2.39,6Zm2.5-9.67L83.51,6l12,2.67-3.41,5.7ZM86.6,34.23l-2.67-6.86L101.79,22l7.88-4.89.38,1.8-5.17,6.89ZM101.72,5.44l1.16-.39L106,10.43l-2.71,1.3Zm3.8-1.3,1-.64,3.76,4.33-2.49,1.58Z"/><path class="cls-1" d="M124.28,5.58l6.05.77V17.64l16.77,3.27-3.52,5.62-13.25-6.15V33.81l-5.49,1Z"/><path class="cls-1" d="M162.24,25.62l-3.06-9.53,1.33-.7L167,22.94Zm6.82-3.55-2.5-9.22,1.34-.73L174,19.85Zm10.58-7.35,5.66,2L179,30.47l-9.74,4.88-.81-1.65L174.89,27Z"/><path class="cls-1" d="M218.3,6.32l2.88-4.08,5.87,1.3-.91,6.71-2.85.35-6.57,17.34L205.15,33.7l-1.12-1,8.22-9.78,4.15-12.69-20.6.6,0-1.9,23.56-.42ZM222,4.45l-1.58,1.87.91,2.39,3-.14L224.87,5Z"/><path class="cls-1" d="M232.88,19.75,241.56,9h4.54L264.87,27l-4.39,4.82L243.6,11.31l-6.15,12.48Z"/></svg>