<svg xmlns="http://www.w3.org/2000/svg" xmlns:xlink="http://www.w3.org/1999/xlink" width="1383.992" height="258.25" viewBox="0 0 1383.992 258.25">
  <defs>
    <filter id="パス_41" x="0" y="0" width="1383.992" height="258.25" filterUnits="userSpaceOnUse">
      <feOffset dy="3" input="SourceAlpha"/>
      <feGaussianBlur stdDeviation="3" result="blur"/>
      <feFlood flood-opacity="0.161"/>
      <feComposite operator="in" in2="blur"/>
      <feComposite in="SourceGraphic"/>
    </filter>
  </defs>
  <g transform="matrix(1, 0, 0, 1, 0, 0)" filter="url(#パス_41)">
    <path id="パス_41-2" data-name="パス 41" d="M129.278,784.815V565.843L176.6,548.09c12.528-4.7,29.438-4.7,41.966,0l26.333,9.881c12.528,4.7,29.438,4.7,41.966,0l26.334-9.881c12.528-4.7,29.438-4.7,41.966,0l26.334,9.881c12.528,4.7,29.438,4.7,41.966,0l26.334-9.881c12.528-4.7,29.438-4.7,41.966,0l26.333,9.881c12.529,4.7,29.438,4.7,41.966,0l26.334-9.881c12.528-4.7,29.438-4.7,41.966,0l26.334,9.881c12.528,4.7,29.438,4.7,41.966,0l26.333-9.881c12.528-4.7,29.438-4.7,41.966,0l26.333,9.881c12.529,4.7,29.438,4.7,41.966,0l26.334-9.881c12.528-4.7,29.438-4.7,41.966,0l26.334,9.881c12.528,4.7,29.438,4.7,41.966,0l26.333-9.881c12.528-4.7,29.438-4.7,41.966,0l26.333,9.881c12.529,4.7,29.438,4.7,41.966,0l26.334-9.881c12.528-4.7,29.438-4.7,41.966,0l26.334,9.881c12.528,4.7,29.438,4.7,41.966,0l26.333-9.881c12.528-4.7,29.438-4.7,41.966,0l26.333,9.881c12.529,4.7,29.438,4.7,41.966,0l26.334-9.881c12.528-4.7,29.438-4.7,41.966,0l47.317,17.753V784.815Z" transform="translate(-120.28 -538.56)" fill="#1078a8"/>
  </g>
</svg>
