<svg xmlns="http://www.w3.org/2000/svg" xmlns:xlink="http://www.w3.org/1999/xlink" width="1383.992" height="213" viewBox="0 0 1383.992 213">
  <defs>
    <filter id="パス_41" x="0" y="0" width="1383.992" height="213" filterUnits="userSpaceOnUse">
      <feOffset dy="3" input="SourceAlpha"/>
      <feGaussianBlur stdDeviation="3" result="blur"/>
      <feFlood flood-opacity="0.161"/>
      <feComposite operator="in" in2="blur"/>
      <feComposite in="SourceGraphic"/>
    </filter>
  </defs>
  <g transform="matrix(1, 0, 0, 1, 0, 0)" filter="url(#パス_41)">
    <path id="パス_41-2" data-name="パス 41" d="M129.278,544.565v177.73L176.6,736.7c12.528,3.815,29.438,3.815,41.966,0l26.333-8.02c12.528-3.815,29.438-3.815,41.966,0l26.334,8.02c12.528,3.815,29.438,3.815,41.966,0l26.334-8.02c12.528-3.815,29.438-3.815,41.966,0l26.334,8.02c12.528,3.815,29.438,3.815,41.966,0l26.333-8.02c12.529-3.815,29.438-3.815,41.966,0l26.334,8.02c12.528,3.815,29.438,3.815,41.966,0l26.334-8.02c12.528-3.815,29.438-3.815,41.966,0l26.333,8.02c12.528,3.815,29.438,3.815,41.966,0l26.333-8.02c12.529-3.815,29.438-3.815,41.966,0l26.334,8.02c12.528,3.815,29.438,3.815,41.966,0l26.334-8.02c12.528-3.815,29.438-3.815,41.966,0l26.333,8.02c12.528,3.815,29.438,3.815,41.966,0l26.333-8.02c12.529-3.815,29.438-3.815,41.966,0l26.334,8.02c12.528,3.815,29.438,3.815,41.966,0l26.334-8.02c12.528-3.815,29.438-3.815,41.966,0l26.333,8.02c12.528,3.815,29.438,3.815,41.966,0l26.333-8.02c12.529-3.815,29.438-3.815,41.966,0l26.334,8.02c12.528,3.815,29.438,3.815,41.966,0l47.317-14.409V544.565Z" transform="translate(-120.28 -538.57)" fill="#eaffff"/>
  </g>
</svg>
