<svg xmlns="http://www.w3.org/2000/svg" width="138.793" height="107.832" viewBox="0 0 138.793 107.832">
  <g id="グループ_148" data-name="グループ 148" transform="translate(-2050.972 4772.814)">
    <path id="パス_212" data-name="パス 212" d="M3263.037-4334.363s29.246-13.031,37.929.862c6.465,10.344-10.8,21.41-10.8,21.41Z" transform="translate(-1122.018 -400.745)" fill="#ffc43e"/>
    <path id="パス_213" data-name="パス 213" d="M3237.472-3673.508s29.246,13.031,37.93-.863c6.465-10.344-10.8-21.41-10.8-21.41Z" transform="translate(-1098.353 -997.018)" fill="#ffc43e"/>
    <circle id="楕円形_104" data-name="楕円形 104" cx="18.21" cy="18.21" r="18.21" transform="translate(2050.972 -4722.091)" fill="#f6fe21"/>
    <rect id="長方形_24" data-name="長方形 24" width="104.875" height="77.799" rx="38.9" transform="translate(2064.31 -4742.782)" fill="#ff5e50"/>
    <path id="パス_214" data-name="パス 214" d="M3782.388-4002.345a.638.638,0,0,1-.95-.447c-.456-2.732-1.5-10.963,2.527-10.437q.368.048.7.113a3.82,3.82,0,0,1,2.537,5.732A14.634,14.634,0,0,1,3782.388-4002.345Z" transform="translate(-1601.472 -703.131)" fill="#f6fe21"/>
    <circle id="楕円形_105" data-name="楕円形 105" cx="1.795" cy="1.795" r="1.795" transform="translate(2178.883 -4704.359)" fill="#ff5e50"/>
    <path id="パス_215" data-name="パス 215" d="M3829.478-3865.719a.519.519,0,0,1-.213-.73c1.064-1.2,4.419-4.608,5.96-1.973q.14.241.255.463c.917,1.766.132,3.552-1.535,3.477A9.908,9.908,0,0,1,3829.478-3865.719Z" transform="translate(-1646.103 -836.3)" fill="#f6fe21"/>
    <path id="パス_216" data-name="パス 216" d="M3680.969-3863.352a.519.519,0,0,1,.107.753c-1.224,1.034-5.028,3.934-6.179,1.107-.071-.172-.133-.336-.188-.494-.657-1.879.374-3.535,2.013-3.225A9.92,9.92,0,0,1,3680.969-3863.352Z" transform="translate(-1502.921 -840.141)" fill="#f6fe21"/>
    <path id="パス_217" data-name="パス 217" d="M3756.761-3788.992a.638.638,0,0,1,1.045.1c1.354,2.416,5.127,9.806,1.157,10.676q-.362.08-.693.129a3.82,3.82,0,0,1-4.328-4.533A14.625,14.625,0,0,1,3756.761-3788.992Z" transform="translate(-1576.382 -910.52)" fill="#f6fe21"/>
    <path id="パス_218" data-name="パス 218" d="M2712.994-4733.667h3.38v-19.227a6.8,6.8,0,0,0-5.692-6.731,13.17,13.17,0,0,0-3.229-.082v7.978s5.062-.514,5.576,3.174S2712.994-4733.667,2712.994-4733.667Z" transform="translate(-607.708 -12.078)" fill="#ff5e50"/>
    <rect id="長方形_25" data-name="長方形 25" width="25.193" height="6.004" rx="3.002" transform="translate(2096.577 -4746.656)" fill="#ffc43e"/>
    <circle id="楕円形_106" data-name="楕円形 106" cx="11.942" cy="11.942" r="11.942" transform="translate(2081.877 -4714.506)" fill="#f6ff21"/>
    <circle id="楕円形_107" data-name="楕円形 107" cx="9.227" cy="9.227" r="9.227" transform="translate(2084.593 -4711.792)" fill="#7fd1d5"/>
    <path id="パス_219" data-name="パス 219" d="M2510.013-3937.036c.205-.246.417-.486.623-.731s.4-.506.615-.752c1.029-1.2,2.081-2.377,3.131-3.557,1.065-1.2,2.129-2.4,3.166-3.62.258-.3.508-.615.769-.917s.51-.583.764-.877c.508-.588,1.013-1.179,1.521-1.767l.067-.078a9.136,9.136,0,0,0-1.857-.5c-.3.322-.609.642-.912.964-1.051,1.122-2.043,2.3-3.039,3.47-1.015,1.2-2.025,2.4-3.052,3.582-.979,1.132-1.974,2.248-3.006,3.333l-.327.344a9.183,9.183,0,0,0,.861,2.017A7.818,7.818,0,0,1,2510.013-3937.036Z" transform="translate(-423.516 -761.836)" fill="#fff"/>
    <path id="パス_220" data-name="パス 220" d="M2556.309-3891.847c.445-.59.885-1.183,1.338-1.765q1.576-2.019,3.171-4.021t3.182-3.987c.789-.986,1.641-1.915,2.495-2.843a9.151,9.151,0,0,0-.843-1.222c-.772.657-1.579,1.275-2.365,1.917-.308.251-.59.535-.874.813s-.571.562-.852.847q-.847.86-1.662,1.747c-1.082,1.174-2.13,2.378-3.169,3.59-.524.611-1.043,1.225-1.576,1.827q-.829.934-1.668,1.86c-.179.2-.36.4-.54.6a9.191,9.191,0,0,0,2.8,1.441C2555.921-3891.323,2556.113-3891.587,2556.309-3891.847Z" transform="translate(-464.681 -802.708)" fill="#fff"/>
    <circle id="楕円形_108" data-name="楕円形 108" cx="11.942" cy="11.942" r="11.942" transform="translate(2124.025 -4714.506)" fill="#f6ff21"/>
    <circle id="楕円形_109" data-name="楕円形 109" cx="9.227" cy="9.227" r="9.227" transform="translate(2126.74 -4711.792)" fill="#7fd1d5"/>
    <path id="パス_221" data-name="パス 221" d="M3077.326-3937.036c.2-.246.417-.486.623-.731s.4-.506.615-.752c1.03-1.2,2.082-2.377,3.132-3.557,1.065-1.2,2.128-2.4,3.166-3.62.258-.3.508-.615.77-.917s.51-.583.763-.877c.509-.588,1.013-1.179,1.521-1.767l.067-.078a9.158,9.158,0,0,0-1.857-.5c-.3.322-.609.642-.912.964-1.052,1.122-2.044,2.3-3.04,3.47-1.015,1.2-2.025,2.4-3.051,3.582-.98,1.132-1.975,2.248-3.007,3.333l-.327.344a9.161,9.161,0,0,0,.861,2.017A7.735,7.735,0,0,1,3077.326-3937.036Z" transform="translate(-948.682 -761.836)" fill="#fff"/>
    <path id="パス_222" data-name="パス 222" d="M3123.622-3891.847c.445-.59.884-1.183,1.339-1.765q1.576-2.019,3.17-4.021t3.182-3.987c.789-.986,1.641-1.915,2.5-2.843a9.223,9.223,0,0,0-.844-1.222c-.772.657-1.579,1.275-2.365,1.917-.308.251-.59.535-.875.813s-.57.562-.852.847q-.846.86-1.662,1.747c-1.082,1.174-2.13,2.378-3.168,3.59-.523.611-1.042,1.225-1.576,1.827q-.829.934-1.668,1.86l-.54.6a9.182,9.182,0,0,0,2.8,1.441C3123.235-3891.323,3123.426-3891.587,3123.622-3891.847Z" transform="translate(-989.847 -802.708)" fill="#fff"/>
    <rect id="長方形_26" data-name="長方形 26" width="2.316" height="9.78" rx="1.158" transform="translate(2098.307 -4772.814)" fill="#ffc43e"/>
  </g>
</svg>
